<svg width="500" height="406" viewBox="0 0 500 406" fill="none" xmlns="http://www.w3.org/2000/svg">
<path d="M500 360.4H0V360.65H500V360.4Z" fill="#EBEBEB"/>
<path d="M449.9 376.49H416.78V376.74H449.9V376.49Z" fill="#EBEBEB"/>
<path d="M273.22 373.36H260.33V373.61H273.22V373.36Z" fill="#EBEBEB"/>
<path d="M349.67 374.42H322.53V374.67H349.67V374.42Z" fill="#EBEBEB"/>
<path d="M415.78 367.21H359.67V367.46H415.78V367.21Z" fill="#EBEBEB"/>
<path d="M78.99 378.78H52.46V379.03H78.99V378.78Z" fill="#EBEBEB"/>
<path d="M110.89 378.78H87.8899V379.03H110.89V378.78Z" fill="#EBEBEB"/>
<path d="M191.81 373.24H131V373.49H191.81V373.24Z" fill="#EBEBEB"/>
<path d="M237 315.8H43.91C42.3973 315.797 40.9475 315.195 39.8788 314.124C38.8102 313.053 38.21 311.603 38.21 310.09V38.66C38.2231 37.156 38.8292 35.718 39.8964 34.6582C40.9637 33.5985 42.4059 33.0026 43.91 33H237C238.514 33 239.967 33.6016 241.038 34.6724C242.108 35.7433 242.71 37.1956 242.71 38.71V310.09C242.71 311.604 242.108 313.057 241.038 314.128C239.967 315.198 238.514 315.8 237 315.8ZM43.91 33.2C42.4636 33.2026 41.0774 33.7791 40.0556 34.8027C39.0338 35.8264 38.46 37.2136 38.46 38.66V310.09C38.46 311.536 39.0338 312.924 40.0556 313.947C41.0774 314.971 42.4636 315.547 43.91 315.55H237C238.447 315.547 239.834 314.971 240.858 313.948C241.881 312.924 242.457 311.537 242.46 310.09V38.66C242.457 37.2127 241.881 35.8255 240.858 34.8021C239.834 33.7787 238.447 33.2026 237 33.2H43.91Z" fill="#EBEBEB"/>
<path d="M453.31 315.8H260.21C258.696 315.797 257.246 315.195 256.175 314.125C255.105 313.054 254.503 311.604 254.5 310.09V38.66C254.516 37.1551 255.124 35.7171 256.193 34.6576C257.262 33.5981 258.705 33.0025 260.21 33H453.31C454.812 33.0052 456.252 33.6022 457.317 34.6617C458.382 35.7212 458.987 37.1578 459 38.66V310.09C459 311.601 458.401 313.05 457.335 314.121C456.268 315.191 454.821 315.795 453.31 315.8ZM260.21 33.2C258.763 33.2026 257.375 33.7787 256.352 34.8021C255.329 35.8255 254.753 37.2127 254.75 38.66V310.09C254.753 311.537 255.329 312.924 256.352 313.948C257.375 314.971 258.763 315.547 260.21 315.55H453.31C454.757 315.547 456.145 314.971 457.168 313.948C458.191 312.924 458.767 311.537 458.77 310.09V38.66C458.767 37.2127 458.191 35.8255 457.168 34.8021C456.145 33.7787 454.757 33.2026 453.31 33.2H260.21Z" fill="#EBEBEB"/>
<path d="M467.06 172.17C470.194 161.337 469.844 149.793 466.06 139.17C470.079 133.417 472.743 126.83 473.853 119.901C474.963 112.972 474.49 105.881 472.47 99.1612C470.449 92.441 466.934 86.2654 462.187 81.0974C457.44 75.9293 451.585 71.9029 445.06 69.32C443.152 55.566 437.708 42.5425 429.259 31.5229C420.81 20.5033 409.646 11.8649 396.859 6.45223C384.071 1.03958 370.098 -0.962001 356.305 0.643195C342.513 2.24839 329.373 7.40542 318.17 15.61C312.539 9.697 305.271 5.59988 297.297 3.84365C289.323 2.08741 281.007 2.75207 273.413 5.75245C265.819 8.75283 259.294 13.9523 254.674 20.6845C250.053 27.4168 247.549 35.3752 247.48 43.54C236.929 45.6565 227.111 50.4869 218.996 57.5547C210.881 64.6226 204.748 73.6837 201.202 83.8445C197.657 94.0053 196.821 104.915 198.778 115.497C200.735 126.079 205.416 135.969 212.36 144.19C208.963 150.315 206.991 157.126 206.59 164.118C206.19 171.111 207.37 178.103 210.044 184.576C212.719 191.049 216.818 196.835 222.037 201.505C227.256 206.175 233.461 209.609 240.19 211.55C248.046 213.826 256.363 213.985 264.3 212.01C275.056 226.833 291.061 236.996 309.052 240.426C327.043 243.856 345.664 240.296 361.12 230.47C368.65 247.96 374.83 274.2 361.52 299.93C409.87 295.19 444.78 248.82 437.66 206.33C444.732 203.09 451.02 198.36 456.094 192.464C461.169 186.568 464.909 179.646 467.06 172.17Z" fill="#EBEBEB"/>
<path d="M374.32 290.33C374.188 290.331 374.058 290.306 373.936 290.256C373.814 290.206 373.704 290.133 373.61 290.04C373.482 289.912 373.39 289.751 373.346 289.575C373.302 289.399 373.307 289.214 373.36 289.04C380.17 265.32 373.96 242.58 367.56 227.68L364.31 220.13L357.37 224.54C343.425 233.408 326.622 236.624 310.388 233.532C294.154 230.44 279.71 221.273 270 207.9L267.22 204.07L262.64 205.21C255.157 207.072 247.293 206.707 240.015 204.159C232.736 201.612 226.362 196.992 221.674 190.869C216.986 184.746 214.19 177.387 213.63 169.696C213.07 162.005 214.769 154.318 218.52 147.58L220.85 143.36L217.74 139.68C211.579 132.39 207.424 123.62 205.685 114.235C203.947 104.85 204.685 95.1738 207.826 86.1608C210.968 77.1478 216.405 69.1094 223.601 62.8384C230.796 56.5673 239.502 52.2803 248.86 50.4L254.42 49.28L254.48 43.62C254.531 36.8457 256.605 30.2411 260.436 24.6535C264.266 19.0658 269.678 14.7498 275.978 12.259C282.278 9.76819 289.179 9.21622 295.795 10.6739C302.411 12.1315 308.44 15.5323 313.11 20.44L317.35 24.88L322.35 21.26C332.573 13.7613 344.568 9.0451 357.161 7.57313C369.753 6.10115 382.512 7.92379 394.189 12.8627C405.866 17.8015 416.061 25.6874 423.776 35.7486C431.49 45.8098 436.46 57.7015 438.2 70.26L438.77 74.26L442.56 75.76C448.102 77.9539 453.075 81.3745 457.107 85.7651C461.138 90.1557 464.122 95.4023 465.836 101.111C467.55 106.82 467.948 112.843 467.001 118.728C466.055 124.613 463.788 130.207 460.37 135.09L458.31 138.04L459.52 141.44C463.459 152.532 463.1 164.697 458.513 175.537C453.926 186.377 445.444 195.105 434.74 200L429.87 202.24L430.76 207.52C433.76 225.65 428.33 245.45 415.76 261.85C405.381 275.447 390.967 285.413 374.58 290.32C374.494 290.336 374.407 290.339 374.32 290.33ZM364.77 217.68C364.866 217.666 364.964 217.666 365.06 217.68C365.198 217.723 365.324 217.796 365.431 217.892C365.538 217.989 365.623 218.108 365.68 218.24L369.39 226.86C375.77 241.69 381.94 264.15 375.76 287.79C391.038 282.822 404.442 273.321 414.19 260.55C426.41 244.55 431.73 225.35 428.79 207.77L427.79 201.77C427.752 201.553 427.786 201.33 427.887 201.135C427.988 200.94 428.151 200.783 428.35 200.69L433.91 198.14C444.139 193.451 452.243 185.103 456.628 174.74C461.012 164.376 461.359 152.747 457.6 142.14L456.22 138.26C456.167 138.109 456.152 137.948 456.174 137.789C456.197 137.631 456.257 137.48 456.35 137.35L458.7 133.97C461.946 129.335 464.1 124.025 464.999 118.439C465.899 112.853 465.522 107.135 463.896 101.715C462.269 96.2958 459.436 91.3151 455.61 87.147C451.783 82.979 447.061 79.7321 441.8 77.65L437.46 75.93C437.296 75.8647 437.153 75.7572 437.044 75.6185C436.935 75.4798 436.865 75.3147 436.84 75.14L436.19 70.53C434.505 58.3093 429.673 46.7361 422.169 36.9444C414.665 27.1527 404.746 19.4783 393.384 14.6734C382.022 9.86837 369.606 8.09756 357.354 9.53445C345.101 10.9713 333.432 15.5666 323.49 22.87L317.82 27C317.625 27.1431 317.385 27.2108 317.144 27.1905C316.904 27.1703 316.678 27.0636 316.51 26.89L311.66 21.82C308.665 18.6959 305.07 16.2088 301.09 14.5076C297.11 12.8065 292.828 11.9264 288.5 11.92C280.063 11.9197 271.967 15.2513 265.975 21.1899C259.982 27.1284 256.577 35.1935 256.5 43.63L256.43 50.11C256.435 50.344 256.357 50.5722 256.211 50.7549C256.065 50.9376 255.859 51.0633 255.63 51.11L249.28 52.39C240.267 54.2026 231.882 58.3323 224.951 64.3723C218.02 70.4123 212.782 78.1539 209.754 86.8344C206.726 95.5149 206.012 104.835 207.682 113.875C209.353 122.916 213.35 131.365 219.28 138.39L222.83 142.6C222.961 142.755 223.041 142.946 223.061 143.148C223.081 143.35 223.038 143.553 222.94 143.73L220.28 148.55C218.906 151.024 217.813 153.643 217.02 156.36C215.191 162.7 215.062 169.41 216.648 175.815C218.234 182.22 221.477 188.095 226.053 192.849C230.629 197.603 236.376 201.069 242.715 202.898C249.055 204.728 255.765 204.856 262.17 203.27L267.41 201.97C267.603 201.922 267.806 201.932 267.993 202C268.18 202.068 268.343 202.189 268.46 202.35L271.63 206.72C281.03 219.703 295.034 228.606 310.78 231.608C326.525 234.609 342.822 231.484 356.34 222.87L364.27 217.87C364.416 217.762 364.589 217.697 364.77 217.68Z" fill="white"/>
<path d="M304.19 124.19L277.39 120L277.8 117.32C278.269 113.537 279.378 109.861 281.08 106.45C282.573 103.75 284.553 101.349 286.92 99.3701C289.327 97.3701 294.567 93.9501 302.64 89.1101C306.93 86.5901 309.28 84.0501 309.64 81.4601C309.877 80.3599 309.879 79.2221 309.647 78.121C309.414 77.0199 308.952 75.9803 308.29 75.0701C306.99 73.4001 304.78 72.3201 301.68 71.8401C300.153 71.5502 298.582 71.5781 297.067 71.9222C295.551 72.2663 294.122 72.9192 292.87 73.8401C290.337 75.7134 288.337 79.3534 286.87 84.7601L260.03 77.1101C262.537 67.1968 267.457 59.6667 274.79 54.5201C282.123 49.3734 292.37 47.8267 305.53 49.8801C315.783 51.4734 323.727 54.9001 329.36 60.1601C337.013 67.2801 340.09 75.6601 338.59 85.3001C337.918 89.3631 336.152 93.1661 333.48 96.3001C330.693 99.6734 325.47 103.507 317.81 107.8C312.477 110.833 309.01 113.39 307.41 115.47C305.621 118.06 304.514 121.059 304.19 124.19ZM275.36 127L304.07 131.47L300.13 156.79L271.42 152.32L275.36 127Z" fill="white"/>
<path d="M372.59 163.42L357.71 151.42L358.92 149.93C360.548 147.79 362.526 145.941 364.77 144.46C366.639 143.346 368.696 142.583 370.84 142.21C375.234 141.698 379.656 141.468 384.08 141.52C387.587 141.52 389.92 140.797 391.08 139.35C391.619 138.766 392.027 138.072 392.275 137.316C392.524 136.561 392.607 135.761 392.52 134.97C392.147 133.213 391.112 131.666 389.63 130.65C388.8 129.933 387.83 129.396 386.782 129.072C385.734 128.749 384.63 128.646 383.54 128.77C381.327 129.01 378.817 130.52 376.01 133.3L362.34 119.11C367.38 113.95 373.047 111.1 379.34 110.56C385.633 110.02 392.44 112.71 399.76 118.63C405.453 123.237 409.083 128.147 410.65 133.36C412.797 140.42 411.707 146.623 407.38 151.97C405.539 154.223 403.119 155.93 400.38 156.91C397.48 157.97 392.933 158.457 386.74 158.37C382.41 158.37 379.39 158.65 377.67 159.37C375.67 160.283 373.925 161.674 372.59 163.42ZM354 154.91L369.94 167.82L358.55 181.88L342.61 169L354 154.91Z" fill="white"/>
<path d="M376.75 76.8L370.31 68L371.19 67.35C372.395 66.4141 373.747 65.6843 375.19 65.19C376.381 64.8469 377.625 64.7282 378.86 64.84C381.351 65.1896 383.817 65.7041 386.24 66.38C388.18 66.88 389.57 66.82 390.42 66.2C390.8 65.9547 391.124 65.6319 391.37 65.2528C391.616 64.8737 391.78 64.4467 391.85 64C391.889 62.9729 391.531 61.9702 390.85 61.2C390.495 60.6866 390.038 60.2514 389.509 59.9211C388.979 59.5909 388.387 59.3727 387.77 59.28C386.52 59.1 384.92 59.56 382.97 60.68L377.5 50.89C380.639 48.859 384.418 48.0611 388.11 48.65C391.657 49.27 395.013 51.7367 398.18 56.05C400.64 59.4233 401.927 62.6533 402.04 65.74C402.2 67.6212 401.868 69.5115 401.077 71.2259C400.287 72.9403 399.064 74.42 397.53 75.52C396.201 76.4855 394.636 77.073 393 77.22C390.379 77.2717 387.768 76.876 385.28 76.05C383.627 75.4867 381.886 75.2226 380.14 75.27C378.901 75.4914 377.736 76.0171 376.75 76.8ZM367.75 69.42L374.65 78.84L366.34 84.92L359.44 75.51L367.75 69.42Z" fill="white"/>
<path d="M128.34 201.57C119.887 201.555 111.595 199.258 104.34 194.92C94.1901 188.92 87.0201 179.5 84.5801 169.13C77.5036 168.637 70.8518 165.573 65.8784 160.514C60.905 155.456 57.9535 148.754 57.5801 141.67C55.4498 140.192 53.5665 138.386 52.0001 136.32C48.1952 131.472 46.3153 125.389 46.7213 119.239C47.1274 113.089 49.7907 107.306 54.2001 103C52.5269 95.8895 52.7031 88.469 54.7119 81.4459C56.7208 74.4229 60.4953 68.0316 65.6755 62.8815C70.8557 57.7314 77.2688 53.9942 84.3034 52.0263C91.338 50.0584 98.7595 49.9254 105.86 51.64C107.409 48.1016 109.852 45.0273 112.95 42.7191C116.047 40.4109 119.691 38.9484 123.525 38.4753C127.358 38.0021 131.249 38.5347 134.814 40.0205C138.38 41.5064 141.497 43.8944 143.86 46.95C144.957 48.3683 145.88 49.9125 146.61 51.55C152.201 50.6312 157.934 51.1604 163.263 53.0871C168.591 55.0138 173.337 58.2737 177.048 62.5558C180.758 66.838 183.31 71.9995 184.458 77.5479C185.607 83.0963 185.315 88.8465 183.61 94.25C187.271 97.3685 189.961 101.471 191.363 106.071C192.764 110.672 192.818 115.577 191.517 120.207C190.217 124.837 187.616 128.997 184.024 132.195C180.432 135.393 175.999 137.494 171.25 138.25C169.108 146.356 164.348 153.527 157.71 158.65C153.532 161.893 148.731 164.24 143.605 165.545C138.479 166.849 133.14 167.082 127.92 166.23C127.82 175.94 130.07 189.11 140.92 198.53C141.025 198.624 141.103 198.743 141.147 198.876C141.191 199.01 141.199 199.152 141.17 199.29C141.14 199.428 141.073 199.555 140.976 199.657C140.879 199.759 140.756 199.833 140.62 199.87C136.627 201.012 132.493 201.584 128.34 201.57ZM95.7301 52C89.4894 52.019 83.3345 53.4548 77.7296 56.1991C72.1247 58.9434 67.2161 62.9246 63.374 67.8423C59.5318 72.7601 56.8565 78.486 55.5497 84.5883C54.2429 90.6907 54.3388 97.0101 55.8301 103.07C55.8644 103.206 55.8611 103.348 55.8206 103.482C55.7801 103.616 55.7038 103.736 55.6001 103.83C51.3299 107.837 48.7144 113.298 48.2683 119.137C47.8223 124.976 49.5781 130.771 53.1901 135.38C54.7785 137.421 56.6905 139.187 58.8501 140.61C58.9547 140.678 59.0419 140.769 59.1045 140.877C59.167 140.985 59.2032 141.106 59.2101 141.23C59.4811 148.089 62.3087 154.599 67.1368 159.479C71.9649 164.359 78.444 167.256 85.3001 167.6C85.4716 167.61 85.6352 167.676 85.7654 167.788C85.8956 167.9 85.9851 168.052 86.0201 168.22C88.2301 178.39 95.2201 187.63 105.18 193.57C115.272 199.656 127.361 201.504 138.81 198.71C128.08 188.71 126.08 175.05 126.34 165.25C126.344 165.136 126.373 165.025 126.423 164.923C126.474 164.822 126.545 164.732 126.633 164.66C126.721 164.588 126.824 164.536 126.933 164.506C127.043 164.477 127.158 164.471 127.27 164.49C136.489 166.233 146.025 164.394 153.934 159.347C161.843 154.3 167.528 146.425 169.83 137.33C169.865 137.177 169.947 137.039 170.063 136.933C170.179 136.828 170.325 136.76 170.48 136.74C175.029 136.111 179.295 134.169 182.756 131.15C186.216 128.132 188.721 124.169 189.962 119.748C191.203 115.327 191.127 110.64 189.743 106.262C188.359 101.883 185.727 98.0043 182.17 95.1C182.047 95.0004 181.957 94.8657 181.913 94.7139C181.868 94.5621 181.871 94.4003 181.92 94.25C183.66 89.0387 184.01 83.4639 182.937 78.0758C181.864 72.6877 179.404 67.6726 175.8 63.5257C172.197 59.3788 167.574 56.2434 162.388 54.4291C157.202 52.6147 151.633 52.1842 146.23 53.18C146.053 53.2142 145.87 53.1861 145.711 53.1004C145.552 53.0148 145.428 52.8768 145.36 52.71C143.794 48.9101 141.131 45.6629 137.712 43.3824C134.292 41.1019 130.271 39.8914 126.161 39.9054C122.051 39.9193 118.039 41.1571 114.635 43.4607C111.231 45.7644 108.591 49.0296 107.05 52.84C106.977 53.0144 106.845 53.1573 106.676 53.2434C106.508 53.3294 106.314 53.353 106.13 53.31C102.732 52.4379 99.238 51.9978 95.7301 52Z" fill="#E6E6E6"/>
<path d="M100.59 118L86.78 121.25L86.46 119.87C85.9372 117.943 85.7512 115.94 85.91 113.95C86.0996 112.351 86.5845 110.802 87.34 109.38C89.0309 106.572 90.9015 103.877 92.94 101.31C94.53 99.24 95.17 97.55 94.85 96.22C94.7518 95.6394 94.5306 95.0865 94.2012 94.5984C93.8717 94.1103 93.4417 93.6983 92.94 93.39C91.743 92.807 90.3668 92.7102 89.1 93.12C88.3033 93.2813 87.5483 93.6052 86.8824 94.0715C86.2166 94.5378 85.654 95.1364 85.23 95.83C84.37 97.24 84.12 99.39 84.47 102.3L70 103.84C69.1545 99.0565 70.1015 94.1292 72.66 90C75.2 86.06 79.8667 83.2933 86.66 81.7C91.94 80.4533 96.4634 80.55 100.23 81.99C105.337 83.93 108.477 87.3867 109.65 92.36C110.138 94.4672 110.034 96.6681 109.35 98.72C108.683 100.9 106.907 103.787 104.02 107.38C102.02 109.9 100.843 111.82 100.49 113.14C100.116 114.743 100.15 116.414 100.59 118ZM87.17 125L101.97 121.52L105 134.56L90.25 138L87.17 125Z" fill="#EBEBEB"/>
<path d="M135.75 88.7899L126.17 85.8699L126.46 84.8699C126.827 83.5095 127.422 82.2213 128.22 81.0599C128.904 80.1503 129.752 79.3769 130.72 78.7799C132.748 77.6805 134.846 76.7151 137 75.8899C138.7 75.2232 139.7 74.4132 140 73.4599C140.147 73.07 140.209 72.6533 140.181 72.2376C140.153 71.8219 140.037 71.417 139.84 71.0499C139.313 70.2712 138.508 69.7237 137.59 69.5199C137.046 69.3386 136.471 69.2707 135.9 69.3206C135.329 69.3705 134.774 69.537 134.27 69.8099C132.971 70.7007 132.002 71.9938 131.51 73.4899L122.09 69.2999C123.28 66.0808 125.616 63.4139 128.65 61.8099C131.597 60.2966 135.423 60.2599 140.13 61.6999C143.301 62.4978 146.154 64.2417 148.31 66.6999C149.469 67.9889 150.271 69.5586 150.635 71.2531C151 72.9477 150.916 74.7082 150.39 76.3599C149.938 77.8194 149.094 79.1269 147.95 80.1399C146.046 81.62 143.906 82.7693 141.62 83.5399C140.099 84.0434 138.678 84.8082 137.42 85.7999C136.624 86.6429 136.051 87.6703 135.75 88.7899ZM125.07 88.3199L135.33 91.4399L132.58 100.5L122.31 97.3799L125.07 88.3199Z" fill="#EBEBEB"/>
<path d="M250 405.56C357.083 405.56 443.89 400.492 443.89 394.24C443.89 387.988 357.083 382.92 250 382.92C142.918 382.92 56.1101 387.988 56.1101 394.24C56.1101 400.492 142.918 405.56 250 405.56Z" fill="#F5F5F5"/>
<path d="M157.61 225.44L156.69 225.05C157.413 223.462 157.902 221.778 158.14 220.05L159.14 220.16C158.89 221.985 158.374 223.764 157.61 225.44ZM157.22 214C156.29 211.922 154.843 210.117 153.017 208.757C151.191 207.396 149.047 206.527 146.79 206.23L146.95 205.23C149.371 205.552 151.67 206.488 153.627 207.95C155.584 209.412 157.134 211.35 158.13 213.58L157.22 214Z" fill="#E83330"/>
<path d="M152 235.5L142.14 240L141.7 239C141.026 237.641 140.589 236.176 140.41 234.67C140.315 233.443 140.447 232.209 140.8 231.03C141.654 228.682 142.656 226.391 143.8 224.17C144.68 222.39 144.903 221.027 144.47 220.08C144.309 219.661 144.061 219.281 143.742 218.966C143.423 218.65 143.041 218.406 142.62 218.25C141.638 218 140.598 218.132 139.71 218.62C139.139 218.863 138.624 219.219 138.196 219.668C137.768 220.117 137.436 220.648 137.22 221.23C136.787 222.397 136.92 224.043 137.62 226.17L127 229.49C125.672 226.03 125.672 222.2 127 218.74C128.333 215.407 131.407 212.65 136.22 210.47C139.98 208.75 143.38 208.16 146.41 208.67C148.267 208.894 150.033 209.597 151.535 210.711C153.038 211.824 154.225 213.309 154.98 215.02C155.655 216.524 155.904 218.184 155.7 219.82C155.217 222.375 154.304 224.83 153 227.08C152.123 228.571 151.52 230.207 151.22 231.91C151.178 233.153 151.446 234.387 152 235.5ZM143 242.74L153.54 238L157.77 247.29L147.23 252L143 242.74Z" fill="#E83330"/>
<path d="M127.64 257.73L122.64 264.53L122 264C121.025 263.324 120.17 262.489 119.47 261.53C118.939 260.731 118.562 259.838 118.36 258.9C118.037 256.979 117.846 255.037 117.79 253.09C117.71 251.54 117.34 250.53 116.69 250.09C116.417 249.858 116.096 249.689 115.751 249.594C115.405 249.499 115.043 249.481 114.69 249.54C113.925 249.74 113.266 250.227 112.85 250.9C112.552 251.281 112.336 251.719 112.213 252.187C112.091 252.654 112.066 253.142 112.14 253.62C112.487 254.899 113.242 256.029 114.29 256.84L108.29 263.15C106.068 261.297 104.605 258.692 104.18 255.83C103.813 253.07 104.86 250.02 107.32 246.68C108.846 244.391 111.028 242.617 113.58 241.59C114.93 241.032 116.402 240.837 117.851 241.023C119.299 241.209 120.675 241.77 121.84 242.65C122.875 243.417 123.677 244.456 124.16 245.65C124.802 247.584 125.113 249.612 125.08 251.65C125.046 253.01 125.256 254.365 125.7 255.65C126.163 256.495 126.83 257.21 127.64 257.73ZM124.27 266.09L129.63 258.81L136.05 263.54L130.69 270.82L124.27 266.09Z" fill="#E83330"/>
<path d="M234.09 390.64C233.265 390.641 232.455 390.415 231.749 389.986C231.044 389.557 230.47 388.943 230.09 388.21C226.09 380.45 221.02 371.34 211.94 361.48C211.417 360.914 211.05 360.222 210.875 359.472C210.699 358.722 210.722 357.939 210.94 357.2C214.31 345.49 219.61 329.48 219.66 329.32C219.829 328.742 220.114 328.203 220.496 327.737C220.877 327.27 221.349 326.886 221.883 326.606C222.417 326.326 223.002 326.156 223.602 326.107C224.203 326.058 224.808 326.13 225.38 326.319C225.952 326.509 226.48 326.811 226.933 327.209C227.386 327.607 227.754 328.092 228.015 328.635C228.277 329.179 228.426 329.769 228.454 330.371C228.482 330.973 228.389 331.575 228.18 332.14C228.13 332.29 223.56 346.08 220.25 357.29C227.307 365.429 233.295 374.435 238.07 384.09C238.421 384.776 238.59 385.54 238.561 386.309C238.532 387.079 238.306 387.828 237.905 388.485C237.503 389.143 236.94 389.686 236.269 390.063C235.597 390.44 234.84 390.639 234.07 390.64H234.09Z" fill="#E83330"/>
<path d="M241.56 394.24H206.77L225.21 383.78L240.66 384.38L241.56 394.24Z" fill="#263238"/>
<path d="M238.239 352.093C254.074 347.142 263.584 332.489 259.481 319.364C255.378 306.238 239.215 299.611 223.38 304.561C207.545 309.511 198.035 324.164 202.138 337.29C206.241 350.415 222.404 357.043 238.239 352.093Z" fill="#263238"/>
<path d="M151.65 312C150.615 311.996 149.613 311.634 148.813 310.976C148.014 310.317 147.467 309.403 147.265 308.388C147.062 307.372 147.217 306.318 147.703 305.404C148.189 304.489 148.975 303.771 149.93 303.37C150.707 303.045 151.39 302.529 151.914 301.87C152.439 301.211 152.788 300.43 152.93 299.6C153.02 298.624 153.427 297.703 154.09 296.981C154.753 296.258 155.635 295.773 156.6 295.6C157.714 295.373 158.815 295.089 159.9 294.75C165.98 292.98 173.51 290.75 197.21 297.41C220.59 284.34 220.86 259.82 220.86 258.76C220.86 257.572 221.33 256.432 222.167 255.589C223.005 254.746 224.142 254.268 225.33 254.26C226.514 254.26 227.65 254.728 228.491 255.561C229.332 256.394 229.81 257.526 229.82 258.71C229.82 260.02 229.68 290.8 199.82 306.21C198.802 306.738 197.62 306.852 196.52 306.53C173.92 300.01 167.52 301.87 162.45 303.36L161.07 303.76C160.403 305.527 159.381 307.139 158.067 308.496C156.753 309.853 155.175 310.926 153.43 311.65C152.867 311.886 152.261 312.005 151.65 312Z" fill="#E83330"/>
<path d="M204.08 279.89C195.57 246.07 172.9 158.83 245.55 153.5C310.73 148.71 328.61 235.5 332.96 265.5C335.138 280.68 336.32 295.986 336.5 311.32C336.583 319.077 333.955 326.619 329.069 332.644C324.183 338.669 317.347 342.799 309.74 344.32C274.23 351.54 240.63 352.56 217.99 343.63C215.016 342.43 212.511 340.3 210.847 337.559C209.184 334.818 208.451 331.612 208.76 328.42C209.63 318.74 209.65 302 204.08 279.89Z" fill="#E83330"/>
<path opacity="0.1" d="M333 265.52C328.9 237.2 312.78 158.52 256.34 153.52C253.12 153.193 249.876 153.827 247.017 155.342C244.157 156.856 241.809 159.183 240.27 162.03C237.75 166.91 237.83 172.82 241.6 178.67C254 198 283.67 264.67 279.19 301C277.19 317.53 266.78 330.73 275.8 349.31C287.202 348.312 298.535 346.642 309.74 344.31C317.346 342.789 324.183 338.659 329.069 332.634C333.955 326.609 336.583 319.067 336.5 311.31C336.332 295.987 335.163 280.691 333 265.52Z" fill="black"/>
<path d="M323.24 311.79C323.122 311.79 323.009 311.744 322.925 311.662C322.841 311.579 322.793 311.468 322.79 311.35C322.62 296.036 321.441 280.749 319.26 265.59C308.46 190.93 279.39 153.18 235.16 156.44C235.101 156.444 235.041 156.436 234.985 156.417C234.929 156.399 234.877 156.369 234.833 156.33C234.788 156.291 234.752 156.243 234.725 156.19C234.699 156.137 234.684 156.079 234.68 156.02C234.674 155.901 234.715 155.785 234.793 155.695C234.872 155.606 234.981 155.55 235.1 155.54C279.85 152.24 309.27 190.26 320.1 265.46C322.279 280.66 323.462 295.986 323.64 311.34C323.64 311.459 323.593 311.574 323.508 311.658C323.424 311.743 323.309 311.79 323.19 311.79H323.24Z" fill="#263238"/>
<path d="M322.561 354.475C338.396 349.524 347.906 334.871 343.803 321.746C339.7 308.62 323.537 301.993 307.702 306.943C291.867 311.893 282.357 326.547 286.46 339.672C290.563 352.798 306.726 359.425 322.561 354.475Z" fill="#263238"/>
<path d="M325.3 390.64C324.474 390.642 323.664 390.416 322.958 389.987C322.253 389.559 321.679 388.944 321.3 388.21C317.3 380.45 312.23 371.34 303.14 361.48C302.621 360.912 302.257 360.22 302.082 359.47C301.907 358.721 301.927 357.939 302.14 357.2C305.52 345.49 310.81 329.48 310.87 329.32C311.055 328.761 311.349 328.244 311.733 327.799C312.118 327.354 312.587 326.989 313.113 326.724C313.639 326.46 314.212 326.302 314.799 326.259C315.386 326.217 315.976 326.29 316.535 326.475C317.094 326.66 317.611 326.954 318.056 327.339C318.501 327.723 318.867 328.192 319.131 328.718C319.395 329.244 319.553 329.817 319.596 330.404C319.638 330.992 319.565 331.581 319.38 332.14C319.33 332.29 314.77 346.08 311.46 357.29C318.517 365.426 324.502 374.433 329.27 384.09C329.621 384.776 329.79 385.54 329.761 386.309C329.732 387.079 329.506 387.828 329.105 388.485C328.703 389.143 328.14 389.686 327.468 390.063C326.797 390.44 326.04 390.639 325.27 390.64H325.3Z" fill="#E83330"/>
<path d="M315.88 253.91C314.877 253.911 313.903 253.575 313.112 252.958C312.322 252.34 311.761 251.475 311.52 250.502C311.278 249.528 311.369 248.502 311.779 247.586C312.189 246.671 312.893 245.919 313.78 245.45C314.64 244.99 334.17 234.32 339.65 208.68C326.65 203.24 303.23 190.95 298.11 184.77C297.606 184.173 297.262 183.457 297.11 182.69C296.519 178.997 296.862 175.216 298.11 171.69L295.75 167.13C295.204 166.069 295.101 164.835 295.465 163.698C295.829 162.562 296.629 161.616 297.69 161.07C298.751 160.524 299.985 160.421 301.122 160.785C302.258 161.149 303.204 161.949 303.75 163.01L307.14 169.57C307.505 170.257 307.684 171.027 307.659 171.804C307.635 172.581 307.407 173.338 307 174C306.085 175.828 305.697 177.874 305.88 179.91C311.65 185.12 334.88 197.45 346.31 201.68C347.279 202.039 348.094 202.722 348.617 203.613C349.14 204.504 349.339 205.549 349.18 206.57C344.11 239.34 319.04 252.84 317.98 253.4C317.332 253.739 316.611 253.914 315.88 253.91Z" fill="#263238"/>
<path d="M301.57 184.15C301.167 184.148 300.771 184.038 300.425 183.83C300.079 183.623 299.794 183.327 299.602 182.972C299.41 182.617 299.317 182.217 299.332 181.814C299.348 181.411 299.471 181.019 299.69 180.68C299.85 180.44 303.55 174.85 309.19 173.34C309.474 173.264 309.771 173.244 310.063 173.283C310.355 173.321 310.636 173.417 310.891 173.564C311.146 173.711 311.369 173.907 311.548 174.141C311.727 174.374 311.859 174.641 311.935 174.925C312.011 175.209 312.031 175.506 311.992 175.798C311.954 176.089 311.858 176.371 311.711 176.626C311.564 176.881 311.368 177.104 311.134 177.283C310.901 177.462 310.634 177.594 310.35 177.67C306.42 178.73 303.47 183.09 303.45 183.13C303.247 183.443 302.968 183.701 302.64 183.879C302.311 184.057 301.944 184.15 301.57 184.15Z" fill="#263238"/>
<path d="M332.77 394.24H297.98L316.42 383.78L331.87 384.38L332.77 394.24Z" fill="#263238"/>
<path d="M259.917 260.253C273.077 259.088 282.894 248.542 281.845 236.698C280.796 224.853 269.279 216.196 256.12 217.361C242.96 218.526 233.143 229.073 234.192 240.917C235.24 252.761 246.758 261.419 259.917 260.253Z" fill="white"/>
<path d="M255.448 252.446C258.938 251.452 260.3 245.497 258.49 239.144C256.68 232.791 252.384 228.447 248.895 229.442C245.405 230.436 244.043 236.391 245.853 242.744C247.662 249.097 251.958 253.44 255.448 252.446Z" fill="#263238"/>
<path d="M230.8 242.86C245.9 240.92 275.8 232.39 280.73 228.95C276.85 217.59 258.73 207.87 242.61 213.35C228 218.28 230.8 242.86 230.8 242.86Z" fill="#263238"/>
<path d="M233.73 250.16C252.48 246.6 276.85 240.62 283.82 236.79C283.39 249.01 279.82 261.4 260.7 265.59C245.06 269 233.73 250.16 233.73 250.16Z" fill="#263238"/>
<path d="M218.285 261.906C225.065 257.421 225.959 246.828 220.282 238.247C214.604 229.666 204.505 226.346 197.725 230.832C190.945 235.318 190.052 245.911 195.729 254.492C201.407 263.073 211.505 266.392 218.285 261.906Z" fill="white"/>
<path d="M208.34 246.68C209.47 252.04 208.49 256.51 206.14 256.68C203.79 256.85 200.97 252.62 199.83 247.26C198.69 241.9 199.68 237.44 202.02 237.26C204.36 237.08 207.2 241.32 208.34 246.68Z" fill="#263238"/>
<path d="M189.75 244.63C199.88 245.82 220 244.49 223.34 242.63C220.87 233 208.89 222 198 223.4C188.18 224.66 189.75 244.63 189.75 244.63Z" fill="#263238"/>
<path d="M191.63 250.94C204.22 251.51 220.63 251.19 225.31 249.42C224.88 259.03 222.36 268.19 209.5 268.04C199 267.92 191.63 250.94 191.63 250.94Z" fill="#263238"/>
<path d="M264.09 207.3C252.647 207.362 241.456 203.945 232 197.5C231.052 196.783 230.428 195.718 230.264 194.54C230.101 193.362 230.413 192.168 231.13 191.22C231.847 190.272 232.912 189.647 234.09 189.484C235.268 189.321 236.462 189.633 237.41 190.35C247.993 197.252 260.833 199.799 273.25 197.46C273.828 197.35 274.423 197.356 274.999 197.476C275.576 197.596 276.123 197.828 276.609 198.16C277.096 198.491 277.512 198.915 277.835 199.408C278.158 199.9 278.38 200.451 278.49 201.03C278.6 201.608 278.594 202.203 278.474 202.779C278.354 203.356 278.122 203.903 277.79 204.389C277.459 204.876 277.035 205.292 276.542 205.615C276.05 205.938 275.498 206.16 274.92 206.27C271.35 206.949 267.724 207.294 264.09 207.3Z" fill="#263238"/>
<path d="M183.88 199.57C183.162 199.566 182.455 199.391 181.819 199.059C181.182 198.726 180.635 198.246 180.222 197.659C179.809 197.072 179.542 196.394 179.444 195.683C179.347 194.971 179.421 194.247 179.66 193.57C182.03 186.95 185.98 182.66 191.38 180.8C201.16 177.43 211.7 183.98 212.15 184.26C213.132 184.905 213.822 185.91 214.072 187.059C214.321 188.207 214.111 189.408 213.485 190.403C212.859 191.398 211.868 192.108 210.725 192.38C209.582 192.653 208.377 192.466 207.37 191.86C205.37 190.59 199 187.65 194.27 189.29C191.55 190.24 189.53 192.63 188.1 196.61C187.786 197.477 187.212 198.226 186.457 198.756C185.702 199.286 184.802 199.57 183.88 199.57Z" fill="#263238"/>
<path d="M219.23 275.25C219.104 275.25 218.979 275.229 218.86 275.19C218.521 275.094 218.233 274.868 218.06 274.56C217.888 274.253 217.845 273.889 217.94 273.55C218.337 272.468 218.945 271.476 219.728 270.63C220.51 269.783 221.452 269.1 222.5 268.62C227.64 265.97 235.5 266.52 245.81 270.25C245.977 270.31 246.13 270.403 246.261 270.523C246.391 270.642 246.497 270.787 246.571 270.948C246.646 271.109 246.687 271.283 246.694 271.46C246.701 271.637 246.672 271.814 246.61 271.98C246.551 272.146 246.459 272.299 246.34 272.43C246.221 272.56 246.078 272.666 245.918 272.741C245.758 272.815 245.584 272.857 245.408 272.864C245.231 272.87 245.055 272.842 244.89 272.78C233.06 268.5 226.89 269.42 223.89 270.96C222.392 271.595 221.201 272.79 220.57 274.29C220.484 274.576 220.306 274.825 220.064 274.998C219.821 275.172 219.528 275.26 219.23 275.25Z" fill="#263238"/>
<path d="M176.88 270.32C161.233 271.71 146.015 276.179 132.1 283.47C139.82 282.01 167.45 316.2 174.55 342.56C187.66 337.71 202.94 334.4 219.23 331.81C209.36 304.64 191.31 273.85 176.88 270.32Z" fill="#E83330"/>
<path opacity="0.6" d="M176.88 270.32C161.233 271.71 146.015 276.179 132.1 283.47C139.82 282.01 167.45 316.2 174.55 342.56C187.66 337.71 202.94 334.4 219.23 331.81C209.36 304.64 191.31 273.85 176.88 270.32Z" fill="white"/>
<path d="M176.88 270.32C159.8 268.39 132.07 282.69 132.07 282.69C127.16 285.82 128.49 291.69 131.17 294.18C133.74 290.49 162.4 280.89 173.17 279.6C167.82 274.64 172.8 271 176.88 270.32Z" fill="#E83330"/>
<path opacity="0.2" d="M176.88 270.32C159.8 268.39 132.07 282.69 132.07 282.69C127.16 285.82 128.49 291.69 131.17 294.18C133.74 290.49 162.4 280.89 173.17 279.6C167.82 274.64 172.8 271 176.88 270.32Z" fill="white"/>
<path d="M151.66 312C150.916 312.003 150.182 311.822 149.524 311.473C148.867 311.124 148.305 310.618 147.89 310C144.64 305 146.67 297.41 147.11 295.93C147.485 294.832 148.27 293.922 149.301 293.39C150.332 292.858 151.529 292.746 152.64 293.077C153.752 293.408 154.693 294.157 155.265 295.166C155.837 296.175 155.997 297.366 155.71 298.49C154.98 301 154.83 304.21 155.41 305.09C156.059 306.087 156.286 307.302 156.04 308.466C155.795 309.631 155.097 310.65 154.1 311.3C153.374 311.769 152.525 312.013 151.66 312Z" fill="#263238"/>
<path d="M136.33 115.94H121.19V109.11L136.33 91.1101H143.57V109.5H147.32V115.94H143.57V121.53H136.33V115.94ZM136.33 109.5V100.09L128.33 109.5H136.33Z" fill="#E83330"/>
<path d="M149.91 106.46C149.91 100.78 150.933 96.8036 152.98 94.5302C155.027 92.2569 158.143 91.1202 162.33 91.1202C164.028 91.0629 165.723 91.3171 167.33 91.8702C168.503 92.2925 169.579 92.9492 170.49 93.8002C171.256 94.535 171.907 95.3812 172.42 96.3102C172.922 97.2831 173.301 98.3142 173.55 99.3802C174.115 101.67 174.393 104.022 174.38 106.38C174.38 111.8 173.463 115.77 171.63 118.29C169.797 120.81 166.623 122.047 162.11 122C160.01 122.087 157.92 121.676 156.01 120.8C154.446 119.984 153.127 118.765 152.19 117.27C151.359 115.879 150.79 114.347 150.51 112.75C150.096 110.68 149.895 108.572 149.91 106.46ZM158.15 106.46C158.15 110.274 158.483 112.874 159.15 114.26C159.369 114.865 159.766 115.388 160.29 115.761C160.813 116.135 161.437 116.34 162.08 116.35C162.486 116.358 162.89 116.283 163.266 116.13C163.643 115.977 163.984 115.749 164.27 115.46C164.986 114.679 165.459 113.706 165.63 112.66C165.986 110.681 166.133 108.67 166.07 106.66C166.07 102.66 165.74 100.02 165.07 98.6602C164.827 98.0656 164.411 97.5574 163.876 97.201C163.342 96.8445 162.713 96.6562 162.07 96.6602C161.412 96.6425 160.766 96.8358 160.226 97.2119C159.686 97.588 159.281 98.1271 159.07 98.7502C158.463 100.13 158.157 102.707 158.15 106.48V106.46Z" fill="#E83330"/>
<path d="M177.77 106.46C177.77 100.78 178.793 96.8036 180.84 94.5302C182.887 92.2569 186.003 91.1202 190.19 91.1202C191.888 91.0629 193.583 91.3171 195.19 91.8702C196.363 92.2925 197.438 92.9492 198.35 93.8002C199.119 94.5323 199.77 95.379 200.28 96.3102C200.782 97.2831 201.161 98.3142 201.41 99.3802C201.978 101.67 202.26 104.021 202.25 106.38C202.25 111.8 201.33 115.77 199.49 118.29C197.65 120.81 194.487 122.047 190 122C187.9 122.087 185.81 121.676 183.9 120.8C182.336 119.986 181.02 118.767 180.09 117.27C179.251 115.881 178.678 114.349 178.4 112.75C177.976 110.681 177.765 108.573 177.77 106.46ZM186.01 106.46C186.01 110.274 186.343 112.874 187.01 114.26C187.229 114.865 187.626 115.388 188.15 115.761C188.673 116.135 189.297 116.34 189.94 116.35C190.346 116.358 190.75 116.283 191.126 116.13C191.503 115.977 191.844 115.749 192.13 115.46C192.846 114.678 193.322 113.706 193.5 112.66C193.85 110.68 193.998 108.67 193.94 106.66C193.94 102.66 193.607 99.9936 192.94 98.6602C192.694 98.0672 192.278 97.5604 191.744 97.2044C191.21 96.8483 190.582 96.6589 189.94 96.6602C189.283 96.6441 188.637 96.838 188.098 97.2139C187.558 97.5898 187.152 98.128 186.94 98.7502C186.313 100.13 186 102.707 186 106.48L186.01 106.46Z" fill="#E83330"/>
<path d="M220.89 91.6301H245.65V98.0001H230.15V102.76H244.53V108.86H230.15V114.75H246.1V121.52H220.89V91.6301Z" fill="#263238"/>
<path d="M251.2 121.53V91.6302H266.6C268.808 91.5521 271.015 91.8015 273.15 92.3702C274.639 92.8386 275.925 93.7973 276.8 95.0902C277.462 96.0398 277.921 97.1155 278.148 98.2503C278.376 99.385 278.368 100.555 278.124 101.686C277.88 102.817 277.406 103.886 276.731 104.826C276.056 105.767 275.194 106.558 274.2 107.15C273.187 107.711 272.095 108.112 270.96 108.34C271.811 108.584 272.62 108.955 273.36 109.44C273.914 109.902 274.411 110.429 274.84 111.01C275.334 111.585 275.77 112.208 276.14 112.87L280.61 121.53H270.17L265.23 112.39C264.84 111.515 264.272 110.731 263.56 110.09C262.896 109.631 262.107 109.39 261.3 109.4H260.48V121.53H251.2ZM260.48 103.75H264.38C265.204 103.685 266.02 103.548 266.82 103.34C267.419 103.224 267.954 102.889 268.32 102.4C268.769 101.81 268.983 101.075 268.922 100.337C268.861 99.5983 268.529 98.9084 267.99 98.4002C266.952 97.7805 265.743 97.5105 264.54 97.6302H260.48V103.75Z" fill="#263238"/>
<path d="M283.69 121.53V91.6302H299.09C301.298 91.5513 303.505 91.8007 305.64 92.3702C307.129 92.8386 308.415 93.7973 309.29 95.0902C309.949 96.0402 310.406 97.1153 310.633 98.2491C310.86 99.3829 310.852 100.551 310.609 101.682C310.366 102.812 309.894 103.881 309.222 104.821C308.549 105.762 307.691 106.555 306.7 107.15C305.685 107.712 304.588 108.114 303.45 108.34C305.045 108.684 306.439 109.644 307.33 111.01C307.824 111.585 308.26 112.208 308.63 112.87L313.1 121.53H302.66L297.72 112.39C297.33 111.515 296.762 110.731 296.05 110.09C295.386 109.631 294.597 109.39 293.79 109.4H293V121.53H283.69ZM293 103.75H296.9C297.724 103.685 298.54 103.548 299.34 103.34C299.941 103.228 300.477 102.892 300.84 102.4C301.289 101.81 301.503 101.075 301.442 100.337C301.381 99.5983 301.049 98.9084 300.51 98.4002C299.473 97.7778 298.263 97.5077 297.06 97.6302H293V103.75Z" fill="#263238"/>
<path d="M314.18 106.6C314.18 101.72 315.54 97.9201 318.26 95.2001C320.98 92.4801 324.767 91.1201 329.62 91.1201C334.6 91.1201 338.437 92.4535 341.13 95.1201C343.823 97.7868 345.157 101.53 345.13 106.35C345.266 109.331 344.672 112.301 343.4 115C342.257 117.211 340.481 119.032 338.3 120.23C335.729 121.518 332.872 122.127 330 122C327.124 122.098 324.264 121.548 321.63 120.39C319.366 119.268 317.491 117.491 316.25 115.29C314.795 112.631 314.08 109.63 314.18 106.6ZM323.42 106.6C323.42 109.62 323.983 111.79 325.11 113.11C325.703 113.73 326.415 114.224 327.204 114.561C327.993 114.898 328.842 115.072 329.7 115.072C330.558 115.072 331.407 114.898 332.196 114.561C332.985 114.224 333.697 113.73 334.29 113.11C335.377 111.817 335.923 109.483 335.93 106.11C335.93 103.303 335.36 101.247 334.22 99.9401C333.642 99.2936 332.928 98.784 332.129 98.4484C331.33 98.1129 330.466 97.9597 329.6 98.0001C328.75 97.9709 327.905 98.1358 327.129 98.4824C326.352 98.8289 325.665 99.348 325.12 100C324 101.41 323.42 103.6 323.42 106.64V106.6Z" fill="#263238"/>
<path d="M350.27 121.53V91.6302H365.66C367.868 91.5513 370.075 91.8007 372.21 92.3702C373.7 92.8357 374.988 93.7951 375.86 95.0902C376.819 96.5178 377.306 98.211 377.25 99.9302C377.291 101.433 376.924 102.919 376.19 104.23C375.48 105.435 374.475 106.44 373.27 107.15C372.257 107.711 371.165 108.112 370.03 108.34C370.881 108.584 371.69 108.955 372.43 109.44C372.982 109.905 373.479 110.432 373.91 111.01C374.402 111.585 374.834 112.208 375.2 112.87L379.68 121.53H369.24L364.3 112.39C363.906 111.517 363.338 110.735 362.63 110.09C361.963 109.631 361.17 109.39 360.36 109.4H359.55V121.53H350.27ZM359.55 103.75H363.44C364.267 103.685 365.087 103.548 365.89 103.34C366.489 103.224 367.024 102.889 367.39 102.4C367.775 101.907 367.98 101.296 367.97 100.67C367.995 100.253 367.925 99.836 367.765 99.4498C367.606 99.0636 367.361 98.7185 367.05 98.4402C366.013 97.8178 364.803 97.5477 363.6 97.6702H359.55V103.75Z" fill="#263238"/>
<path d="M162.29 75.0001V52.7401H170.65C172.045 52.6872 173.437 52.9185 174.74 53.4201C175.744 53.8444 176.59 54.5716 177.16 55.5001C177.725 56.3774 178.03 57.3967 178.04 58.4401C178.042 59.3927 177.771 60.326 177.26 61.1301C176.682 62.0019 175.871 62.6946 174.92 63.1301C176.147 63.4409 177.238 64.1431 178.03 65.1301C178.756 66.1013 179.136 67.2876 179.11 68.5001C179.119 69.5082 178.893 70.5046 178.45 71.4101C178.079 72.2229 177.521 72.9359 176.82 73.4901C176.088 74.0152 175.258 74.3892 174.38 74.5901C173.203 74.8596 171.997 74.9838 170.79 74.9601L162.29 75.0001ZM165.29 62.0801H170.11C171.054 62.121 171.999 62.0335 172.92 61.8201C173.59 61.6506 174.184 61.2637 174.61 60.7201C175.005 60.1486 175.205 59.4645 175.18 58.7701C175.208 58.0654 175.023 57.3686 174.65 56.7701C174.305 56.2084 173.763 55.795 173.13 55.6101C172.019 55.3542 170.879 55.2499 169.74 55.3001H165.29V62.0801ZM165.29 72.3701H170.84C171.508 72.3882 172.177 72.3548 172.84 72.2701C173.44 72.1766 174.017 71.9696 174.54 71.6601C175.019 71.3528 175.408 70.9252 175.67 70.4201C175.971 69.8399 176.122 69.1936 176.11 68.5401C176.13 67.7706 175.906 67.0146 175.47 66.3801C175.047 65.7582 174.422 65.3023 173.7 65.0901C172.639 64.7988 171.54 64.6707 170.44 64.7101H165.29V72.3701Z" fill="#263238"/>
<path d="M193.36 73C192.492 73.7685 191.501 74.387 190.43 74.83C189.47 75.1847 188.454 75.3642 187.43 75.36C185.954 75.4599 184.496 74.9952 183.35 74.06C182.883 73.6449 182.513 73.1325 182.266 72.5588C182.019 71.9852 181.901 71.3643 181.92 70.74C181.912 70.0066 182.084 69.2824 182.421 68.6305C182.757 67.9787 183.248 67.4189 183.85 67C184.46 66.5881 185.137 66.2837 185.85 66.1C186.65 65.9122 187.462 65.7752 188.28 65.69C189.934 65.5391 191.568 65.2242 193.16 64.75C193.16 64.37 193.16 64.14 193.16 64.03C193.206 63.6061 193.161 63.1772 193.028 62.772C192.896 62.3668 192.678 61.9945 192.39 61.68C191.499 60.9984 190.389 60.6675 189.27 60.75C188.273 60.6788 187.278 60.9162 186.42 61.43C185.682 62.049 185.18 62.9039 185 63.85L182.33 63.49C182.509 62.4828 182.92 61.531 183.53 60.71C184.183 59.9469 185.04 59.3851 186 59.09C187.181 58.6903 188.423 58.4975 189.67 58.52C190.799 58.4871 191.926 58.6495 193 59C193.729 59.239 194.383 59.6628 194.9 60.23C195.328 60.7731 195.62 61.4109 195.75 62.09C195.866 62.9248 195.912 63.7676 195.89 64.61V68.26C195.845 69.8687 195.902 71.4786 196.06 73.08C196.18 73.7608 196.413 74.4166 196.75 75.02H193.9C193.599 74.3849 193.416 73.7005 193.36 73ZM193.13 66.89C191.683 67.3935 190.183 67.729 188.66 67.89C187.845 67.9771 187.043 68.1584 186.27 68.43C185.833 68.6178 185.458 68.9266 185.19 69.32C184.879 69.8096 184.754 70.3942 184.836 70.9683C184.919 71.5423 185.204 72.0678 185.64 72.45C186.335 72.9786 187.198 73.2378 188.07 73.18C189.051 73.1943 190.02 72.9531 190.88 72.4801C191.666 72.0545 192.299 71.3936 192.69 70.59C193.027 69.7175 193.176 68.7841 193.13 67.85V66.89Z" fill="#263238"/>
<path d="M210.61 75V73C210.143 73.7701 209.476 74.3997 208.68 74.8221C207.885 75.2446 206.99 75.4443 206.09 75.4C204.83 75.4043 203.597 75.0317 202.55 74.33C201.443 73.5918 200.571 72.5503 200.04 71.33C199.421 69.9544 199.117 68.4581 199.15 66.95C199.131 65.4488 199.403 63.958 199.95 62.56C200.426 61.3334 201.272 60.2851 202.37 59.56C203.445 58.8794 204.698 58.5315 205.97 58.56C206.874 58.5412 207.769 58.751 208.57 59.17C209.304 59.5591 209.94 60.1096 210.43 60.78V52.78H213.15V75H210.61ZM202 67C201.876 68.6497 202.34 70.29 203.31 71.63C203.672 72.1042 204.138 72.4895 204.672 72.7563C205.206 73.0232 205.793 73.1647 206.39 73.17C206.977 73.1722 207.556 73.0409 208.084 72.7863C208.613 72.5316 209.076 72.1602 209.44 71.7C210.373 70.405 210.816 68.821 210.69 67.23C210.83 65.5098 210.382 63.793 209.42 62.36C209.051 61.8758 208.574 61.4837 208.027 61.2148C207.481 60.9459 206.879 60.8073 206.27 60.81C205.69 60.8142 205.118 60.9505 204.598 61.2087C204.078 61.4668 203.624 61.8401 203.27 62.3C202.328 63.6783 201.88 65.3349 202 67Z" fill="#263238"/>
<path d="M226.49 75V52.74H236.37C237.903 52.6737 239.437 52.8768 240.9 53.34C241.94 53.7495 242.814 54.496 243.38 55.46C244 56.4703 244.322 57.6349 244.31 58.82C244.329 59.5552 244.202 60.2869 243.938 60.9732C243.674 61.6595 243.277 62.2871 242.77 62.82C241.464 64.0351 239.78 64.7627 238 64.88C238.652 65.1684 239.261 65.5452 239.81 66C240.751 66.8915 241.575 67.8997 242.26 69L246.13 75H242.42L239.47 70.37C238.61 69.03 237.9 68.01 237.35 67.3C236.932 66.7268 236.426 66.2238 235.85 65.81C235.436 65.5367 234.98 65.334 234.5 65.21C233.958 65.1268 233.409 65.0933 232.86 65.11H229.44V75H226.49ZM229.44 62.55H235.78C236.849 62.5927 237.917 62.454 238.94 62.14C239.651 61.8962 240.263 61.4253 240.68 60.8C241.067 60.2049 241.272 59.5099 241.27 58.8C241.283 58.3086 241.186 57.8204 240.987 57.3707C240.788 56.9211 240.492 56.5212 240.12 56.2C239.073 55.441 237.788 55.0859 236.5 55.2H229.44V62.55Z" fill="#263238"/>
<path d="M259.63 69.8301L262.46 70.1701C262.098 71.6889 261.231 73.0395 260 74.0001C258.444 75.0171 256.595 75.4893 254.742 75.3427C252.889 75.1961 251.137 74.4391 249.76 73.1901C248.297 71.4988 247.554 69.3022 247.69 67.0701C247.546 64.771 248.299 62.5056 249.79 60.7501C250.482 60.0068 251.327 59.4211 252.265 59.0329C253.204 58.6447 254.215 58.4629 255.23 58.5001C256.218 58.4672 257.201 58.6465 258.114 59.026C259.026 59.4055 259.847 59.9764 260.52 60.7001C261.973 62.4274 262.707 64.647 262.57 66.9001C262.57 67.0601 262.57 67.3101 262.57 67.6301H250.57C250.544 69.1203 251.051 70.5709 252 71.7201C252.43 72.1815 252.952 72.5466 253.533 72.7914C254.114 73.0361 254.74 73.155 255.37 73.1401C256.291 73.1685 257.194 72.8906 257.94 72.3501C258.737 71.6924 259.324 70.8166 259.63 69.8301ZM250.63 65.4001H259.63C259.608 64.3065 259.26 63.2444 258.63 62.3501C258.227 61.8416 257.71 61.434 257.122 61.1598C256.533 60.8855 255.889 60.7521 255.24 60.7701C254.656 60.7512 254.074 60.8504 253.53 61.0617C252.985 61.2731 252.488 61.5923 252.07 62.0001C251.181 62.9113 250.673 64.1273 250.65 65.4001H250.63Z" fill="#263238"/>
<path d="M276.18 81.2101V73.3101C275.712 73.9396 275.102 74.45 274.4 74.8001C273.645 75.1886 272.809 75.3909 271.96 75.3901C271.017 75.3919 270.085 75.1869 269.23 74.7895C268.374 74.3922 267.617 73.8121 267.01 73.0901C265.542 71.3342 264.798 69.085 264.93 66.8001C264.908 65.3036 265.198 63.8189 265.78 62.4401C266.274 61.2338 267.13 60.2103 268.23 59.5101C269.281 58.85 270.499 58.5031 271.74 58.5101C272.675 58.4828 273.601 58.6977 274.428 59.134C275.255 59.5703 275.955 60.2132 276.46 61.0001V58.8801H278.92V81.2101H276.18ZM267.75 66.9101C267.626 68.5707 268.086 70.2223 269.05 71.5801C269.421 72.0615 269.896 72.4522 270.44 72.7225C270.984 72.9928 271.582 73.1356 272.19 73.1401C272.769 73.1357 273.34 73.0003 273.86 72.744C274.379 72.4877 274.834 72.1171 275.19 71.6601C276.136 70.3555 276.586 68.7566 276.46 67.1501C276.581 65.4292 276.112 63.7183 275.13 62.3001C274.768 61.8072 274.297 61.4039 273.754 61.1213C273.212 60.8387 272.612 60.6844 272 60.6701C271.416 60.6732 270.841 60.8122 270.321 61.076C269.8 61.3399 269.348 61.7213 269 62.1901C268.058 63.5754 267.617 65.2404 267.75 66.9101Z" fill="#263238"/>
<path d="M293.78 75.0001V72.6501C293.236 73.5103 292.478 74.2148 291.581 74.695C290.684 75.1752 289.677 75.4147 288.66 75.3901C287.741 75.3982 286.831 75.2107 285.99 74.8401C285.269 74.5539 284.638 74.0811 284.16 73.4701C283.733 72.8738 283.443 72.1911 283.31 71.4701C283.175 70.6238 283.118 69.7669 283.14 68.9101V58.9101H285.88V67.9101C285.849 68.8766 285.906 69.8439 286.05 70.8001C286.192 71.4816 286.58 72.0868 287.14 72.5001C287.746 72.9222 288.472 73.1362 289.21 73.1101C290.023 73.1121 290.821 72.8944 291.52 72.4801C292.21 72.0963 292.749 71.49 293.05 70.7601C293.396 69.7476 293.549 68.679 293.5 67.6101V58.8801H296.23V75.0001H293.78Z" fill="#263238"/>
<path d="M311.57 69.8301L314.4 70.1701C314.029 71.6901 313.155 73.0399 311.92 74.0001C310.364 75.0171 308.515 75.4893 306.662 75.3427C304.809 75.1961 303.057 74.439 301.68 73.1901C300.217 71.4988 299.474 69.3021 299.61 67.0701C299.467 64.7729 300.216 62.5092 301.7 60.7501C302.395 60.0075 303.241 59.4225 304.181 59.0344C305.121 58.6463 306.134 58.4641 307.15 58.5001C308.138 58.4671 309.121 58.6465 310.034 59.026C310.946 59.4055 311.767 59.9764 312.44 60.7001C313.893 62.4273 314.627 64.647 314.49 66.9001C314.49 67.0601 314.49 67.3101 314.49 67.6301H302.49C302.486 69.1244 303.023 70.5697 304 71.7001C304.429 72.1625 304.951 72.5283 305.532 72.7731C306.113 73.018 306.74 73.1362 307.37 73.1201C308.291 73.1485 309.194 72.8706 309.94 72.3301C310.711 71.6697 311.277 70.8021 311.57 69.8301ZM302.57 65.4001H311.57C311.548 64.3065 311.2 63.2444 310.57 62.3501C310.165 61.8427 309.649 61.436 309.061 61.1619C308.472 60.8878 307.829 60.7536 307.18 60.7701C306.594 60.7498 306.011 60.8483 305.464 61.0597C304.918 61.2711 304.42 61.591 304 62.0001C303.115 62.9129 302.611 64.1287 302.59 65.4001H302.57Z" fill="#263238"/>
<path d="M316.74 70.2101L319.44 69.7801C319.532 70.7413 319.986 71.6316 320.71 72.2701C321.547 72.8939 322.578 73.2021 323.62 73.1401C324.614 73.2167 325.605 72.9445 326.42 72.3701C326.7 72.16 326.927 71.8883 327.085 71.5762C327.243 71.2641 327.327 70.9198 327.33 70.5701C327.335 70.2782 327.264 69.9901 327.124 69.734C326.983 69.478 326.779 69.263 326.53 69.1101C325.637 68.6896 324.697 68.3774 323.73 68.1801C322.304 67.8678 320.908 67.4294 319.56 66.8701C318.847 66.552 318.243 66.0321 317.821 65.3747C317.4 64.7172 317.181 63.9508 317.19 63.1701C317.186 62.472 317.358 61.7841 317.69 61.1701C318.005 60.5671 318.453 60.0438 319 59.6401C319.532 59.2803 320.12 59.0101 320.74 58.8401C321.511 58.6234 322.309 58.5157 323.11 58.5201C324.243 58.498 325.372 58.681 326.44 59.0601C327.278 59.3376 328.015 59.8559 328.56 60.5501C329.085 61.2933 329.428 62.1498 329.56 63.0501L326.88 63.4101C326.846 63.0228 326.734 62.6463 326.552 62.3028C326.37 61.9593 326.121 61.6558 325.82 61.4101C325.099 60.9068 324.228 60.6635 323.35 60.7201C322.41 60.6371 321.469 60.8541 320.66 61.3401C320.42 61.5023 320.222 61.7193 320.083 61.9733C319.944 62.2272 319.868 62.5107 319.86 62.8001C319.85 63.1617 319.967 63.5155 320.19 63.8001C320.47 64.1314 320.832 64.3832 321.24 64.5301C321.51 64.6301 322.32 64.8601 323.66 65.2201C325.035 65.5604 326.387 65.9846 327.71 66.4901C328.434 66.791 329.058 67.2901 329.51 67.9301C329.964 68.6239 330.191 69.4416 330.16 70.2701C330.159 71.1895 329.884 72.0876 329.37 72.8501C328.783 73.697 327.958 74.3511 327 74.7301C325.925 75.1845 324.767 75.4093 323.6 75.3901C321.898 75.5044 320.208 75.043 318.8 74.0801C317.65 73.0961 316.914 71.7138 316.74 70.2101Z" fill="#263238"/>
<path d="M339.37 72.58L339.77 74.99C339.091 75.1471 338.397 75.2309 337.7 75.24C336.901 75.2849 336.105 75.1194 335.39 74.76C334.879 74.4882 334.471 74.0561 334.23 73.53C333.945 72.4785 333.833 71.3874 333.9 70.3V61H331.9V58.88H333.9V54.88L336.62 53.24V58.88H339.37V61H336.62V70.44C336.591 70.9442 336.638 71.4499 336.76 71.94C336.86 72.1626 337.023 72.3506 337.23 72.48C337.521 72.6244 337.845 72.6899 338.17 72.67C338.572 72.6668 338.972 72.6367 339.37 72.58Z" fill="#263238"/>
</svg>
