<svg width="22" height="20" viewBox="0 0 22 20" fill="none" xmlns="http://www.w3.org/2000/svg">
<path d="M12.44 0.174255V5.00426C12.44 5.22926 12.2525 5.40926 12.035 5.40926H6.965C6.7475 5.40926 6.56 5.22926 6.56 5.00426V0.174255H12.44Z" fill="#E83330"/>
<path d="M16.25 0.174255H13.79V5.00426C13.7896 5.46959 13.6046 5.91575 13.2755 6.24479C12.9465 6.57383 12.5003 6.75886 12.035 6.75926H6.965C6.49967 6.75886 6.05351 6.57383 5.72447 6.24479C5.39543 5.91575 5.2104 5.46959 5.21 5.00426V0.174255H2.75C1.505 0.174255 0.5 1.17926 0.5 2.42426V15.9243C0.5 17.1693 1.505 18.1743 2.75 18.1743H12.9882C12.6706 17.495 12.5055 16.7544 12.5045 16.0045C12.5061 14.6331 13.0516 13.3183 14.0213 12.3486C14.9911 11.3788 16.3058 10.8333 17.6772 10.8318C17.9578 10.8318 18.2315 10.8603 18.5 10.9038V2.42426C18.5 1.17926 17.495 0.174255 16.25 0.174255ZM6.503 15.6318H3.7145C3.53548 15.6318 3.36379 15.5606 3.2372 15.4341C3.11062 15.3075 3.0395 15.1358 3.0395 14.9568C3.0395 14.7777 3.11062 14.606 3.2372 14.4795C3.36379 14.3529 3.53548 14.2818 3.7145 14.2818H6.50375C6.59239 14.2818 6.68016 14.2993 6.76203 14.3333C6.84391 14.3672 6.91829 14.417 6.98094 14.4797C7.04358 14.5424 7.09326 14.6169 7.12714 14.6988C7.16101 14.7807 7.17842 14.8685 7.17838 14.9571C7.17833 15.0458 7.16082 15.1335 7.12685 15.2154C7.09288 15.2973 7.04312 15.3717 6.98041 15.4343C6.91769 15.497 6.84325 15.5466 6.76134 15.5805C6.67943 15.6144 6.59164 15.6318 6.503 15.6318Z" fill="#E83330"/>
<path d="M17.675 12.1825C15.5675 12.1825 13.8575 13.8925 13.8575 16C13.8566 16.7563 14.0801 17.4959 14.4997 18.1251C14.9194 18.7543 15.5162 19.2449 16.2148 19.5347C16.9134 19.8245 17.6822 19.9006 18.424 19.7533C19.1658 19.6059 19.8473 19.2418 20.382 18.7071C20.9168 18.1723 21.2809 17.4908 21.4283 16.749C21.5756 16.0072 21.4995 15.2384 21.2097 14.5398C20.9199 13.8412 20.4293 13.2444 19.8001 12.8247C19.1709 12.4051 18.4313 12.1816 17.675 12.1825ZM18.9852 16.6802H18.3515V17.314C18.3515 17.493 18.2804 17.6647 18.1538 17.7913C18.0272 17.9179 17.8555 17.989 17.6765 17.989C17.4975 17.989 17.3258 17.9179 17.1992 17.7913C17.0726 17.6647 17.0015 17.493 17.0015 17.314V16.6802H16.3685C16.1895 16.6802 16.0178 16.6091 15.8912 16.4825C15.7646 16.356 15.6935 16.1843 15.6935 16.0052C15.6935 15.8262 15.7646 15.6545 15.8912 15.528C16.0178 15.4014 16.1895 15.3302 16.3685 15.3302H17.0015V14.6965C17.0015 14.5175 17.0726 14.3458 17.1992 14.2192C17.3258 14.0926 17.4975 14.0215 17.6765 14.0215C17.8555 14.0215 18.0272 14.0926 18.1538 14.2192C18.2804 14.3458 18.3515 14.5175 18.3515 14.6965V15.3302H18.9852C19.1643 15.3302 19.3359 15.4014 19.4625 15.528C19.5891 15.6545 19.6602 15.8262 19.6602 16.0052C19.6602 16.1843 19.5891 16.356 19.4625 16.4825C19.3359 16.6091 19.1643 16.6802 18.9852 16.6802Z" fill="#E83330"/>
</svg>
