<svg width="22" height="22" viewBox="0 0 22 22" fill="none" xmlns="http://www.w3.org/2000/svg">
<path fill-rule="evenodd" clip-rule="evenodd" d="M14.0671 10.4207V0.453186L12.7057 1.56158L11.3443 0.453186L9.9829 1.56158L8.62149 0.453186L7.26009 1.56158L5.89868 0.453186L4.53727 1.56158L3.176 0.453186L1.81459 1.56158L0.453186 0.453186V21.547L1.81459 20.4384L3.176 21.547L4.53727 20.4384L5.89868 21.547L7.26009 20.4384L8.62149 21.547L9.9829 20.4384L10.1635 20.5856V13.2325H9.67009V10.4207H14.0671ZM2.25737 12.1273H4.17021V14.0401H2.25737V12.1273ZM2.25737 16.2946H4.17021V18.2074H2.25737V16.2946ZM5.5175 4.05989C5.5175 3.93034 5.62255 3.82542 5.75196 3.82542H12.2628C12.325 3.82542 12.3846 3.85012 12.4285 3.89408C12.4725 3.93804 12.4972 3.99766 12.4972 4.05982C12.4972 4.12199 12.4725 4.18161 12.4285 4.22557C12.3846 4.26953 12.325 4.29422 12.2628 4.29422H5.75196C5.72118 4.29424 5.69069 4.28819 5.66225 4.27642C5.6338 4.26466 5.60795 4.2474 5.58618 4.22564C5.5644 4.20388 5.54713 4.17804 5.53535 4.1496C5.52356 4.12116 5.5175 4.09068 5.5175 4.05989ZM5.5175 5.43832C5.5175 5.30891 5.62255 5.20386 5.75196 5.20386H12.2628C12.325 5.20386 12.3846 5.22855 12.4285 5.27251C12.4725 5.31647 12.4972 5.37609 12.4972 5.43825C12.4972 5.50042 12.4725 5.56004 12.4285 5.604C12.3846 5.64796 12.325 5.67265 12.2628 5.67265H5.75196C5.72118 5.67267 5.69069 5.66662 5.66225 5.65486C5.6338 5.64309 5.60795 5.62583 5.58618 5.60407C5.5644 5.58231 5.54713 5.55647 5.53535 5.52803C5.52356 5.49959 5.5175 5.46911 5.5175 5.43832ZM5.5175 8.22716C5.5175 8.09775 5.62255 7.99269 5.75196 7.99269H12.2628C12.325 7.99269 12.3846 8.01739 12.4285 8.06135C12.4725 8.10531 12.4972 8.16493 12.4972 8.22709C12.4972 8.28926 12.4725 8.34888 12.4285 8.39284C12.3846 8.4368 12.325 8.46149 12.2628 8.46149H5.75196C5.72118 8.46151 5.69069 8.45546 5.66225 8.44369C5.6338 8.43193 5.60795 8.41467 5.58618 8.39291C5.5644 8.37115 5.54713 8.34531 5.53535 8.31687C5.52356 8.28843 5.5175 8.25795 5.5175 8.22716ZM5.5175 9.60559C5.5175 9.47618 5.62255 9.37126 5.75196 9.37126H12.2628C12.325 9.37126 12.3846 9.39595 12.4285 9.4399C12.4724 9.48384 12.4971 9.54345 12.4971 9.60559C12.4971 9.66774 12.4724 9.72734 12.4285 9.77129C12.3846 9.81523 12.325 9.83992 12.2628 9.83992H5.75196C5.72118 9.83994 5.69069 9.83389 5.66225 9.82213C5.6338 9.81036 5.60795 9.7931 5.58618 9.77134C5.5644 9.74958 5.54713 9.72374 5.53535 9.6953C5.52356 9.66686 5.5175 9.63638 5.5175 9.60559ZM5.5175 12.3944C5.5175 12.265 5.62255 12.1601 5.75196 12.1601H8.71838C8.78053 12.1601 8.84013 12.1848 8.88408 12.2287C8.92802 12.2727 8.95271 12.3323 8.95271 12.3944C8.95271 12.4566 8.92802 12.5162 8.88408 12.5601C8.84013 12.6041 8.78053 12.6288 8.71838 12.6288H5.75196C5.72118 12.6288 5.69069 12.6227 5.66225 12.611C5.6338 12.5992 5.60795 12.5819 5.58618 12.5602C5.5644 12.5384 5.54713 12.5126 5.53535 12.4841C5.52356 12.4557 5.5175 12.4252 5.5175 12.3944ZM5.5175 13.773C5.5175 13.6434 5.62255 13.5385 5.75196 13.5385H8.71838C8.78053 13.5385 8.84013 13.5632 8.88408 13.6072C8.92802 13.6511 8.95271 13.7107 8.95271 13.7729C8.95271 13.835 8.92802 13.8946 8.88408 13.9386C8.84013 13.9825 8.78053 14.0072 8.71838 14.0072H5.75196C5.72118 14.0072 5.69069 14.0012 5.66225 13.9894C5.6338 13.9776 5.60795 13.9604 5.58618 13.9386C5.5644 13.9168 5.54713 13.891 5.53535 13.8626C5.52356 13.8341 5.5175 13.8038 5.5175 13.773ZM2.25737 7.95989H4.17021V9.87273H2.25737V7.95989ZM2.25737 3.79248H4.17021V5.70532H2.25737V3.79248ZM5.5175 16.5616C5.5175 16.4321 5.62255 16.3272 5.75196 16.3272H8.71838C8.78053 16.3272 8.84013 16.3519 8.88408 16.3959C8.92802 16.4398 8.95271 16.4994 8.95271 16.5616C8.95271 16.6237 8.92802 16.6833 8.88408 16.7273C8.84013 16.7712 8.78053 16.7959 8.71838 16.7959H5.75196C5.72118 16.7959 5.69069 16.7899 5.66225 16.7781C5.6338 16.7663 5.60795 16.7491 5.58618 16.7273C5.5644 16.7055 5.54713 16.6797 5.53535 16.6513C5.52356 16.6228 5.5175 16.5923 5.5175 16.5616ZM5.5175 17.9401C5.5175 17.8106 5.62255 17.7057 5.75196 17.7057H8.71838C8.78055 17.7057 8.84017 17.7304 8.88413 17.7743C8.92808 17.8183 8.95278 17.8779 8.95278 17.9401C8.95278 18.0022 8.92808 18.0618 8.88413 18.1058C8.84017 18.1498 8.78055 18.1745 8.71838 18.1745H5.75196C5.72117 18.1745 5.69067 18.1684 5.66221 18.1567C5.63376 18.1449 5.6079 18.1276 5.58613 18.1058C5.56435 18.0841 5.54708 18.0582 5.53531 18.0297C5.52353 18.0013 5.51748 17.9709 5.5175 17.9401ZM16.7982 12.7637V10.8895H14.8875V14.2482L15.8429 13.4587L16.7982 14.2482V12.7637ZM21.547 10.8895H17.2669V12.7636H21.547V10.8895Z" fill="#B2ACAC"/>
<path fill-rule="evenodd" clip-rule="evenodd" d="M14.4188 10.8895H10.1387V12.7636H14.4189L14.4188 10.8895ZM17.2669 13.2325V15.2435L15.8428 14.0666L14.4187 15.2435V13.2325H10.6322V21.547H21.0534V13.2325H17.2669ZM18.481 15.3907C18.4592 15.369 18.442 15.3431 18.4302 15.3147C18.4184 15.2863 18.4123 15.2558 18.4123 15.225C18.4123 15.1942 18.4184 15.1637 18.4302 15.1353C18.442 15.1069 18.4592 15.081 18.481 15.0593L19.1703 14.37L19.1724 14.3679C19.1943 14.3461 19.2202 14.3288 19.2488 14.317C19.2774 14.3052 19.308 14.2992 19.3389 14.2993C19.3698 14.2994 19.4004 14.3056 19.4289 14.3176C19.4574 14.3296 19.4833 14.347 19.505 14.369L19.5061 14.37L20.1954 15.0593C20.2393 15.1032 20.264 15.1628 20.264 15.225C20.264 15.2872 20.2393 15.3468 20.1954 15.3907C20.1514 15.4347 20.0918 15.4594 20.0296 15.4594C19.9675 15.4594 19.9078 15.4347 19.8639 15.3907L19.5725 15.0994V17.7209C19.5725 17.7831 19.5478 17.8427 19.5039 17.8866C19.4599 17.9306 19.4003 17.9553 19.3381 17.9553C19.276 17.9553 19.2163 17.9306 19.1724 17.8866C19.1284 17.8427 19.1037 17.7831 19.1037 17.7209V15.0994L18.8125 15.3907C18.7908 15.4125 18.7649 15.4298 18.7365 15.4416C18.708 15.4534 18.6776 15.4594 18.6468 15.4594C18.616 15.4594 18.5855 15.4534 18.5571 15.4416C18.5286 15.4298 18.5028 15.4125 18.481 15.3907ZM11.8164 18.2534H15.7466V20.3627H11.8164V18.2534Z" fill="#B2ACAC"/>
<path fill-rule="evenodd" clip-rule="evenodd" d="M14.732 19.015C14.8086 19.0167 14.8815 19.0483 14.9351 19.103C14.9887 19.1578 15.0187 19.2314 15.0187 19.308C15.0187 19.3846 14.9887 19.4581 14.9351 19.5129C14.8815 19.5677 14.8086 19.5993 14.732 19.6009H12.8386C12.762 19.5993 12.6891 19.5677 12.6355 19.5129C12.5819 19.4581 12.5519 19.3846 12.5519 19.308C12.5519 19.2314 12.5819 19.1578 12.6355 19.103C12.6891 19.0483 12.762 19.0167 12.8386 19.015H14.732Z" fill="#B2ACAC"/>
</svg>
