<svg width="11" height="11" viewBox="0 0 11 11" fill="none" xmlns="http://www.w3.org/2000/svg">
<g clip-path="url(#clip0_574_474)">
<path d="M5.14946 9.36735H3.39453C3.20674 9.36734 3.02302 9.31263 2.86582 9.20991C2.70861 9.1072 2.58472 8.96092 2.50929 8.78895L1.38574 6.23145V10.6779C1.38574 10.8559 1.53003 11.0002 1.70801 11.0002H5.00049C5.19554 11.0002 5.34585 10.828 5.31987 10.6349L5.14946 9.36735Z" fill="#E83330"/>
<path d="M4.73365 6.78906H4.72398L4.21803 3.98428C4.17049 3.79174 4.08355 3.61116 3.96269 3.45393C3.84184 3.2967 3.68969 3.16623 3.51585 3.07078C4.04542 2.80347 4.40967 2.25468 4.40967 1.62207C4.40967 0.727654 3.68201 0 2.7876 0C1.89318 0 1.16553 0.727654 1.16553 1.62207C1.16553 2.26972 1.5472 2.82971 2.0973 3.08952C1.50047 3.44057 1.20025 4.20625 1.50842 4.90811L3.09955 8.52994C3.1509 8.64703 3.2667 8.72266 3.39453 8.72266H6.71924C6.89713 8.72266 7.0415 8.57828 7.0415 8.40039V7.43359H5.64502C5.225 7.43359 4.86643 7.16418 4.73365 6.78906ZM7.68604 8.40039H7.68769C8.28801 8.40039 8.79235 7.98948 8.93484 7.43359H7.68604V8.40039ZM7.25527 2.49219H7.90088V3.56641H7.25527V2.49219Z" fill="#E83330"/>
<path d="M9.51221 2.49219H8.54541V3.88867C8.54541 4.06665 8.40112 4.21094 8.22314 4.21094H6.93301C6.75503 4.21094 6.61074 4.06665 6.61074 3.88867V2.49219H5.64502C5.46704 2.49219 5.32275 2.63648 5.32275 2.81445V6.4668C5.32275 6.64477 5.46704 6.78906 5.64502 6.78906H9.51221C9.69018 6.78906 9.83447 6.64477 9.83447 6.4668V2.81445C9.83447 2.63648 9.69018 2.49219 9.51221 2.49219Z" fill="#E83330"/>
</g>
<defs>
<clipPath id="clip0_574_474">
<rect width="11" height="11" fill="white"/>
</clipPath>
</defs>
</svg>
