<svg width="14" height="14" viewBox="0 0 14 14" fill="none" xmlns="http://www.w3.org/2000/svg">
<path d="M8.71533 4.26497C7.58654 3.75121 6.36075 3.48538 5.12054 3.48538C3.88034 3.48538 2.65455 3.75121 1.52576 4.26497" stroke="#3B82DE" stroke-width="0.7" stroke-miterlimit="10" stroke-linecap="round" stroke-linejoin="round"/>
<path d="M7.98708 3.97269V2.20355C7.98708 1.21308 7.18416 0.410156 6.19369 0.410156H4.04742C3.05695 0.410156 2.25403 1.21308 2.25403 2.20355V3.97269" stroke="#3B82DE" stroke-width="0.7" stroke-miterlimit="10" stroke-linecap="round" stroke-linejoin="round"/>
<path d="M7.70181 3.87816V5.58769C7.70181 7.01312 6.54626 8.16894 5.12056 8.16894C3.69485 8.16894 2.53931 7.01312 2.53931 5.58769V3.87816" stroke="#3B82DE" stroke-width="0.7" stroke-miterlimit="10" stroke-linecap="round" stroke-linejoin="round"/>
<path d="M4.42192 6.21332C4.59282 6.40664 4.84247 6.52832 5.12055 6.52832C5.39864 6.52832 5.64829 6.40664 5.81919 6.21332M8.21461 13.5898H0.410156L0.917656 10.2356C1.05355 9.33734 1.6707 8.61601 2.48309 8.31769C2.74504 8.22117 3.02777 8.16894 3.3209 8.16894H6.92043C7.21355 8.16894 7.49602 8.22117 7.75797 8.31769C7.91774 8.37617 8.07082 8.45152 8.21461 8.54246M2.483 8.31767L5.12055 10.2746M5.12055 10.2746L7.75811 8.31767M5.12055 10.2746V13.5898M2.29105 13.5898V11.8837M8.21469 8.21469H13.5898V13.5898H8.21469V8.21469Z" stroke="#3B82DE" stroke-width="0.7" stroke-miterlimit="10" stroke-linecap="round" stroke-linejoin="round"/>
<path d="M11.7909 8.21461V10.806L10.9022 10.1043L10.0135 10.806V8.21461" stroke="#3B82DE" stroke-width="0.7" stroke-miterlimit="10" stroke-linecap="round" stroke-linejoin="round"/>
</svg>
