<svg width="300" height="406" viewBox="0 0 300 406" fill="#00ff00" xmlns="http://www.w3.org/2000/svg">
<path d="M256.667 234.667C245.351 234.157 234.296 238.164 225.934 245.806C217.573 253.447 212.589 264.097 212.08 275.413C211.571 286.729 215.577 297.784 223.219 306.146C230.86 314.507 241.511 319.491 252.827 320C249.358 330.067 243.502 339.143 235.76 346.453C229.108 352.474 221.264 357.029 212.737 359.822C204.21 362.615 195.192 363.585 186.267 362.667C170.042 360.421 155.21 352.29 144.59 339.821C133.969 327.352 128.302 311.415 128.667 295.04V192H214C219.658 192 225.084 189.752 229.085 185.752C233.086 181.751 235.333 176.325 235.333 170.667C235.333 165.009 233.086 159.583 229.085 155.582C225.084 151.581 219.658 149.333 214 149.333H128.667V64C128.667 47.0261 121.924 30.7475 109.921 18.7452C97.919 6.74284 81.6404 0 64.6665 0C47.6926 0 31.414 6.74284 19.4117 18.7452C7.40934 30.7475 0.666504 47.0261 0.666504 64C0.666504 69.658 2.91412 75.0842 6.9149 79.0849C10.9157 83.0857 16.3419 85.3333 21.9998 85.3333C27.6578 85.3333 33.084 83.0857 37.0848 79.0849C41.0856 75.0842 43.3332 69.658 43.3332 64C43.3332 58.342 45.5808 52.9158 49.5816 48.9151C53.5823 44.9143 59.0086 42.6667 64.6665 42.6667C70.3245 42.6667 75.7507 44.9143 79.7514 48.9151C83.7522 52.9158 85.9998 58.342 85.9998 64V149.333H43.3332C37.6752 149.333 32.249 151.581 28.2482 155.582C24.2475 159.583 21.9998 165.009 21.9998 170.667C21.9998 176.325 24.2475 181.751 28.2482 185.752C32.249 189.752 37.6752 192 43.3332 192H85.9998V295.04C85.6389 322.046 95.2575 348.235 113.012 368.588C130.767 388.941 155.408 402.025 182.213 405.333H192.667C220.956 405.333 248.087 394.095 268.091 374.091C288.095 354.088 299.333 326.956 299.333 298.667V277.333C299.333 266.017 294.838 255.165 286.836 247.163C278.835 239.162 267.982 234.667 256.667 234.667Z" fill="#717579"/>
</svg>
