<svg width="18" height="22" viewBox="0 0 18 22" fill="none" xmlns="http://www.w3.org/2000/svg">
<path d="M9.90749 14.0712H1.96124V20.375C1.96213 20.6731 2.08095 20.9587 2.29173 21.1695C2.50252 21.3803 2.78815 21.4991 3.08624 21.5H11.0475V13.2425L10.86 13.5425C10.7601 13.7051 10.62 13.8393 10.4532 13.9319C10.2863 14.0245 10.0983 14.0725 9.90749 14.0712ZM11.9812 13.5387L11.7975 13.2462V21.5H14.9137C15.2118 21.4991 15.4975 21.3803 15.7083 21.1695C15.919 20.9587 16.0379 20.6731 16.0387 20.375V14.0712H12.9375C12.746 14.0709 12.5577 14.0219 12.3905 13.9287C12.2232 13.8356 12.0823 13.7014 11.9812 13.5387Z" fill="#B2ACAC"/>
<path d="M17.2087 12.7812L15.9975 10.355C15.9667 10.2928 15.9192 10.2405 15.8602 10.2041C15.8012 10.1676 15.7331 10.1484 15.6637 10.1488H2.33624C2.26688 10.1484 2.19883 10.1676 2.13982 10.2041C2.08082 10.2405 2.03324 10.2928 2.00249 10.355L0.791239 12.7812C0.762184 12.838 0.748297 12.9014 0.750925 12.9651C0.753553 13.0288 0.772607 13.0908 0.806239 13.145C0.839989 13.1991 0.886976 13.2436 0.942753 13.2745C0.99853 13.3053 1.06125 13.3214 1.12499 13.3212H9.90749C9.97122 13.3214 10.0339 13.3053 10.0897 13.2745C10.1455 13.2436 10.1925 13.1991 10.2262 13.145L11.4225 11.2325L12.6187 13.145C12.6528 13.1988 12.6999 13.2431 12.7556 13.2739C12.8113 13.3047 12.8738 13.321 12.9375 13.3212H16.875C16.9387 13.3214 17.0014 13.3053 17.0572 13.2745C17.113 13.2436 17.16 13.1991 17.1937 13.145C17.2274 13.0908 17.2464 13.0288 17.2491 12.9651C17.2517 12.9014 17.2378 12.838 17.2087 12.7812ZM7.72874 8.38625C7.88249 8.49125 8.23499 8.91125 8.44499 8.885H9.55499C9.64612 8.88473 9.73405 8.85142 9.80249 8.79125C9.95999 8.6225 10.4362 8.34875 10.41 8.09375V7.76H7.58999V8.09375C7.59082 8.1496 7.60364 8.20461 7.62758 8.25508C7.65152 8.30554 7.68602 8.35027 7.72874 8.38625ZM7.53374 7.01H10.47C10.5756 6.48122 10.8232 5.99119 11.1862 5.5925C11.6904 5.04361 11.9678 4.32402 11.9625 3.57875C11.805 -0.33625 6.16499 -0.30625 6.03749 3.5975C6.03664 4.34656 6.32088 5.06787 6.83249 5.615C7.19064 6.00628 7.43336 6.48914 7.53374 7.01ZM5.32611 1.61638C5.36071 1.65219 5.40209 1.68076 5.44784 1.70041C5.49359 1.72007 5.5428 1.73041 5.59259 1.73084C5.64238 1.73128 5.69176 1.72179 5.73785 1.70293C5.78393 1.68408 5.8258 1.65623 5.86101 1.62102C5.89622 1.58581 5.92407 1.54394 5.94292 1.49786C5.96178 1.45177 5.97127 1.40239 5.97083 1.3526C5.9704 1.30281 5.96006 1.2536 5.9404 1.20785C5.92075 1.1621 5.89218 1.12072 5.85636 1.08613L5.38011 0.609875C5.30939 0.541566 5.21466 0.503768 5.11634 0.504622C5.01802 0.505477 4.92396 0.544915 4.85443 0.614443C4.7849 0.683971 4.74547 0.778026 4.74461 0.87635C4.74376 0.974673 4.78156 1.0694 4.84986 1.14013L5.32611 1.61638ZM4.12499 4.01H4.87499C4.97445 4.01 5.06983 3.97049 5.14015 3.90017C5.21048 3.82984 5.24999 3.73446 5.24999 3.635C5.24999 3.53554 5.21048 3.44016 5.14015 3.36983C5.06983 3.29951 4.97445 3.26 4.87499 3.26H4.12499C4.02553 3.26 3.93015 3.29951 3.85982 3.36983C3.7895 3.44016 3.74999 3.53554 3.74999 3.635C3.74999 3.73446 3.7895 3.82984 3.85982 3.90017C3.93015 3.97049 4.02553 4.01 4.12499 4.01ZM5.35236 5.62738L4.84986 6.12988C4.81405 6.16447 4.78548 6.20585 4.76583 6.2516C4.74617 6.29735 4.73583 6.34656 4.7354 6.39635C4.73496 6.44614 4.74445 6.49552 4.76331 6.54161C4.78216 6.58769 4.81001 6.62956 4.84522 6.66477C4.88043 6.69998 4.9223 6.72783 4.96838 6.74668C5.01447 6.76554 5.06385 6.77503 5.11364 6.77459C5.16343 6.77416 5.21264 6.76382 5.25839 6.74416C5.30414 6.72451 5.34552 6.69594 5.38011 6.66013L5.88261 6.15763C5.95092 6.0869 5.98872 5.99217 5.98787 5.89385C5.98701 5.79553 5.94757 5.70147 5.87805 5.63194C5.80852 5.56241 5.71446 5.52298 5.61614 5.52212C5.51782 5.52127 5.42309 5.55907 5.35236 5.62738ZM12.6199 6.66013C12.6906 6.72843 12.7853 6.76623 12.8836 6.76538C12.982 6.76452 13.076 6.72509 13.1455 6.65556C13.2151 6.58603 13.2545 6.49197 13.2554 6.39365C13.2562 6.29533 13.2184 6.2006 13.1501 6.12988L12.6439 5.62363C12.5731 5.55532 12.4784 5.51752 12.3801 5.51837C12.2818 5.51923 12.1877 5.55867 12.1182 5.62819C12.0487 5.69772 12.0092 5.79178 12.0084 5.8901C12.0075 5.98842 12.0453 6.08315 12.1136 6.15387L12.6199 6.66013ZM12.75 3.635C12.75 3.73446 12.7895 3.82984 12.8598 3.90017C12.9302 3.97049 13.0255 4.01 13.125 4.01H13.875C13.9744 4.01 14.0698 3.97049 14.1402 3.90017C14.2105 3.82984 14.25 3.73446 14.25 3.635C14.25 3.53554 14.2105 3.44016 14.1402 3.36983C14.0698 3.29951 13.9744 3.26 13.875 3.26H13.125C13.0255 3.26 12.9302 3.29951 12.8598 3.36983C12.7895 3.44016 12.75 3.53554 12.75 3.635ZM12.4125 1.7225C12.4617 1.72253 12.5105 1.71284 12.556 1.69399C12.6015 1.67513 12.6428 1.64748 12.6776 1.61263L13.1501 1.14013C13.2184 1.0694 13.2562 0.974673 13.2554 0.87635C13.2545 0.778026 13.2151 0.683971 13.1455 0.614443C13.076 0.544915 12.982 0.505477 12.8836 0.504622C12.7853 0.503768 12.6906 0.541566 12.6199 0.609875L12.1474 1.08238C12.0949 1.13482 12.0592 1.20163 12.0448 1.27436C12.0303 1.3471 12.0377 1.42248 12.0661 1.491C12.0945 1.55951 12.1425 1.61807 12.2042 1.65928C12.2658 1.70048 12.3383 1.72248 12.4125 1.7225Z" fill="#B2ACAC"/>
</svg>
