<svg width="13" height="12" viewBox="0 0 13 12" fill="none" xmlns="http://www.w3.org/2000/svg">
<path d="M12.9649 3.20078V10.1195C12.9649 10.7682 12.4364 11.2727 11.8118 11.2727H1.81807C1.16943 11.2727 0.664941 10.7682 0.664941 10.1195V3.20078C0.664941 2.57617 1.16943 2.04766 1.81807 2.04766H3.93213L4.22041 1.27891C4.38857 0.822461 4.821 0.510156 5.30146 0.510156H8.30439C8.78486 0.510156 9.21729 0.822461 9.38545 1.27891L9.69775 2.04766H11.8118C12.4364 2.04766 12.9649 2.57617 12.9649 3.20078ZM9.69775 6.66016C9.69775 5.07461 8.40049 3.77734 6.81494 3.77734C5.20537 3.77734 3.93213 5.07461 3.93213 6.66016C3.93213 8.26973 5.20537 9.54297 6.81494 9.54297C8.40049 9.54297 9.69775 8.26973 9.69775 6.66016ZM8.929 6.66016C8.929 7.8373 7.96807 8.77422 6.81494 8.77422C5.63779 8.77422 4.70088 7.8373 4.70088 6.66016C4.70088 5.50703 5.63779 4.54609 6.81494 4.54609C7.96807 4.54609 8.929 5.50703 8.929 6.66016Z" fill="white"/>
</svg>
