<svg width="24" height="24" viewBox="0 0 24 24" fill="none" xmlns="http://www.w3.org/2000/svg">
<g clip-path="url(#clip0_507_225)">
<path d="M22.5701 10.7341L18.8092 6.60323C18.0883 5.88026 16.8363 5.87525 16.1024 6.60923C15.8654 6.84622 15.7034 7.13121 15.6194 7.43518C14.8894 6.87519 13.7754 6.93622 13.1025 7.60918C12.8729 7.83818 12.706 8.12221 12.6175 8.43414C11.8895 7.87415 10.7746 7.93818 10.1026 8.60912C9.87757 8.83368 9.71253 9.11116 9.62262 9.41609L7.85068 7.64414C7.10572 6.90018 5.89574 6.89816 5.14277 7.65014C4.39782 8.39411 4.39782 9.60606 5.14277 10.351L11.9505 17.1587L7.91466 17.7927C6.8227 17.9488 5.99975 18.8967 5.99975 19.9997C5.99975 20.8266 6.67271 21.4996 7.49969 21.4996H16.9283C18.3962 21.4996 19.7772 20.9276 20.8191 19.8877L22.3911 18.3148C23.429 17.2778 24 15.8978 24 14.4309C24 13.0609 23.492 11.748 22.5701 10.7341ZM21.6831 17.6088L20.1112 19.1817C19.2602 20.0316 18.1292 20.4996 16.9283 20.4996H7.49969C7.22469 20.4996 6.9997 20.2756 6.9997 19.9996C6.9997 19.3916 7.45366 18.8687 8.06165 18.7807L13.0765 17.9927C13.2625 17.9637 13.4155 17.8327 13.4745 17.6537C13.5324 17.4757 13.4855 17.2787 13.3525 17.1457L5.84976 9.64309C5.49578 9.28812 5.49578 8.71112 5.85576 8.35015C6.0267 8.17965 6.25832 8.08398 6.49975 8.08414C6.73276 8.08414 6.96571 8.17315 7.14374 8.35113L10.0796 11.287C10.0866 11.295 10.0956 11.303 10.1036 11.311L12.1475 13.3539C12.3425 13.5489 12.6595 13.5489 12.8545 13.3539C13.0495 13.1589 13.0495 12.8419 12.8545 12.647L10.7936 10.586C10.4566 10.23 10.4626 9.66508 10.8166 9.31011C11.1606 8.96812 11.7585 8.96611 12.1025 9.31011L13.0855 10.2941C13.0915 10.3001 13.0965 10.3061 13.1025 10.3111L14.1465 11.3541C14.3415 11.549 14.6585 11.549 14.8535 11.3541C15.0485 11.1591 15.0485 10.8421 14.8535 10.6471L13.7975 9.5921C13.4565 9.23609 13.4605 8.66715 13.8165 8.31016C14.1595 7.96818 14.7585 7.96616 15.1025 8.31016L16.1464 9.35811C16.1474 9.35909 16.1474 9.36012 16.1484 9.36012L16.1494 9.36111L16.1534 9.36312C16.1534 9.36312 16.1534 9.36411 16.1544 9.36411L16.1554 9.36509L16.1564 9.36607H16.1583C16.3563 9.55005 16.6643 9.54508 16.8543 9.35309C17.0483 9.1581 17.0483 8.84213 16.8533 8.64713L16.7933 8.58714C16.4553 8.23114 16.4603 7.66519 16.8153 7.31017C17.1593 6.96819 17.7732 6.98319 18.0852 7.29316L21.8291 11.408C22.5841 12.238 22.999 13.3109 22.999 14.4319C22.9991 15.6308 22.5311 16.7598 21.6831 17.6088Z" fill="#E83330"/>
<path d="M16.1523 9.36312H16.1533L16.1513 9.36214C16.1523 9.36312 16.1534 9.36312 16.1523 9.36312ZM10.5965 7.15418C9.86758 5.54226 8.26063 4.50027 6.4997 4.50027C4.0188 4.50027 1.99989 6.51919 1.99989 9.00009C1.99989 10.76 3.04183 12.368 4.65276 13.0969C4.77373 13.1513 4.91132 13.1556 5.0354 13.1087C5.15947 13.0619 5.25993 12.9677 5.31475 12.847C5.42776 12.595 5.31677 12.299 5.06478 12.185C3.81083 11.618 2.99988 10.3681 2.99988 9.00014C2.99988 7.07023 4.5698 5.50026 6.49975 5.50026C7.86769 5.50026 9.11766 6.31122 9.68463 7.56516C9.71162 7.6251 9.75017 7.67913 9.79806 7.72414C9.84596 7.76916 9.90227 7.80428 9.96376 7.8275C10.0253 7.85072 10.0907 7.86158 10.1564 7.85946C10.2221 7.85734 10.2868 7.84228 10.3466 7.81514C10.5976 7.70217 10.7096 7.40519 10.5965 7.15418Z" fill="#E83330"/>
<path d="M12.7745 7.32921C12.0195 4.48632 9.4386 2.5004 6.49975 2.5004C2.91588 2.5004 0 5.41628 0 9.00015C0 11.939 1.98592 14.5199 4.8298 15.2749C4.87278 15.2869 4.91581 15.2919 4.95781 15.2919C5.1798 15.2919 5.38178 15.1449 5.44079 14.9209C5.51181 14.6539 5.3538 14.38 5.08582 14.3089C2.68091 13.67 0.99999 11.487 0.99999 9.00015C0.99999 5.96727 3.46791 3.50039 6.49975 3.50039C8.98566 3.50039 11.1696 5.18032 11.8085 7.58622C11.8785 7.85222 12.1435 8.0122 12.4205 7.94119C12.6865 7.87018 12.8445 7.5962 12.7745 7.32921Z" fill="#E83330"/>
</g>
<defs>
<clipPath id="clip0_507_225">
<rect width="24" height="24" fill="white"/>
</clipPath>
</defs>
</svg>
