<svg width="24" height="18" viewBox="0 0 24 18" fill="none" xmlns="http://www.w3.org/2000/svg">
<path d="M18.1137 12.69L14.6606 11.3131L13.8519 10.6319C13.749 10.5448 13.6172 10.4996 13.4825 10.5052C13.3479 10.5107 13.2203 10.5665 13.1249 10.6617L12.0006 11.7796L10.8732 10.6611C10.7776 10.5663 10.6501 10.5107 10.5156 10.5053C10.3811 10.4999 10.2494 10.545 10.1465 10.6319L9.33795 11.3131L5.88458 12.6902C4.77266 13.133 4.77356 17.0709 4.6781 17.4323H19.3219C19.2266 17.0717 19.2261 13.1323 18.1137 12.69ZM8.04569 7.08306L8.69418 7.08141C9.09478 9.17438 10.5164 10.3651 12 10.3651C13.4837 10.3651 14.3458 9.65997 14.9175 8.35999C14.4809 8.70233 13.8467 9.01549 12.9594 9.08012C12.9179 9.14213 12.8618 9.19295 12.796 9.22809C12.7302 9.26323 12.6567 9.2816 12.5822 9.28158H12.1675C12.047 9.28158 11.9315 9.23372 11.8463 9.14852C11.7611 9.06333 11.7132 8.94778 11.7132 8.8273C11.7132 8.70682 11.7611 8.59127 11.8463 8.50608C11.9315 8.42088 12.047 8.37302 12.1675 8.37302H12.5822C12.7291 8.37302 12.8593 8.44307 12.9424 8.55131C14.3688 8.4368 15.0396 7.57171 15.3071 7.08326L15.9546 7.08306C16.3509 7.08306 16.6722 6.76153 16.6722 6.36523V4.73825C16.6722 4.48419 16.5397 4.26138 16.3407 4.13378C16.1008 2.1311 14.2459 0.567692 12.0001 0.567692C9.7544 0.567692 7.89949 2.1311 7.65967 4.13378C7.46043 4.26138 7.32806 4.48414 7.32806 4.73825V6.36518C7.32786 6.76153 7.64925 7.08306 8.04569 7.08306ZM12 1.38129C13.7675 1.38129 15.2376 2.54695 15.5086 4.06765C15.4248 4.09949 15.3477 4.14679 15.2813 4.20708C14.858 2.87069 13.635 2.07625 12.0001 2.07625C10.3652 2.07625 9.14141 2.87014 8.71764 4.20603C8.65154 4.14623 8.57485 4.0993 8.49152 4.06765C8.76242 2.54695 10.2325 1.38129 12 1.38129Z" fill="#B2ACAC"/>
<path d="M23.222 13.1587L20.9983 12.2721L20.4775 11.8335C20.4112 11.7775 20.3264 11.7484 20.2397 11.7519C20.153 11.7555 20.0708 11.7914 20.0093 11.8526L19.2854 12.5724L18.5595 11.8523C18.498 11.7913 18.4158 11.7555 18.3292 11.752C18.2426 11.7485 18.1578 11.7776 18.0916 11.8335L17.8436 12.0424L18.2994 12.2241C19.2815 12.6147 19.5722 14.4075 19.7215 16.2125H24C23.9387 15.9804 23.9383 13.4437 23.222 13.1587ZM16.2767 8.0384V9.08609C16.2767 9.20869 16.3254 9.32627 16.4121 9.41297C16.4988 9.49966 16.6164 9.54837 16.739 9.54837L17.1565 9.54731C17.4145 10.895 18.3298 11.6617 19.2852 11.6617C20.2407 11.6617 20.7957 11.2076 21.1638 10.3707C20.8829 10.5911 20.4743 10.7927 19.9031 10.8344C19.8764 10.8743 19.8402 10.9071 19.7978 10.9297C19.7554 10.9524 19.7081 10.9642 19.66 10.9641H19.3931C19.2316 10.9641 19.1006 10.8332 19.1006 10.6716C19.1006 10.51 19.2316 10.3791 19.3931 10.3791H19.66C19.7547 10.3791 19.8386 10.4242 19.892 10.4939C20.8104 10.4201 21.2425 9.86303 21.4147 9.54857L21.8315 9.54842C22.0868 9.54842 22.2937 9.34139 22.2937 9.08614V8.0385C22.2937 7.8749 22.2085 7.73145 22.0801 7.64928C21.9257 6.35967 20.7313 5.35294 19.2851 5.35294C17.8391 5.35294 16.6446 6.35967 16.4902 7.64928C16.4248 7.69096 16.3709 7.74847 16.3336 7.81648C16.2963 7.88449 16.2767 7.96082 16.2767 8.0384ZM19.2852 5.87679C20.4233 5.87679 21.37 6.62741 21.5445 7.60661C21.4905 7.62716 21.4409 7.65763 21.3981 7.69646C21.1255 6.83588 20.3379 6.32432 19.2851 6.32432C18.2324 6.32432 17.4444 6.83553 17.1716 7.69576C17.129 7.65729 17.0797 7.62708 17.026 7.60666C17.2004 6.62736 18.147 5.87679 19.2852 5.87679ZM5.69907 12.2243L6.15528 12.0424L5.90724 11.8335C5.84099 11.7775 5.75613 11.7484 5.66944 11.7519C5.58276 11.7555 5.50056 11.7914 5.4391 11.8527L4.71521 12.5725L3.9892 11.8524C3.92769 11.7914 3.84553 11.7556 3.75892 11.7521C3.67232 11.7486 3.58754 11.7777 3.52131 11.8336L3.00058 12.2722L0.776893 13.159C0.060918 13.4441 0.0614194 15.9799 0 16.2125H4.2782C4.42711 14.408 4.71706 12.6154 5.69907 12.2243ZM2.16848 9.54832L2.58603 9.54726C2.84404 10.895 3.75942 11.6618 4.71481 11.6618C5.67019 11.6618 6.22527 11.2077 6.59339 10.3706C6.31231 10.591 5.90384 10.7927 5.33256 10.8344C5.30585 10.8743 5.26971 10.9071 5.22732 10.9297C5.18494 10.9523 5.13763 10.9641 5.08959 10.9641H4.82265C4.74508 10.9641 4.67067 10.9333 4.61582 10.8784C4.56096 10.8235 4.53015 10.7491 4.53015 10.6716C4.53015 10.594 4.56096 10.5196 4.61582 10.4647C4.67067 10.4099 4.74508 10.3791 4.82265 10.3791H5.08959C5.1842 10.3791 5.26808 10.4242 5.32153 10.4939C6.24006 10.4202 6.67205 9.86308 6.84428 9.54862L7.26113 9.54847C7.51638 9.54847 7.7233 9.34144 7.7233 9.08624V8.03855C7.7233 7.87495 7.63807 7.7315 7.50977 7.64933C7.35534 6.35972 6.16089 5.35299 4.71481 5.35299C3.26867 5.35299 2.07422 6.35972 1.91985 7.64933C1.79149 7.7315 1.70626 7.87495 1.70626 8.03855V9.08619C1.70626 9.34134 1.91318 9.54832 2.16848 9.54832ZM4.71481 5.87679C5.85294 5.87679 6.79956 6.62741 6.97409 7.60661C6.9201 7.62714 6.87044 7.65762 6.82768 7.69646C6.55508 6.83588 5.76756 6.32432 4.71481 6.32432C3.662 6.32432 2.87403 6.83553 2.60113 7.69576C2.55858 7.65726 2.50921 7.62704 2.45557 7.60666C2.63 6.62736 3.57667 5.87679 4.71481 5.87679Z" fill="#B2ACAC"/>
</svg>
