<svg width="68" height="34" viewBox="0 0 68 34" fill="none" xmlns="http://www.w3.org/2000/svg">
<path d="M11.2221 5.40378C14.7893 5.40378 17.3721 7.95376 17.3721 11.4567C17.3721 14.9596 14.7893 17.5096 11.2221 17.5096C7.65479 17.5096 5.0556 14.9596 5.0556 11.4567C5.0556 7.95376 7.6384 5.40378 11.2221 5.40378ZM11.2221 15.4751C13.2717 15.4751 14.7729 13.9096 14.7729 11.4567C14.7729 9.00375 13.2717 7.43696 11.2221 7.43696C9.17245 7.43696 7.65479 9.00249 7.65479 11.4554C7.65479 13.9083 9.15606 15.4751 11.2221 15.4751Z" fill="#010101"/>
<path d="M23.134 8.2601C25.2643 8.2601 26.9912 9.42229 27.4109 11.0849C27.5559 11.7631 27.121 12.2471 26.4744 12.2471C26.0219 12.2471 25.6349 12.0378 25.4571 11.7303C25.021 10.7622 24.2143 10.1004 23.1971 10.1004C21.8735 10.1004 20.9218 11.279 20.9218 12.8925C20.9218 14.5059 21.8735 15.6681 23.1971 15.6681C24.2143 15.6681 25.021 15.0064 25.4571 14.0547C25.6349 13.732 26.0219 13.5215 26.4744 13.5215C27.1198 13.5215 27.5559 14.0055 27.4109 14.6837C26.9912 16.3463 25.2643 17.5085 23.134 17.5085C20.4706 17.5085 18.5344 15.5711 18.5344 12.8925C18.5344 10.2139 20.4706 8.2601 23.134 8.2601Z" fill="#010101"/>
<path d="M33.3188 8.2601C36.0944 8.2601 38.1125 10.2126 38.1125 12.8925V16.3463C38.1125 17.0408 37.66 17.5085 36.9339 17.5085C36.2079 17.5085 35.7718 17.0408 35.7718 16.3463V16.3135C35.0772 17.0723 34.1091 17.5085 32.8663 17.5085C30.2835 17.5085 28.5238 15.5711 28.5238 12.8925C28.5238 10.2139 30.5268 8.2601 33.3188 8.2601ZM33.3352 15.6694C34.7558 15.6694 35.773 14.5879 35.773 12.8937C35.773 11.1996 34.7558 10.1017 33.3352 10.1017C31.9146 10.1017 30.9137 11.1832 30.9137 12.8937C30.9137 14.5879 31.931 15.6694 33.3352 15.6694Z" fill="#010101"/>
<path d="M43.989 8.26006C45.1512 8.26006 46.0877 8.64703 46.781 9.29366V6.56595C46.781 5.87142 47.2487 5.40378 47.9596 5.40378C48.6705 5.40378 49.1218 5.87142 49.1218 6.56595V12.8936C49.1218 15.5571 47.1201 17.5096 44.3444 17.5096C41.5688 17.5096 39.5343 15.5722 39.5343 12.8936C39.5343 10.2151 41.3255 8.26006 43.989 8.26006ZM44.3596 15.6692C45.7638 15.6692 46.781 14.5877 46.781 12.8936C46.781 11.1995 45.7638 10.1016 44.3596 10.1016C42.9553 10.1016 41.9217 11.1831 41.9217 12.8936C41.923 14.5877 42.939 15.6692 44.3596 15.6692Z" fill="#010101"/>
<path d="M55.2706 8.2601C58.0147 8.2601 60 10.2126 60 12.8925C60 15.5723 58.0147 17.5085 55.2706 17.5085C52.5264 17.5085 50.5575 15.5711 50.5575 12.8925C50.5575 10.2139 52.5277 8.2601 55.2706 8.2601ZM55.2706 15.6694C56.6269 15.6694 57.6113 14.6042 57.6113 12.8937C57.6113 11.1832 56.6269 10.1017 55.2706 10.1017C53.9142 10.1017 52.9462 11.1832 52.9462 12.8937C52.9474 14.6042 53.9319 15.6694 55.2706 15.6694Z" fill="#010101"/>
<path d="M13.3447 31.8474H8.43182C5.39035 31.8474 3.87042 30.4268 3.87042 27.5855C3.87042 26.8337 3.95179 26.0835 4.11615 25.3317C4.3277 24.3113 4.58319 23.4586 4.88262 22.7784C5.18205 22.0982 5.584 21.5026 6.08847 20.9916C6.59294 20.4806 7.22109 20.108 7.97291 19.8737C8.72474 19.6393 9.63441 19.5222 10.7019 19.5222H15.7906L15.2617 21.9875H11.7402C10.3195 21.9875 9.31058 22.2333 8.71172 22.7263C8.11287 23.2194 7.65559 24.2056 7.33826 25.6848C7.18529 26.4236 7.1088 26.9948 7.1088 27.3935C7.1088 28.1567 7.33988 28.679 7.80367 28.9606C8.26746 29.2421 9.05672 29.3837 10.1714 29.3837H13.8703L13.3447 31.8474Z" fill="#010101"/>
<path d="M21.0414 22.409C22.5792 22.409 23.7102 22.6791 24.4311 23.2194C25.1536 23.7597 25.5133 24.6759 25.5133 25.9663C25.5133 26.518 25.4661 27.0403 25.3733 27.5334C25.2317 28.2966 25.0446 28.9394 24.8103 29.4618C24.5759 29.9842 24.3058 30.4105 23.9999 30.7376C23.6939 31.0663 23.3017 31.3186 22.82 31.4943C22.3384 31.6701 21.8371 31.7905 21.3148 31.8556C20.7924 31.9191 20.1431 31.9532 19.3685 31.9532C17.8307 31.9532 16.6981 31.6863 15.969 31.1526C15.2416 30.6188 14.8771 29.7124 14.8771 28.4317C14.8771 27.9386 14.9291 27.4049 15.0349 26.8288C15.2107 25.8898 15.4483 25.1266 15.7477 24.5392C16.0471 23.9517 16.4556 23.5026 16.9714 23.1917C17.4873 22.8809 18.052 22.6726 18.6622 22.5668C19.2741 22.4627 20.0666 22.409 21.0414 22.409ZM17.8534 27.0062C17.7477 27.4635 17.6956 27.9158 17.6956 28.3617C17.6956 28.902 17.8486 29.2974 18.1529 29.5497C18.4572 29.8019 18.9519 29.9288 19.6321 29.9288C20.5353 29.9288 21.196 29.7384 21.6126 29.356C22.0292 28.9752 22.3432 28.308 22.5548 27.3577C22.6492 26.889 22.6964 26.4366 22.6964 26.0021C22.6964 25.4618 22.5532 25.0664 22.2651 24.8142C21.9771 24.5619 21.4873 24.435 20.794 24.435C19.8892 24.435 19.2237 24.6287 18.7957 25.016C18.3677 25.4033 18.0536 26.0672 17.8534 27.0062Z" fill="#010101"/>
<path d="M36.9594 22.5147L35.3565 30.0866C35.228 30.7099 34.9985 31.1574 34.6698 31.434C34.3411 31.7107 33.8545 31.8474 33.2085 31.8474H29.4396C28.4648 31.8474 27.687 31.6309 27.106 31.1965C26.5251 30.762 26.2338 30.1403 26.2338 29.3299C26.2338 29.037 26.2631 28.7604 26.3216 28.5016L27.5893 22.5147H30.3362L29.2085 27.797C29.1499 28.1143 29.1206 28.3666 29.1206 28.5537C29.1206 28.9996 29.2492 29.3251 29.5079 29.5317C29.7667 29.7368 30.1768 29.8393 30.7414 29.8393H32.027C32.4371 29.8393 32.6845 29.6342 32.7675 29.2225L34.193 22.5131H36.9594V22.5147Z" fill="#010101"/>
<path d="M36.4468 31.8474L37.6445 26.212C37.9374 24.7914 38.4598 23.8199 39.2116 23.2975C39.9618 22.7751 41.0961 22.5131 42.6095 22.5131H44.4581L44.035 24.5375H42.9431C42.0855 24.5375 41.4671 24.7311 41.0847 25.1184C40.7022 25.5057 40.4191 26.1404 40.2303 27.0208L39.1921 31.8458H36.4468V31.8474Z" fill="#E83330"/>
<path d="M43.2808 31.8474L45.271 22.5147H48.018L46.0277 31.8474H43.2808ZM48.2295 21.5286H45.4826L45.9057 19.5205H48.6526L48.2295 21.5286Z" fill="#E83330"/>
<path d="M56.453 31.8475H51.1707C50.056 31.8475 49.2391 31.6164 48.7232 31.1526C48.2057 30.6888 47.9486 29.9695 47.9486 28.9948C47.9486 28.3373 48.0544 27.5448 48.2659 26.6173C48.4417 25.854 48.6321 25.2292 48.8387 24.7426C49.0438 24.256 49.2798 23.8541 49.5434 23.5367C49.807 23.2194 50.1504 22.9818 50.5735 22.824C50.9966 22.6661 51.4506 22.5571 51.9388 22.4985C52.4254 22.4399 53.0633 22.4106 53.8493 22.4106C55.2585 22.4106 56.326 22.6189 57.0535 23.0355C57.7809 23.4521 58.1454 24.1828 58.1454 25.2275C58.1454 25.5562 58.0868 25.9842 57.9696 26.5131C57.8525 27.0648 57.6491 27.4667 57.3626 27.719C57.0746 27.9712 56.6548 28.0981 56.1031 28.0981H50.8371C50.7899 28.3211 50.7671 28.544 50.7671 28.7669C50.7671 29.1429 50.8843 29.4211 51.1186 29.6034C51.353 29.7856 51.7582 29.8768 52.3342 29.8768H56.8777L56.453 31.8475ZM51.2407 26.1958H54.6564C54.9965 26.1958 55.2081 26.0086 55.2894 25.6327C55.3122 25.5156 55.3252 25.4326 55.3252 25.387C55.3252 25.0355 55.1544 24.78 54.8143 24.6205C54.4742 24.4627 54.069 24.383 53.5987 24.383C52.8826 24.383 52.3489 24.5148 51.9958 24.7784C51.6459 25.042 51.3936 25.5156 51.2407 26.1958Z" fill="#E83330"/>
<path d="M57.9691 31.8474L59.1668 26.212C59.4598 24.7914 59.9821 23.8199 60.734 23.2975C61.4842 22.7751 62.6184 22.5131 64.1318 22.5131H65.9805L65.5574 24.5375H64.4654C63.6078 24.5375 62.9894 24.7311 62.607 25.1184C62.2246 25.5057 61.9398 26.1404 61.7527 27.0208L60.7144 31.8458H57.9691V31.8474Z" fill="#E83330"/>
</svg>
