<svg width="14" height="14" viewBox="0 0 14 14" fill="none" xmlns="http://www.w3.org/2000/svg">
<path d="M8.23683 6.83987V4.44281H11.7163V7C11.7163 7.10443 11.7577 7.20458 11.8316 7.27842C11.9054 7.35226 12.0056 7.39375 12.11 7.39375C12.2144 7.39375 12.3146 7.35226 12.3884 7.27842C12.4623 7.20458 12.5038 7.10443 12.5038 7V4.35312C12.5038 4.09762 12.4473 3.84081 12.3393 3.60762L11.1663 1.11825C11.0756 0.927853 10.9328 0.767015 10.7545 0.654301C10.5762 0.541586 10.3697 0.481593 10.1588 0.481247H2.89189C2.68152 0.482063 2.47567 0.542342 2.29809 0.65513C2.12051 0.767918 1.97843 0.928617 1.88826 1.11868L0.718389 3.60281C0.604499 3.83647 0.545823 4.09318 0.546889 4.35312V11.5369C0.546889 12.1494 1.0452 12.6481 1.65814 12.6481H6.96939C7.07382 12.6481 7.17397 12.6066 7.24781 12.5328C7.32166 12.459 7.36314 12.3588 7.36314 12.2544C7.36314 12.1499 7.32166 12.0498 7.24781 11.9759C7.17397 11.9021 7.07382 11.8606 6.96939 11.8606H1.65814C1.57235 11.8606 1.49007 11.8266 1.42937 11.766C1.36867 11.7053 1.33451 11.6231 1.33439 11.5373V4.44281H4.81558V6.83987C4.81581 6.99006 4.87557 7.13404 4.98177 7.24024C5.08798 7.34644 5.23195 7.4062 5.38214 7.40643C5.48539 7.40643 5.58908 7.37843 5.67964 7.322L6.5262 6.80006L7.37233 7.32156C7.54689 7.4305 7.76695 7.43531 7.94633 7.33512C8.12526 7.23493 8.23683 7.0455 8.23683 6.83987ZM7.13476 1.26875L7.40295 3.65487H5.65033L5.91808 1.26875H7.13476ZM10.4545 1.45425L11.4914 3.65487H8.19526L7.92708 1.26875H10.1588C10.2205 1.2687 10.281 1.28609 10.3334 1.3189C10.3857 1.35171 10.4277 1.39863 10.4545 1.45425ZM2.60008 1.45468C2.62632 1.39939 2.66761 1.35262 2.71923 1.31973C2.77085 1.28684 2.83069 1.26917 2.89189 1.26875H5.12533L4.85714 3.65487H1.56408L2.60008 1.45468ZM6.82545 6.05893C6.73618 6.00254 6.63279 5.97254 6.5272 5.97239C6.42162 5.97223 6.31814 6.00193 6.2287 6.05806L5.60308 6.44393V4.44325H7.44976V6.44393L6.82545 6.05893Z" fill="#33A360"/>
<path d="M2.6902 9.49988H3.82026C3.92469 9.49988 4.02484 9.45839 4.09868 9.38455C4.17253 9.31071 4.21401 9.21055 4.21401 9.10612C4.21401 9.0017 4.17253 8.90154 4.09868 8.8277C4.02484 8.75386 3.92469 8.71237 3.82026 8.71237H2.6902C2.58577 8.71237 2.48562 8.75386 2.41177 8.8277C2.33793 8.90154 2.29645 9.0017 2.29645 9.10612C2.29645 9.21055 2.33793 9.31071 2.41177 9.38455C2.48562 9.45839 2.58577 9.49988 2.6902 9.49988ZM2.6902 10.8841H4.62089C4.72531 10.8841 4.82547 10.8426 4.89931 10.7688C4.97315 10.695 5.01464 10.5948 5.01464 10.4904C5.01464 10.3859 4.97315 10.2858 4.89931 10.212C4.82547 10.1381 4.72531 10.0966 4.62089 10.0966H2.6902C2.58577 10.0966 2.48562 10.1381 2.41177 10.212C2.33793 10.2858 2.29645 10.3859 2.29645 10.4904C2.29645 10.5948 2.33793 10.695 2.41177 10.7688C2.48562 10.8426 2.58577 10.8841 2.6902 10.8841ZM10.6168 7.84569C9.05276 7.84569 7.78051 9.11838 7.78051 10.6824C7.78051 12.2465 9.05276 13.5188 10.6168 13.5188C12.1809 13.5188 13.4531 12.2465 13.4531 10.6824C13.4531 9.11838 12.1809 7.84569 10.6168 7.84569ZM10.6168 12.7313C10.0736 12.7307 9.55275 12.5146 9.16858 12.1306C8.78441 11.7465 8.56827 11.2257 8.56757 10.6824C8.56757 9.55238 9.48676 8.63319 10.6168 8.63319C11.7469 8.63319 12.6661 9.55238 12.6661 10.6824C12.6653 11.2256 12.4491 11.7464 12.0649 12.1304C11.6808 12.5145 11.16 12.7306 10.6168 12.7313Z" fill="#33A360"/>
<path d="M11.2 9.95968L10.3184 10.6702L10.0957 10.3867C10.0638 10.346 10.0242 10.312 9.97908 10.2867C9.934 10.2613 9.88437 10.2451 9.83302 10.2389C9.78167 10.2327 9.72961 10.2367 9.6798 10.2507C9.63 10.2646 9.58343 10.2882 9.54275 10.3202C9.50207 10.3521 9.46808 10.3918 9.44273 10.4368C9.41737 10.4819 9.40114 10.5316 9.39497 10.5829C9.38879 10.6343 9.39279 10.6863 9.40674 10.7361C9.42068 10.7859 9.4443 10.8325 9.47625 10.8732L9.94481 11.4708C9.97697 11.5119 10.017 11.5461 10.0625 11.5716C10.108 11.5971 10.1581 11.6132 10.2099 11.6192C10.2617 11.6251 10.3142 11.6207 10.3643 11.6062C10.4144 11.5917 10.4611 11.5674 10.5017 11.5347L11.6944 10.5739C11.7347 10.5415 11.7682 10.5014 11.7931 10.456C11.8179 10.4105 11.8336 10.3607 11.8391 10.3092C11.8447 10.2577 11.8401 10.2056 11.8255 10.156C11.811 10.1063 11.7868 10.0599 11.7543 10.0196C11.7218 9.97928 11.6818 9.94574 11.6363 9.9209C11.5909 9.89606 11.541 9.88041 11.4896 9.87484C11.4381 9.86928 11.386 9.8739 11.3363 9.88846C11.2867 9.90302 11.2403 9.92721 11.2 9.95968Z" fill="#33A360"/>
</svg>
