<svg width="28" height="28" viewBox="0 0 28 28" fill="none" xmlns="http://www.w3.org/2000/svg">
<path d="M16.1875 7.43748H23.8438L19.2146 0.875H15.0101L16.1039 7.43748H16.1875ZM8.65112 7.43748L10.2917 0.875H5.50419L0.875 7.43748H8.53125H8.65112ZM9.625 11.8844L10.7189 11.1552L12.3595 12.2489L14.0001 11.1552L15.0938 11.8843V8.53123H9.625V11.8844ZM14.995 7.43748L13.9013 0.875H11.4192L9.77856 7.43748H14.995Z" fill="#B2ACAC"/>
<path d="M21.1094 14C22.0778 14 23.0016 14.195 23.8438 14.5472V8.53125H16.1875V13.9281L14.0001 12.4698L12.3596 13.5635L10.7189 12.4698L8.53125 13.9281V8.53125H0.875V24.9375H15.1209C14.4116 23.8318 14 22.5177 14 21.1094C14 17.1892 17.1892 14 21.1094 14ZM10.7188 22.75H3.0625V15.0938H10.7188V22.75Z" fill="#B2ACAC"/>
<path d="M9.625 16.1875H4.15625V21.6562H9.625V16.1875ZM8.53125 20.5625H5.25V19.4688H8.53125V20.5625ZM8.53125 18.375H5.25V17.2812H8.53125V18.375ZM21.1094 15.0938C17.7871 15.0938 15.0938 17.7871 15.0938 21.1094C15.0938 24.4317 17.7871 27.125 21.1094 27.125C24.4317 27.125 27.125 24.4317 27.125 21.1094C27.125 17.7871 24.4317 15.0938 21.1094 15.0938ZM20.0156 23.5234L17.9883 21.4961L18.7617 20.7227L20.0156 21.9766L22.9102 19.082L23.6836 19.8554L20.0156 23.5234Z" fill="#B2ACAC"/>
</svg>
