<svg width="30" height="30" viewBox="0 0 30 30" fill="none" xmlns="http://www.w3.org/2000/svg">
<path d="M15.1172 23.7264C15.1174 22.1195 15.5859 20.5476 16.4655 19.2028C17.345 17.8581 18.5974 16.7988 20.0695 16.1547C21.5416 15.5106 23.1695 15.3095 24.7541 15.576C26.3387 15.8426 27.8113 16.5652 28.9916 17.6555C29.0307 14.8309 29.0072 12.0063 28.9213 9.18165C28.8744 7.24102 27.7787 5.29278 25.943 4.33008C24.9996 3.83145 24.0223 3.35157 23.0338 2.89688C19.1279 4.16016 14.5535 5.82657 9.93984 7.88965C9.49626 8.08573 9.11625 8.40179 8.84263 8.80222C8.56902 9.20266 8.41267 9.67155 8.39121 10.1561C8.31914 12.3826 8.29688 14.6807 8.32617 16.9529C8.32853 17.0196 8.30946 17.0852 8.27176 17.1402C8.23406 17.1952 8.17972 17.2367 8.11671 17.2585C8.0537 17.2803 7.98536 17.2814 7.92171 17.2615C7.85806 17.2416 7.80246 17.2019 7.76309 17.1481C7.27481 16.5231 6.79785 15.9051 6.33223 15.2941C6.29785 15.2464 6.24677 15.2133 6.18913 15.2015C6.13149 15.1896 6.0715 15.1999 6.02109 15.2303C5.65898 15.4459 5.30332 15.6586 4.9541 15.8684C4.7584 15.9856 4.51758 15.8291 4.51641 15.5883C4.50469 13.3248 4.56094 11.0555 4.68223 8.85586C4.7332 7.92833 5.31504 7.05469 6.17578 6.6293C10.6008 4.44375 15.3217 2.6584 19.35 1.33711C18.4125 0.970317 17.4803 0.633989 16.5703 0.315239C15.3434 -0.106056 14.0109 -0.106056 12.784 0.315239C9.74766 1.3629 6.43184 2.73047 3.41074 4.33008C1.57559 5.29278 0.481055 7.24102 0.432422 9.18165C0.312891 13.0606 0.312891 16.9395 0.432422 20.8184C0.479297 22.759 1.57559 24.7072 3.41074 25.6699C6.43184 27.2695 9.74766 28.6371 12.7857 29.6842C14.0127 30.1055 15.3451 30.1055 16.5721 29.6842C16.8373 29.5928 17.1051 29.4984 17.3754 29.4012C15.9206 27.8705 15.1118 25.838 15.1172 23.7264Z" fill="#1C937E"/>
<path d="M23.383 17.4533C22.1422 17.4534 20.9293 17.8215 19.8977 18.5109C18.866 19.2004 18.062 20.1803 17.5873 21.3267C17.1126 22.4731 16.9884 23.7345 17.2306 24.9514C17.4728 26.1684 18.0704 27.2862 18.9479 28.1635C19.8253 29.0408 20.9433 29.6382 22.1602 29.8801C23.3772 30.1221 24.6386 29.9977 25.7849 29.5228C26.9313 29.0479 27.911 28.2437 28.6002 27.2119C29.2895 26.1801 29.6573 24.9672 29.6572 23.7264C29.6571 22.9025 29.4948 22.0867 29.1794 21.3256C28.8641 20.5645 28.4019 19.8729 27.8193 19.2904C27.2367 18.7079 26.545 18.2458 25.7839 17.9306C25.0227 17.6154 24.2069 17.4532 23.383 17.4533ZM26.9613 22.6881L23.1902 26.6478C23.0876 26.7558 22.9642 26.8419 22.8275 26.9009C22.6907 26.9599 22.5435 26.9906 22.3945 26.9912H22.3893C22.2412 26.9911 22.0947 26.9614 21.9583 26.9037C21.8219 26.846 21.6985 26.7616 21.5953 26.6555L19.5943 24.5941C19.39 24.3836 19.2776 24.1004 19.282 23.807C19.2864 23.5137 19.4072 23.234 19.6178 23.0297C19.8283 22.8253 20.1115 22.713 20.4048 22.7174C20.6982 22.7218 20.9779 22.8425 21.1822 23.0531L22.3828 24.2889L25.36 21.1623C25.5647 20.9617 25.8392 20.8484 26.1258 20.8462C26.4124 20.8441 26.6887 20.9532 26.8964 21.1507C27.1041 21.3482 27.2271 21.6185 27.2394 21.9049C27.2517 22.1912 27.1525 22.4711 26.9625 22.6857L26.9613 22.6881Z" fill="#1C937E"/>
</svg>
