<svg width="20" height="20" viewBox="0 0 20 20" fill="none" xmlns="http://www.w3.org/2000/svg">
<path d="M13.4642 13.3823C13.2801 13.3823 13.1329 13.5214 13.1124 13.7054C12.9529 15.2842 11.6196 16.5152 9.99587 16.5152C8.37624 16.5152 7.0429 15.2842 6.87931 13.7054C6.85886 13.5255 6.71162 13.3823 6.52757 13.3823H2.27399C1.38237 13.3823 0.658447 14.1063 0.658447 14.9979V18.3844C0.658447 19.276 1.38237 19.9999 2.27399 19.9999H17.7259C18.6175 19.9999 19.3415 19.276 19.3415 18.3844V15.002C19.3415 14.1103 18.6175 13.3864 17.7259 13.3864H13.4642V13.3823Z" fill="#E83330"/>
<path d="M12.413 8.1227L11.1492 9.3865V1.14928C11.1492 0.515337 10.6338 0 9.99987 0C9.36593 0 8.85059 0.515337 8.85059 1.14928V9.3865L7.58679 8.1227C7.19824 7.73415 6.57656 7.63599 6.11848 7.94274C5.49272 8.35992 5.43137 9.21472 5.93443 9.71779L9.32094 13.1043C9.69721 13.4806 10.3066 13.4806 10.6829 13.1043L14.0694 9.71779C14.5725 9.21472 14.5111 8.35992 13.8854 7.94274C13.4232 7.6319 12.8015 7.73006 12.413 8.1227Z" fill="#E83330"/>
</svg>
