<svg width="14" height="14" viewBox="0 0 14 14" fill="none" xmlns="http://www.w3.org/2000/svg">
<path d="M13.7524 1.96874C13.728 1.92733 13.6947 1.89189 13.6549 1.86506C13.5699 1.74803 13.4624 1.64925 13.3385 1.57456L11.0557 0.255493C10.8889 0.159608 10.6999 0.109146 10.5075 0.109146C10.3151 0.109146 10.1261 0.159608 9.95929 0.255493L7.67641 1.57499C7.5526 1.64969 7.44504 1.74847 7.3601 1.86549C7.32006 1.89191 7.28671 1.92729 7.26272 1.96882C7.23872 2.01036 7.22473 2.05692 7.22185 2.10481C7.16273 2.23695 7.13075 2.37963 7.12779 2.52437V5.16031C7.12809 5.3528 7.17892 5.54183 7.27519 5.70852C7.37147 5.8752 7.50982 6.01368 7.67641 6.11012L9.95929 7.42831C10.0861 7.49786 10.2254 7.54158 10.3692 7.55693C10.4121 7.57861 10.4594 7.58991 10.5075 7.58991C10.5555 7.58991 10.6029 7.57861 10.6457 7.55693C10.7896 7.54169 10.9289 7.49797 11.0557 7.42831L13.3385 6.11012C13.5051 6.01368 13.6435 5.8752 13.7398 5.70852C13.836 5.54183 13.8869 5.3528 13.8872 5.16031V2.52306C13.8842 2.37832 13.8522 2.23564 13.7931 2.10349C13.7897 2.05612 13.7758 2.01009 13.7524 1.96874ZM10.2874 0.824681C10.3544 0.786265 10.4303 0.766051 10.5075 0.766051C10.5847 0.766051 10.6606 0.786265 10.7275 0.824681L12.9028 2.08031L12.0365 2.58124L9.6911 1.16812L10.2874 0.824681ZM10.5062 3.46324L8.11216 2.07943L9.04185 1.54306L11.3873 2.95443L10.5062 3.46324ZM8.00629 5.54049C7.9397 5.50153 7.88446 5.44582 7.84608 5.37889C7.80771 5.31196 7.78752 5.23615 7.78754 5.15899V2.64774L10.1829 4.03068V6.79612L8.00629 5.54049ZM13.0126 5.54049L10.8378 6.79612V4.03068L12.194 3.24756L13.2322 2.64818V5.15943C13.2319 5.23683 13.2113 5.31278 13.1724 5.37967C13.1334 5.44656 13.0776 5.50203 13.0104 5.54049H13.0126ZM0.66154 12.4119L2.94441 13.7301C3.07117 13.7997 3.21052 13.8434 3.35435 13.8587C3.39721 13.8804 3.44457 13.8917 3.4926 13.8917C3.54063 13.8917 3.58799 13.8804 3.63085 13.8587C3.77466 13.8433 3.91399 13.7996 4.04079 13.7301L6.32366 12.4119C6.49019 12.3155 6.6285 12.1771 6.72478 12.0105C6.82105 11.8439 6.87192 11.6549 6.87229 11.4625V8.82612C6.86933 8.68138 6.83735 8.5387 6.77823 8.40656C6.77535 8.35867 6.76136 8.31211 6.73736 8.27057C6.71336 8.22904 6.68002 8.19366 6.63998 8.16724C6.55522 8.04959 6.44764 7.9502 6.32366 7.87499L4.04079 6.55856C3.87411 6.46237 3.68505 6.41174 3.4926 6.41174C3.30016 6.41174 3.1111 6.46237 2.94441 6.55856L0.66154 7.87499C0.537696 7.95001 0.430141 8.04909 0.345228 8.16637C0.305096 8.19259 0.27168 8.22786 0.247668 8.26935C0.223656 8.31084 0.209718 8.35738 0.206978 8.40524C0.147858 8.53739 0.115872 8.68007 0.112915 8.82481V11.4625C0.113289 11.6549 0.164154 11.8439 0.260428 12.0105C0.356702 12.1771 0.495013 12.3155 0.66154 12.4119ZM0.989665 11.8431C0.923076 11.8043 0.867835 11.7486 0.829453 11.6818C0.79107 11.6149 0.770887 11.5392 0.770915 11.4621V8.95081L3.16448 10.3337V13.0992L0.989665 11.8431ZM2.02698 7.84568L4.37241 9.25749L3.4926 9.76543L1.09729 8.38249L2.02698 7.84568ZM5.99379 11.8436L3.81898 13.0992V10.3337L5.17523 9.55062L6.21341 8.95124V11.4625C6.21335 11.5397 6.19304 11.6155 6.1545 11.6824C6.11596 11.7492 6.06054 11.8048 5.99379 11.8436ZM3.27254 7.12687C3.33936 7.08798 3.41529 7.06749 3.4926 7.06749C3.56991 7.06749 3.64585 7.08798 3.71266 7.12687L5.88748 8.38249L5.02166 8.88124L2.67666 7.46987L3.27254 7.12687ZM13.559 8.62137C13.472 8.62137 13.3886 8.65594 13.327 8.71747C13.2655 8.77901 13.2309 8.86247 13.2309 8.94949V10.7332C13.2306 10.9798 13.1324 11.2163 12.9579 11.3906C12.7835 11.565 12.547 11.6631 12.3004 11.6633H9.39316L10.448 10.6571C10.4805 10.6277 10.5067 10.592 10.5252 10.5523C10.5437 10.5126 10.5541 10.4696 10.5557 10.4258C10.5573 10.382 10.5501 10.3384 10.5346 10.2974C10.5191 10.2564 10.4955 10.219 10.4652 10.1873C10.435 10.1556 10.3987 10.1303 10.3585 10.1128C10.3183 10.0953 10.275 10.0861 10.2312 10.0857C10.1874 10.0852 10.144 10.0935 10.1034 10.1101C10.0629 10.1267 10.0261 10.1513 9.99516 10.1824L8.34798 11.7543V11.7574L8.34229 11.7631H8.33923C8.33029 11.7747 8.32239 11.7872 8.3156 11.8002C8.3081 11.81 8.30123 11.8202 8.29504 11.8309C8.28779 11.8403 8.28107 11.85 8.27491 11.8602V11.8676C8.26877 11.8873 8.26452 11.9075 8.26223 11.928C8.2569 11.9467 8.25324 11.9659 8.25129 11.9853V11.9932C8.2532 12.0126 8.25686 12.0318 8.26223 12.0505C8.26447 12.071 8.26872 12.0912 8.27491 12.1109V12.1183C8.28092 12.1283 8.2875 12.1379 8.2946 12.1472C8.30104 12.158 8.30805 12.1686 8.3156 12.1787C8.32259 12.1916 8.33048 12.204 8.33923 12.2159H8.34185L8.34798 12.222V12.2251L9.99516 13.7966C10.0261 13.8276 10.0629 13.8522 10.1034 13.8688C10.144 13.8854 10.1874 13.8937 10.2312 13.8933C10.275 13.8928 10.3183 13.8836 10.3585 13.8661C10.3987 13.8487 10.435 13.8233 10.4652 13.7916C10.4955 13.7599 10.5191 13.7225 10.5346 13.6815C10.5501 13.6406 10.5573 13.5969 10.5557 13.5531C10.5541 13.5093 10.5437 13.4663 10.5252 13.4266C10.5067 13.3869 10.4805 13.3513 10.448 13.3219L9.39316 12.3156H12.3004C12.721 12.3152 13.1243 12.1479 13.4217 11.8505C13.7192 11.5531 13.8866 11.1499 13.8872 10.7292V8.94949C13.8872 8.86247 13.8526 8.77901 13.7911 8.71747C13.7295 8.65594 13.6461 8.62137 13.559 8.62137ZM0.44104 5.38737C0.528064 5.38737 0.611524 5.3528 0.673059 5.29126C0.734595 5.22973 0.769165 5.14627 0.769165 5.05924V3.27599C0.769397 3.02926 0.867512 2.79271 1.04198 2.61824C1.21644 2.44378 1.453 2.34566 1.69973 2.34543H4.60691L3.5521 3.35168C3.4891 3.41173 3.45253 3.49434 3.45043 3.58135C3.44834 3.66837 3.4809 3.75264 3.54095 3.81565C3.60099 3.87865 3.68361 3.91523 3.77062 3.91732C3.85763 3.91941 3.94191 3.88685 4.00491 3.82681L5.6521 2.25487V2.25181L5.65823 2.24612L5.66085 2.24393C5.67075 2.23228 5.67967 2.21985 5.68754 2.20674C5.69509 2.19662 5.7021 2.18611 5.70854 2.17524C5.71565 2.166 5.72222 2.15636 5.72823 2.14637L5.73041 2.13893C5.73665 2.11928 5.7409 2.09905 5.7431 2.07856C5.74847 2.05982 5.75213 2.04064 5.75404 2.02124V2.01381C5.75209 1.99427 5.74843 1.97495 5.7431 1.95606C5.74081 1.93557 5.73656 1.91535 5.73041 1.89568L5.72823 1.88824C5.72341 1.87774 5.71423 1.86943 5.7081 1.85893C5.70191 1.84829 5.69504 1.83806 5.68754 1.82831C5.68076 1.81525 5.67285 1.80281 5.66391 1.79112H5.66085L5.65516 1.78543V1.78237L4.00491 0.208681C3.97402 0.177616 3.93721 0.153055 3.89666 0.136445C3.85612 0.119836 3.81266 0.111515 3.76885 0.111973C3.72503 0.112431 3.68176 0.121659 3.64157 0.139113C3.60138 0.156566 3.56509 0.181892 3.53485 0.213596C3.50461 0.245299 3.48102 0.282739 3.46548 0.323705C3.44994 0.364672 3.44276 0.408336 3.44437 0.452121C3.44598 0.495907 3.45634 0.538926 3.47484 0.578643C3.49335 0.618359 3.51962 0.653968 3.5521 0.683368L4.60691 1.68962H1.69973C1.2791 1.69008 0.87582 1.85735 0.578348 2.15474C0.280875 2.45213 0.113494 2.85536 0.112915 3.27599V5.05924C0.112915 5.14627 0.147485 5.22973 0.209021 5.29126C0.270556 5.3528 0.354016 5.38737 0.44104 5.38737Z" fill="#33A360"/>
</svg>
