<svg width="14" height="14" viewBox="0 0 14 14" fill="none" xmlns="http://www.w3.org/2000/svg">
<path d="M7.29165 3.07419C7.13123 3.07419 6.99998 3.20544 6.99998 3.36585V4.64919C6.82498 4.75127 6.70831 4.93502 6.70831 5.15085C6.70831 5.47169 6.97081 5.73419 7.29165 5.73419C7.50748 5.73419 7.69415 5.61752 7.79331 5.44252H8.44665C8.60706 5.44252 8.73831 5.31127 8.73831 5.15085C8.73831 4.99044 8.60706 4.85919 8.44665 4.85919H7.79331C7.74373 4.77169 7.67081 4.69877 7.58331 4.64919V3.36585C7.58331 3.20544 7.45206 3.07419 7.29165 3.07419Z" fill="#3B82DE"/>
<path d="M10.8791 12.4046C11.0402 12.4046 11.1708 12.274 11.1708 12.1129C11.1708 11.9518 11.0402 11.8213 10.8791 11.8213C10.718 11.8213 10.5875 11.9518 10.5875 12.1129C10.5875 12.274 10.718 12.4046 10.8791 12.4046Z" fill="#3B82DE"/>
<path d="M9.74453 9.60168H10.5729L10.917 9.99251C10.9725 10.0567 11.0512 10.0917 11.1358 10.0917L11.792 10.0858C11.9525 10.0858 12.0808 9.95459 12.0808 9.79418V9.73293C12.072 9.64543 11.9904 8.86668 11.8183 8.52251C11.7425 8.35626 11.6287 8.19876 11.5091 8.09376C11.2991 7.92459 11.0804 7.84293 10.8383 7.84293H9.74162C9.5812 7.84293 9.44995 7.97418 9.44995 8.13459V9.31001C9.44995 9.47043 9.5812 9.60168 9.74162 9.60168H9.74453ZM10.0362 8.42626H10.8412C10.9783 8.42626 11.0775 8.49043 11.1387 8.54001C11.1766 8.57501 11.2437 8.66543 11.2962 8.77334C11.3662 8.91334 11.4304 9.24001 11.4683 9.50543H11.267L10.9229 9.11751C10.8958 9.0861 10.8622 9.06096 10.8244 9.04384C10.7866 9.02671 10.7456 9.01801 10.7041 9.01834H10.0362V8.42626Z" fill="#3B82DE"/>
<path d="M13.3875 9.56377C13.3583 9.50544 13.227 9.23711 13.017 9.05627C12.9295 8.60711 12.8333 8.28044 12.7137 8.03836C12.5795 7.75544 12.387 7.48127 12.1945 7.31794C11.9087 7.09044 11.6141 6.96211 11.302 6.91836C11.2787 6.91544 11.2204 6.90669 9.73579 6.91544C9.57538 6.91544 9.44413 7.04669 9.44704 7.21002C9.44704 7.37044 9.57829 7.49877 9.73871 7.49877C10.2695 7.49586 11.1445 7.49294 11.2204 7.49877C11.4975 7.53669 11.7016 7.67669 11.8212 7.77002C11.9408 7.87211 12.0837 8.07919 12.1945 8.31252C12.2587 8.44377 12.355 8.71794 12.46 9.27794C12.4674 9.31886 12.4834 9.35773 12.5071 9.39193C12.5307 9.42614 12.5614 9.4549 12.597 9.47627C12.6729 9.52294 12.7691 9.65711 12.8245 9.75919V11.0863C12.8245 11.2467 12.6933 11.3779 12.5329 11.3779H12.0429C11.795 10.9959 11.3633 10.7392 10.8704 10.7392C10.3775 10.7392 9.93704 11.0017 9.69204 11.3925C9.66871 11.3867 9.64246 11.3779 9.61621 11.3779H6.40788C6.24746 11.3779 6.11621 11.5092 6.11621 11.6696C6.11621 11.83 6.24746 11.9613 6.40788 11.9613H9.49371C9.48788 12.0138 9.47913 12.0634 9.47913 12.1159C9.47913 12.8742 10.1033 13.4925 10.8704 13.4925C11.6375 13.4925 12.2616 12.8742 12.2616 12.1159C12.2616 12.0634 12.2529 12.0138 12.247 11.9613H12.5329C12.7644 11.9605 12.9862 11.868 13.1497 11.704C13.3132 11.54 13.405 11.3178 13.405 11.0863V9.68919C13.4053 9.64693 13.3963 9.60511 13.3787 9.56669L13.3875 9.56377ZM10.8791 12.9063C10.4329 12.9063 10.0712 12.5504 10.0712 12.1129C10.0712 11.6754 10.4329 11.3196 10.8791 11.3196C11.3254 11.3196 11.687 11.6754 11.687 12.1129C11.687 12.5504 11.3254 12.9063 10.8791 12.9063Z" fill="#3B82DE"/>
<path d="M4.5354 10.7917H8.74998C8.9104 10.7917 9.04165 10.6604 9.04165 10.5V6.40209C9.04165 6.12209 8.74123 5.83334 8.44665 5.83334H2.04165C1.88123 5.83334 1.74998 5.96459 1.74998 6.12501V7.00001C1.74998 7.16043 1.88123 7.29168 2.04165 7.29168H2.75331C2.91373 7.29168 3.04498 7.16043 3.04498 7.00001C3.04498 6.83959 2.91373 6.70834 2.75331 6.70834H2.33331V6.41668H8.42331C8.42331 6.41668 8.44956 6.42834 8.45831 6.44001V10.2083H0.87498C0.714563 10.2083 0.583313 10.3396 0.583313 10.5C0.583313 10.6604 0.714563 10.7917 0.87498 10.7917H3.80623C3.4744 10.8803 3.1868 11.0879 2.99831 11.375H1.74998C1.58956 11.375 1.45831 11.5063 1.45831 11.6667C1.45831 11.8271 1.58956 11.9583 1.74998 11.9583H2.79415C2.78831 12.0108 2.77956 12.0604 2.77956 12.1129C2.77956 12.8713 3.40373 13.4896 4.17081 13.4896C4.9379 13.4896 5.56206 12.8713 5.56206 12.1129C5.56206 11.48 5.12456 10.9492 4.53248 10.7917H4.5354ZM4.17081 12.9063C3.72456 12.9063 3.3629 12.5504 3.3629 12.1129C3.3629 11.6754 3.72456 11.3196 4.17081 11.3196C4.61706 11.3196 4.97873 11.6754 4.97873 12.1129C4.97873 12.5504 4.61706 12.9063 4.17081 12.9063Z" fill="#3B82DE"/>
<path d="M4.17082 12.4046C4.3319 12.4046 4.46248 12.274 4.46248 12.1129C4.46248 11.9518 4.3319 11.8213 4.17082 11.8213C4.00973 11.8213 3.87915 11.9518 3.87915 12.1129C3.87915 12.274 4.00973 12.4046 4.17082 12.4046Z" fill="#3B82DE"/>
<path d="M1.45829 9.62501H2.75329C2.91371 9.62501 3.04496 9.49376 3.04496 9.33334C3.04496 9.17293 2.91371 9.04168 2.75329 9.04168H1.45829C1.29788 9.04168 1.16663 9.17293 1.16663 9.33334C1.16663 9.49376 1.29788 9.62501 1.45829 9.62501ZM2.75329 8.45834C2.91371 8.45834 3.04496 8.32709 3.04496 8.16668C3.04496 8.00626 2.91371 7.87501 2.75329 7.87501H2.04163C1.88121 7.87501 1.74996 8.00626 1.74996 8.16668C1.74996 8.32709 1.88121 8.45834 2.04163 8.45834H2.75329ZM3.77996 5.44543H4.53538C4.69579 5.44543 4.82704 5.31418 4.82704 5.15376C4.82704 4.99334 4.69579 4.86209 4.53538 4.86209H4.08621C4.15329 4.11543 4.47704 3.42126 5.01371 2.88459C5.54746 2.35376 6.24454 2.03001 6.99121 1.96293V2.40626C6.99121 2.56668 7.12246 2.69793 7.28288 2.69793C7.44329 2.69793 7.57454 2.56668 7.57454 2.40626V1.96293C8.31829 2.02709 9.01829 2.35084 9.55204 2.88459C10.0887 3.42418 10.4095 4.11543 10.4766 4.86209H10.0304C9.86996 4.86209 9.73871 4.99334 9.73871 5.15376C9.73871 5.31418 9.86996 5.44543 10.0304 5.44543H10.4708C10.4533 5.64959 10.4212 5.85084 10.3658 6.04334C10.3532 6.08681 10.351 6.13259 10.3591 6.17709C10.3673 6.22159 10.3856 6.26359 10.4128 6.29978C10.4399 6.33597 10.4751 6.36537 10.5155 6.38565C10.556 6.40594 10.6006 6.41656 10.6458 6.41668C10.7712 6.41668 10.8879 6.33501 10.9258 6.20668C11.025 5.87126 11.0745 5.51834 11.0745 5.15668V5.14501C11.0745 4.43918 10.8762 3.76543 10.5175 3.17918L10.9462 2.75043C10.9732 2.72344 10.9947 2.69139 11.0093 2.65611C11.024 2.62083 11.0315 2.583 11.0315 2.5448C11.0315 2.5066 11.024 2.46878 11.0093 2.43349C10.9947 2.39821 10.9732 2.36616 10.9462 2.33918L10.115 1.50793C10.088 1.48089 10.0559 1.45944 10.0206 1.4448C9.98536 1.43016 9.94753 1.42263 9.90933 1.42263C9.87113 1.42263 9.83331 1.43016 9.79803 1.4448C9.76274 1.45944 9.73069 1.48089 9.70371 1.50793L9.27788 1.93376C8.93438 1.71922 8.55798 1.56255 8.16371 1.47001V0.87501C8.16371 0.714594 8.03246 0.583344 7.87204 0.583344H6.69663C6.53621 0.583344 6.40496 0.714594 6.40496 0.87501V1.46709C6.01121 1.56043 5.63496 1.71793 5.29079 1.93376L4.86496 1.50793C4.80954 1.45251 4.73663 1.42334 4.65788 1.42334C4.57913 1.42334 4.50621 1.45543 4.45079 1.50793L3.61954 2.33918C3.56413 2.39459 3.53496 2.46751 3.53496 2.54626C3.53496 2.62501 3.56704 2.69793 3.61954 2.75334L4.04829 3.18209C3.68307 3.77589 3.49018 4.45956 3.49121 5.15668C3.49121 5.31709 3.62246 5.44834 3.78288 5.44834L3.77996 5.44543ZM9.90788 2.12334L10.3279 2.54334L10.182 2.68918L9.76204 2.26918L9.90788 2.12334ZM6.98538 1.16668H7.57746V1.37084H7.50746C7.43454 1.36501 7.36163 1.36209 7.28871 1.36209H7.27121C7.19538 1.36209 7.11954 1.36501 7.04663 1.37084H6.98246V1.16668H6.98538ZM4.65496 2.12334L4.80079 2.26918L4.38079 2.68918L4.23496 2.54334L4.65496 2.12334Z" fill="#3B82DE"/>
</svg>
