<svg width="20" height="22" viewBox="0 0 20 22" fill="none" xmlns="http://www.w3.org/2000/svg">
<path d="M19.0712 5.24769C18.9643 5.01261 18.8197 4.79662 18.6429 4.60831L14.6417 0.607063C14.2526 0.221011 13.7275 0.00303943 13.1794 0L7.5625 0C6.42537 0 5.5 0.925375 5.5 2.0625V2.75H2.0625C0.925375 2.75 0 3.67537 0 4.8125V19.9375C0 21.0746 0.925375 22 2.0625 22H11.6875C12.8246 22 13.75 21.0746 13.75 19.9375V19.25H17.1875C18.3246 19.25 19.25 18.3246 19.25 17.1875V6.07062C19.25 5.78188 19.1854 5.50344 19.0712 5.24769ZM16.9022 4.8125H15.125C14.9427 4.8125 14.7678 4.74007 14.6389 4.61114C14.5099 4.4822 14.4375 4.30734 14.4375 4.125V2.34713L16.9022 4.8125ZM12.375 19.9375C12.375 20.1198 12.3026 20.2947 12.1736 20.4236C12.0447 20.5526 11.8698 20.625 11.6875 20.625H2.0625C1.68369 20.625 1.375 20.317 1.375 19.9375V4.8125C1.375 4.433 1.68369 4.125 2.0625 4.125H7.5625V6.875C7.5625 8.01213 8.48787 8.9375 9.625 8.9375H12.375V19.9375ZM11.4029 7.5625H9.625C9.24619 7.5625 8.9375 7.2545 8.9375 6.875V5.09713L11.4029 7.5625ZM17.1875 17.875H13.75V8.81925C13.75 8.29675 13.5211 7.73644 13.1457 7.36106L9.13894 3.35431C8.75051 2.96966 8.22671 2.75269 7.68006 2.75H6.875V2.0625C6.875 1.683 7.18369 1.375 7.5625 1.375H13.0625V4.125C13.0625 5.26213 13.9879 6.1875 15.125 6.1875H17.875V17.1875C17.875 17.3698 17.8026 17.5447 17.6736 17.6736C17.5447 17.8026 17.3698 17.875 17.1875 17.875Z" fill="#81D56B"/>
</svg>
