<svg width="12" height="12" viewBox="0 0 12 12" fill="none" xmlns="http://www.w3.org/2000/svg">
<g clip-path="url(#clip0_425_152)">
<path d="M6.04697 9.4906C6.04705 8.84786 6.23446 8.21908 6.58628 7.68118C6.9381 7.14328 7.43907 6.71958 8.02791 6.46193C8.61674 6.20428 9.26791 6.12384 9.90175 6.23046C10.5356 6.33707 11.1246 6.62612 11.5967 7.06224C11.6124 5.93239 11.603 4.80255 11.5686 3.67271C11.5499 2.89646 11.1116 2.11716 10.3773 1.73208C9.99994 1.53263 9.609 1.34068 9.21361 1.1588C7.65127 1.66411 5.8215 2.33068 3.97604 3.15591C3.7986 3.23434 3.6466 3.36076 3.53715 3.52094C3.4277 3.68111 3.36517 3.86867 3.35658 4.06247C3.32775 4.9531 3.31885 5.87232 3.33057 6.78122C3.33151 6.80788 3.32388 6.83414 3.3088 6.85614C3.29372 6.87814 3.27198 6.89472 3.24678 6.90345C3.22158 6.91219 3.19424 6.91261 3.16878 6.90465C3.14332 6.8967 3.12108 6.88079 3.10533 6.85927C2.91002 6.60927 2.71924 6.36208 2.53299 6.11771C2.51924 6.0986 2.49881 6.08537 2.47575 6.08064C2.45269 6.0759 2.4287 6.08002 2.40854 6.09216C2.26369 6.17841 2.12143 6.26349 1.98174 6.34739C1.90346 6.39427 1.80713 6.33169 1.80666 6.23536C1.80197 5.32997 1.82447 4.42224 1.87299 3.54239C1.89338 3.17138 2.12611 2.82193 2.47041 2.65177C4.24041 1.77755 6.12877 1.06341 7.7401 0.534895C7.3651 0.388176 6.99221 0.253645 6.62822 0.126145C6.13744 -0.0423737 5.60447 -0.0423737 5.11369 0.126145C3.89916 0.545207 2.57283 1.09224 1.36439 1.73208C0.630332 2.11716 0.19252 2.89646 0.173066 3.67271C0.125254 5.22427 0.125254 6.77583 0.173066 8.32739C0.191816 9.10364 0.630332 9.88294 1.36439 10.268C2.57283 10.9079 3.89916 11.4549 5.1144 11.8737C5.60518 12.0422 6.13814 12.0422 6.62893 11.8737C6.73502 11.8372 6.84213 11.7994 6.95025 11.7605C6.36835 11.1483 6.04483 10.3353 6.04697 9.4906Z" fill="#E83330"/>
<path d="M9.35321 6.98145C8.85689 6.98149 8.37173 7.12871 7.95908 7.40449C7.54642 7.68028 7.22482 8.07223 7.03493 8.53079C6.84503 8.98935 6.79539 9.49392 6.89226 9.9807C6.98913 10.4675 7.22818 10.9146 7.57916 11.2655C7.93015 11.6164 8.37731 11.8554 8.86411 11.9522C9.3509 12.049 9.85547 11.9992 10.314 11.8092C10.7725 11.6193 11.1644 11.2976 11.4401 10.8849C11.7158 10.4722 11.8629 9.98699 11.8629 9.49066C11.8629 9.16112 11.7979 8.8348 11.6718 8.53036C11.5457 8.22591 11.3608 7.94928 11.1277 7.71628C10.8947 7.48328 10.618 7.29846 10.3136 7.17238C10.0091 7.04629 9.68276 6.98141 9.35321 6.98145ZM10.7845 9.07535L9.2761 10.6593C9.23506 10.7024 9.1857 10.7369 9.131 10.7605C9.07631 10.7841 9.0174 10.7964 8.95782 10.7966H8.95571C8.89649 10.7966 8.83788 10.7847 8.78333 10.7616C8.72878 10.7385 8.67941 10.7048 8.63814 10.6623L7.83775 9.83777C7.756 9.75355 7.71107 9.6403 7.71283 9.52294C7.71459 9.40558 7.76289 9.29373 7.84712 9.21199C7.93135 9.13025 8.0446 9.08532 8.16195 9.08708C8.27931 9.08883 8.39116 9.13714 8.4729 9.22137L8.95314 9.71566L10.144 8.46504C10.2259 8.38481 10.3357 8.33948 10.4503 8.33862C10.565 8.33775 10.6755 8.38141 10.7586 8.4604C10.8417 8.53938 10.8908 8.64753 10.8958 8.76207C10.9007 8.8766 10.861 8.98858 10.785 9.07441L10.7845 9.07535Z" fill="#E83330"/>
</g>
<defs>
<clipPath id="clip0_425_152">
<rect width="12" height="12" fill="white"/>
</clipPath>
</defs>
</svg>
