<svg width="98" height="31" viewBox="0 0 98 31" fill="none" xmlns="http://www.w3.org/2000/svg">
<path d="M14.2758 4.83416C14.2483 4.63857 14.031 3.26031 12.894 2.68841C12.6012 2.54086 12.3118 2.48024 12.0671 2.45966C11.828 2.46537 11.5878 2.47109 11.3488 2.47681H0C0 3.62289 0.928764 4.55164 2.07485 4.55164H10.9313C11.231 4.55164 11.494 4.75295 11.5718 5.04347H2.10001C2.10001 6.18955 3.02878 7.1183 4.17487 7.1183H11.6187C11.9184 7.1183 12.1815 7.31961 12.2592 7.61013H4.20003C4.20003 8.7562 5.12879 9.68496 6.27488 9.68496H14.2769V4.83416H14.2758Z" fill="#E83330"/>
<path d="M20.2447 0.0129842C23.238 -0.0979635 26.3091 0.497951 28.909 2.02606C30.4989 2.96053 31.8954 4.26102 32.8173 5.86805C33.9657 7.84338 34.3157 10.2716 33.7461 12.4872C33.3034 14.2417 32.2168 15.8316 30.7162 16.8496C29.1366 17.9442 27.151 18.38 25.25 18.1912C24.2206 18.0952 23.206 17.8069 22.2944 17.3185C21.249 16.7615 20.3454 15.93 19.7346 14.912C18.306 12.5421 18.5542 9.29027 20.3122 7.15596C20.5822 6.84599 20.8795 6.53717 21.2627 6.37132C21.3759 6.329 21.5292 6.29468 21.623 6.39076C21.7122 6.50857 21.6722 6.6687 21.6356 6.79909C21.3782 7.58602 21.384 8.48504 21.7625 9.23308C22.0908 9.90563 22.6902 10.4272 23.3776 10.7109C24.009 10.9694 24.7124 11.0471 25.3849 10.9373C26.2359 10.8104 27.0354 10.3471 27.5524 9.65743C28.1495 8.87507 28.3771 7.83766 28.2113 6.8723C28.0706 6.00988 27.5982 5.22295 26.9577 4.63733C26.1261 3.879 25.0521 3.43063 23.9552 3.22475C22.1892 2.90334 20.3122 3.15269 18.7132 3.97851C17.2205 4.74027 15.9967 5.987 15.1972 7.45449C14.3244 9.04436 13.9321 10.8824 14.0156 12.6896C14.0751 14.2852 14.5395 15.8694 15.3905 17.2236C16.4496 18.9256 18.0875 20.2295 19.9302 20.997C21.973 21.8537 24.2526 22.0939 26.4407 21.7862C28.4252 21.5037 30.3536 20.7064 31.8874 19.4025C33.3137 18.205 34.3683 16.5934 34.9665 14.8354C35.0283 14.6546 35.0946 14.4671 35.2239 14.3218C35.3726 14.1514 35.6814 14.1434 35.8095 14.3424C36.0188 14.6478 36.0142 15.0378 36.0451 15.3935C36.0646 17.338 35.7615 19.2927 35.1015 21.1251C34.4999 22.7984 33.6043 24.37 32.4536 25.7254C31.2446 27.1574 29.752 28.347 28.0923 29.2174C26.109 30.2628 23.8912 30.8416 21.655 30.9685C20.1018 31.0566 18.5359 30.948 17.0147 30.6151C14.9661 30.1736 13.0022 29.3226 11.2957 28.1033C9.74698 27.0007 8.41331 25.5962 7.39648 23.9903C6.11199 21.9738 5.33536 19.6462 5.0963 17.2705C4.78062 14.1834 5.30219 10.9888 6.74223 8.22769C7.862 6.05334 9.53652 4.17066 11.5553 2.7924C14.1003 1.04697 17.1679 0.118213 20.2447 0.0129842Z" fill="#E83330"/>
<path d="M46.4793 4.90344C49.7162 4.90344 52.0599 7.21731 52.0599 10.3959C52.0599 13.5745 49.7162 15.8883 46.4793 15.8883C43.2423 15.8883 40.8838 13.5745 40.8838 10.3959C40.8838 7.21731 43.2274 4.90344 46.4793 4.90344ZM46.4793 14.0423C48.3391 14.0423 49.7014 12.6217 49.7014 10.3959C49.7014 8.17008 48.3391 6.74836 46.4793 6.74836C44.6194 6.74836 43.2423 8.16894 43.2423 10.3947C43.2423 12.6205 44.6046 14.0423 46.4793 14.0423Z" fill="#010101"/>
<path d="M57.2882 7.4953C59.2212 7.4953 60.7882 8.54988 61.1691 10.0585C61.3007 10.6739 60.906 11.1131 60.3193 11.1131C59.9087 11.1131 59.5575 10.9233 59.3962 10.6442C59.0005 9.76574 58.2684 9.16524 57.3454 9.16524C56.1444 9.16524 55.2809 10.2347 55.2809 11.6988C55.2809 13.1628 56.1444 14.2174 57.3454 14.2174C58.2684 14.2174 59.0005 13.6169 59.3962 12.7533C59.5575 12.4605 59.9087 12.2695 60.3193 12.2695C60.9049 12.2695 61.3007 12.7087 61.1691 13.3241C60.7882 14.8328 59.2212 15.8873 57.2882 15.8873C54.8714 15.8873 53.1145 14.1293 53.1145 11.6988C53.1145 9.26818 54.8714 7.4953 57.2882 7.4953Z" fill="#010101"/>
<path d="M66.53 7.4953C69.0486 7.4953 70.8798 9.26704 70.8798 11.6988V14.8328C70.8798 15.463 70.4692 15.8873 69.8104 15.8873C69.1516 15.8873 68.7558 15.463 68.7558 14.8328V14.803C68.1256 15.4916 67.2471 15.8873 66.1193 15.8873C63.7757 15.8873 62.179 14.1293 62.179 11.6988C62.179 9.26818 63.9964 7.4953 66.53 7.4953ZM66.5448 14.2185C67.8339 14.2185 68.7569 13.2372 68.7569 11.6999C68.7569 10.1626 67.8339 9.16639 66.5448 9.16639C65.2558 9.16639 64.3476 10.1478 64.3476 11.6999C64.3476 13.2372 65.2706 14.2185 66.5448 14.2185Z" fill="#010101"/>
<path d="M76.2121 7.49525C77.2667 7.49525 78.1165 7.84639 78.7456 8.43315V5.95801C78.7456 5.32779 79.17 4.90344 79.8151 4.90344C80.4602 4.90344 80.8697 5.32779 80.8697 5.95801V11.6998C80.8697 14.1166 79.0533 15.8883 76.5347 15.8883C74.016 15.8883 72.1699 14.1303 72.1699 11.6998C72.1699 9.26926 73.7953 7.49525 76.2121 7.49525ZM76.5484 14.2184C77.8226 14.2184 78.7456 13.237 78.7456 11.6998C78.7456 10.1626 77.8226 9.16632 76.5484 9.16632C75.2742 9.16632 74.3363 10.1477 74.3363 11.6998C74.3374 13.237 75.2593 14.2184 76.5484 14.2184Z" fill="#010101"/>
<path d="M86.4493 7.4953C88.9393 7.4953 90.7408 9.26704 90.7408 11.6988C90.7408 14.1305 88.9393 15.8873 86.4493 15.8873C83.9592 15.8873 82.1726 14.1293 82.1726 11.6988C82.1726 9.26818 83.9604 7.4953 86.4493 7.4953ZM86.4493 14.2185C87.68 14.2185 88.5733 13.252 88.5733 11.6999C88.5733 10.1478 87.68 9.16639 86.4493 9.16639C85.2185 9.16639 84.3401 10.1478 84.3401 11.6999C84.3413 13.252 85.2346 14.2185 86.4493 14.2185Z" fill="#010101"/>
<path d="M48.4054 28.8987H43.9474C41.1875 28.8987 39.8083 27.6096 39.8083 25.0314C39.8083 24.3492 39.8822 23.6685 40.0313 22.9863C40.2233 22.0605 40.4551 21.2867 40.7268 20.6695C40.9985 20.0522 41.3633 19.5118 41.821 19.0481C42.2788 18.5845 42.8488 18.2463 43.531 18.0337C44.2132 17.821 45.0386 17.7147 46.0073 17.7147H50.6248L50.1449 19.9518H46.9494C45.6603 19.9518 44.7448 20.1748 44.2014 20.6222C43.658 21.0696 43.243 21.9645 42.9551 23.3067C42.8163 23.9771 42.7469 24.4954 42.7469 24.8572C42.7469 25.5497 42.9566 26.0237 43.3774 26.2792C43.7983 26.5346 44.5144 26.6631 45.5259 26.6631H48.8824L48.4054 28.8987Z" fill="#010101"/>
<path d="M55.3894 20.3341C56.7849 20.3341 57.8111 20.5792 58.4653 21.0695C59.1209 21.5597 59.4473 22.3911 59.4473 23.562C59.4473 24.0626 59.4044 24.5366 59.3203 24.9841C59.1918 25.6766 59.022 26.2599 58.8093 26.7339C58.5967 27.2079 58.3516 27.5948 58.074 27.8916C57.7964 28.1898 57.4405 28.4187 57.0034 28.5782C56.5663 28.7377 56.1115 28.8469 55.6375 28.906C55.1635 28.9636 54.5743 28.9946 53.8714 28.9946C52.476 28.9946 51.4483 28.7524 50.7867 28.2681C50.1267 27.7838 49.7959 26.9613 49.7959 25.7992C49.7959 25.3517 49.8432 24.8674 49.9391 24.3447C50.0986 23.4926 50.3142 22.8001 50.5859 22.267C50.8576 21.734 51.2282 21.3264 51.6963 21.0444C52.1644 20.7623 52.6768 20.5733 53.2306 20.4773C53.7858 20.3828 54.5049 20.3341 55.3894 20.3341ZM52.4967 24.5056C52.4007 24.9206 52.3534 25.3311 52.3534 25.7357C52.3534 26.2259 52.4923 26.5847 52.7684 26.8136C53.0445 27.0425 53.4934 27.1577 54.1107 27.1577C54.9302 27.1577 55.5297 26.9849 55.9077 26.6379C56.2858 26.2924 56.5708 25.6869 56.7627 24.8246C56.8484 24.3993 56.8912 23.9888 56.8912 23.5945C56.8912 23.1043 56.7612 22.7455 56.4999 22.5166C56.2385 22.2877 55.794 22.1725 55.165 22.1725C54.344 22.1725 53.74 22.3482 53.3517 22.6997C52.9633 23.0511 52.6783 23.6536 52.4967 24.5056Z" fill="#010101"/>
<path d="M69.8336 20.4301L68.3791 27.3008C68.2625 27.8664 68.0543 28.2725 67.756 28.5235C67.4577 28.7745 67.0162 28.8986 66.43 28.8986H63.0101C62.1256 28.8986 61.4197 28.7022 60.8926 28.3079C60.3654 27.9137 60.1011 27.3496 60.1011 26.6142C60.1011 26.3484 60.1277 26.0974 60.1808 25.8626L61.3311 20.4301H63.8237L62.8004 25.2232C62.7472 25.5112 62.7206 25.74 62.7206 25.9099C62.7206 26.3145 62.8373 26.6098 63.0721 26.7973C63.3069 26.9834 63.679 27.0764 64.1914 27.0764H65.3579C65.73 27.0764 65.9545 26.8903 66.0298 26.5168L67.3233 20.4286H69.8336V20.4301Z" fill="#010101"/>
<path d="M69.3684 28.8986L70.4552 23.785C70.721 22.4959 71.195 21.6143 71.8772 21.1403C72.558 20.6663 73.5872 20.4286 74.9605 20.4286H76.638L76.254 22.2655H75.2632C74.485 22.2655 73.9239 22.4412 73.5769 22.7927C73.2299 23.1441 72.9729 23.72 72.8016 24.5189L71.8595 28.8971H69.3684V28.8986Z" fill="#E83330"/>
<path d="M75.5696 28.8986L77.3755 20.4301H79.8681L78.0622 28.8986H75.5696ZM80.0601 19.5352H77.5675L77.9514 17.713H80.444L80.0601 19.5352Z" fill="#E83330"/>
<path d="M87.5221 28.8986H82.7289C81.7174 28.8986 80.9761 28.689 80.508 28.2681C80.0385 27.8473 79.8052 27.1946 79.8052 26.3101C79.8052 25.7135 79.9012 24.9944 80.0931 24.1527C80.2526 23.4602 80.4254 22.8931 80.6129 22.4516C80.799 22.0101 81.0131 21.6454 81.2523 21.3574C81.4915 21.0695 81.8031 20.8539 82.187 20.7107C82.5709 20.5674 82.9829 20.4685 83.4259 20.4153C83.8674 20.3622 84.4463 20.3356 85.1595 20.3356C86.4382 20.3356 87.4069 20.5246 88.067 20.9026C88.727 21.2807 89.0578 21.9437 89.0578 22.8917C89.0578 23.1899 89.0046 23.5783 88.8983 24.0582C88.792 24.5588 88.6074 24.9235 88.3475 25.1524C88.0862 25.3813 87.7052 25.4965 87.2046 25.4965H82.4262C82.3834 25.6988 82.3627 25.9011 82.3627 26.1034C82.3627 26.4445 82.469 26.697 82.6817 26.8623C82.8943 27.0277 83.262 27.1104 83.7847 27.1104H87.9075L87.5221 28.8986ZM82.7924 23.7703H85.8919C86.2005 23.7703 86.3925 23.6005 86.4663 23.2593C86.487 23.153 86.4988 23.0777 86.4988 23.0364C86.4988 22.7174 86.3437 22.4856 86.0351 22.3409C85.7265 22.1976 85.3588 22.1253 84.9321 22.1253C84.2823 22.1253 83.798 22.2449 83.4776 22.4841C83.1601 22.7233 82.9312 23.153 82.7924 23.7703Z" fill="#E83330"/>
<path d="M88.8979 28.8986L89.9848 23.785C90.2506 22.4959 90.7246 21.6143 91.4068 21.1403C92.0875 20.6663 93.1168 20.4286 94.49 20.4286H96.1675L95.7836 22.2655H94.7927C94.0146 22.2655 93.4534 22.4412 93.1064 22.7927C92.7594 23.1441 92.501 23.72 92.3312 24.5189L91.3891 28.8971H88.8979V28.8986Z" fill="#E83330"/>
</svg>
