<svg width="28" height="20" viewBox="0 0 28 20" fill="none" xmlns="http://www.w3.org/2000/svg">
<path opacity="0.587821" fill-rule="evenodd" clip-rule="evenodd" d="M6.22223 4.44444C6.22223 6.89904 8.21207 8.88889 10.6667 8.88889C13.1213 8.88889 15.1111 6.89904 15.1111 4.44444C15.1111 1.98985 13.1213 0 10.6667 0C8.21207 0 6.22223 1.98985 6.22223 4.44444ZM17.3334 8.88888C17.3334 10.7298 18.8258 12.2222 20.6667 12.2222C22.5077 12.2222 24.0001 10.7298 24.0001 8.88888C24.0001 7.04793 22.5077 5.55555 20.6667 5.55555C18.8258 5.55555 17.3334 7.04793 17.3334 8.88888Z" fill="#E83330"/>
<path fill-rule="evenodd" clip-rule="evenodd" d="M10.6482 11.1111C5.40221 11.1111 1.09815 13.8072 0.667472 19.1102C0.644013 19.3991 1.19643 20 1.47508 20H19.8297C20.6644 20 20.6774 19.3283 20.6644 19.1111C20.3388 13.6591 15.9681 11.1111 10.6482 11.1111ZM26.7289 20H22.4446C22.4446 17.499 21.6182 15.1909 20.2237 13.334C24.0087 13.3754 27.0992 15.2891 27.3317 19.3333C27.3411 19.4962 27.3317 20 26.7289 20Z" fill="#E83330"/>
</svg>
