<svg width="18" height="14" viewBox="0 0 18 14" fill="none" xmlns="http://www.w3.org/2000/svg">
<path d="M11.2347 7.15163L12.257 6.12929C12.3314 6.40758 12.375 6.69854 12.375 7.00004C12.375 8.86107 10.861 10.375 8.99998 10.375C8.69848 10.375 8.40753 10.3314 8.12923 10.2571L9.15158 9.23471C9.69195 9.19801 10.2007 8.96676 10.5837 8.58377C10.9667 8.20079 11.198 7.69201 11.2347 7.15163ZM17.9291 6.7268C17.8599 6.60235 16.8786 4.88293 14.9605 3.42577L14.1419 4.24435C15.5406 5.27274 16.4268 6.47213 16.7757 7.00088C16.109 8.01605 13.4937 11.5 8.99998 11.5C8.32611 11.5 7.69948 11.4138 7.10984 11.2763L6.18551 12.2006C7.03531 12.4612 7.96934 12.625 8.99998 12.625C14.8884 12.625 17.8077 7.49166 17.9291 7.27327C17.9756 7.1897 18 7.09566 18 7.00004C18 6.90441 17.9756 6.81037 17.9291 6.7268ZM15.5852 1.21022L3.21017 13.5852C3.10034 13.6951 2.95634 13.75 2.81248 13.75C2.66862 13.75 2.52462 13.6951 2.4148 13.5852C2.36253 13.533 2.32107 13.471 2.29278 13.4028C2.26449 13.3346 2.24993 13.2614 2.24993 13.1875C2.24993 13.1137 2.26449 13.0405 2.29278 12.9723C2.32107 12.904 2.36253 12.8421 2.4148 12.7898L3.98923 11.2154C1.44392 9.6788 0.150593 7.41685 0.0708591 7.27327C0.0243879 7.18967 0 7.09561 0 6.99997C0 6.90432 0.0243879 6.81026 0.0708591 6.72666C0.192218 6.50841 3.11159 1.37504 8.99998 1.37504C10.5225 1.37504 11.8413 1.72238 12.9687 2.23594L14.7898 0.414848C15.0096 0.195051 15.3655 0.195051 15.5852 0.414848C15.8048 0.634645 15.805 0.990566 15.5852 1.21022ZM4.82806 10.3766L6.25217 8.95247C5.85884 8.40066 5.62498 7.72777 5.62498 7.00004C5.62498 5.139 7.13895 3.62504 8.99998 3.62504C9.72772 3.62504 10.4006 3.85889 10.9524 4.25208L12.104 3.1005C11.1942 2.73614 10.1603 2.50004 8.99998 2.50004C4.50631 2.50004 1.89097 5.98402 1.22441 6.99919C1.64769 7.64072 2.86437 9.26466 4.82806 10.3766ZM7.06878 8.13572L10.1357 5.06883C9.80112 4.87125 9.41595 4.75004 8.99998 4.75004C7.75939 4.75004 6.74998 5.75944 6.74998 7.00004C6.74998 7.416 6.8712 7.80118 7.06878 8.13572Z" fill="#D4D8DB"/>
</svg>
