<svg width="14" height="14" viewBox="0 0 14 14" fill="none" xmlns="http://www.w3.org/2000/svg">
<g clip-path="url(#clip0_489_379)">
<path d="M12.0623 7.14175C12.1493 7.14175 12.2328 7.10718 12.2943 7.04565C12.3559 6.98411 12.3904 6.90065 12.3904 6.81363V1.6625C12.3893 1.25162 12.2252 0.857968 11.9342 0.56788C11.6432 0.277791 11.2491 0.114949 10.8382 0.115067H1.66251C1.25213 0.115414 0.858644 0.278531 0.56838 0.568631C0.278115 0.858732 0.114776 1.25212 0.114197 1.6625V10.8395C0.11408 11.2505 0.277042 11.6448 0.56732 11.9358C0.857597 12.2269 1.25147 12.3908 1.66251 12.3918H6.81276C6.89978 12.3918 6.98324 12.3572 7.04478 12.2956C7.10631 12.2341 7.14088 12.1507 7.14088 12.0636C7.14088 11.9766 7.10631 11.8931 7.04478 11.8316C6.98324 11.7701 6.89978 11.7355 6.81276 11.7355H1.66251C1.4256 11.7346 1.19874 11.6397 1.03167 11.4718C0.8646 11.3038 0.770972 11.0764 0.771322 10.8395V1.6625C0.771669 1.42625 0.865673 1.19978 1.03273 1.03272C1.19978 0.865668 1.42626 0.771664 1.66251 0.771317H4.00576V3.53238C4.00574 3.67947 4.04419 3.82401 4.11729 3.95166C4.19038 4.0793 4.29559 4.18561 4.42246 4.26004C4.54934 4.33446 4.69347 4.37442 4.84055 4.37594C4.98764 4.37745 5.13256 4.34048 5.26095 4.26869L6.16482 3.71175C6.18821 3.69902 6.21404 3.69141 6.24059 3.68945C6.26715 3.68749 6.29382 3.69122 6.31882 3.70038L7.26251 4.27482C7.26868 4.27888 7.27511 4.28254 7.28176 4.28575C7.41042 4.35247 7.55409 4.38493 7.69893 4.38001C7.84378 4.37508 7.98492 4.33294 8.10875 4.25764C8.23258 4.18234 8.33493 4.07642 8.40594 3.95008C8.47696 3.82374 8.51424 3.68124 8.5142 3.53632V0.771317H10.8373C11.0744 0.770735 11.302 0.86426 11.4701 1.03135C11.6383 1.19845 11.7333 1.42545 11.7342 1.6625V6.81363C11.7342 6.90065 11.7688 6.98411 11.8303 7.04565C11.8918 7.10718 11.9753 7.14175 12.0623 7.14175ZM7.85882 3.53632C7.85886 3.56784 7.85097 3.59887 7.83585 3.62654C7.82074 3.65421 7.7989 3.67763 7.77235 3.69463C7.7458 3.71163 7.7154 3.72167 7.68394 3.72382C7.65249 3.72598 7.621 3.72017 7.59238 3.70694L6.64038 3.12857C6.51621 3.06504 6.37833 3.03302 6.23887 3.03531C6.09941 3.03759 5.96266 3.07413 5.84063 3.14169L4.93676 3.69863C4.9083 3.71407 4.87626 3.72168 4.8439 3.72068C4.81154 3.71968 4.78002 3.71011 4.75257 3.69294C4.72479 3.67639 4.70182 3.65287 4.68593 3.62471C4.67005 3.59654 4.6618 3.56471 4.66201 3.53238V0.771317H7.85882V3.53632Z" fill="#E83330"/>
<path d="M11.0123 8.1375C10.4439 8.13742 9.8882 8.3059 9.41552 8.62164C8.94285 8.93738 8.57442 9.38619 8.35683 9.91133C8.13924 10.4365 8.08227 11.0143 8.19311 11.5719C8.30395 12.1294 8.57763 12.6415 8.97954 13.0435C9.38145 13.4454 9.89354 13.7192 10.451 13.8301C11.0085 13.9411 11.5864 13.8842 12.1116 13.6667C12.6368 13.4491 13.0856 13.0808 13.4014 12.6082C13.7173 12.1355 13.8858 11.5799 13.8858 11.0114C13.8849 10.2496 13.5819 9.51919 13.0432 8.98044C12.5045 8.44168 11.7742 8.13855 11.0123 8.1375ZM11.0123 13.2287C10.5737 13.2288 10.1448 13.0988 9.78007 12.8551C9.41531 12.6115 9.13099 12.2651 8.96309 11.8599C8.79518 11.4546 8.75123 11.0087 8.83678 10.5785C8.92234 10.1482 9.13356 9.75304 9.44374 9.44286C9.75391 9.13269 10.1491 8.92146 10.5793 8.83591C11.0096 8.75035 11.4555 8.79431 11.8608 8.96221C12.266 9.13012 12.6124 9.41443 12.856 9.7792C13.0996 10.144 13.2297 10.5728 13.2296 11.0114C13.2293 11.5996 12.9957 12.1636 12.58 12.5796C12.1643 12.9957 11.6005 13.2297 11.0123 13.2304V13.2287Z" fill="#E83330"/>
<rect x="1.50391" y="10.0898" width="3.0625" height="0.65625" rx="0.328125" fill="#E83330"/>
<rect x="11.5117" y="12.5508" width="3.0625" height="0.65625" rx="0.328125" transform="rotate(-90 11.5117 12.5508)" fill="#E83330"/>
<rect x="9.87109" y="12.5508" width="3.0625" height="0.65625" rx="0.328125" transform="rotate(-90 9.87109 12.5508)" fill="#E83330"/>
</g>
<defs>
<clipPath id="clip0_489_379">
<rect width="14" height="14" fill="white"/>
</clipPath>
</defs>
</svg>
