<svg width="14" height="15" viewBox="0 0 14 15" fill="none" xmlns="http://www.w3.org/2000/svg">
<path d="M5.35139 7.82974L4.53108 3.72815C4.51249 3.63517 4.46226 3.55151 4.38893 3.4914C4.31561 3.43129 4.22372 3.39844 4.12891 3.39844H3.30859C3.21378 3.39844 3.12189 3.43129 3.04857 3.4914C2.97524 3.55151 2.92501 3.63517 2.90642 3.72815L2.08611 7.82971C2.04168 8.05185 2.18575 8.26792 2.40786 8.31233C2.62998 8.35676 2.84607 8.21269 2.89048 7.99057L3.15265 6.67969H4.28485L4.54702 7.9906C4.59145 8.21282 4.80763 8.35679 5.02964 8.31236C5.25175 8.26792 5.39582 8.05185 5.35139 7.82974ZM3.31672 5.85938L3.64484 4.21875H3.79266L4.12079 5.85938H3.31672ZM11.9219 6.67969H10.6914V6.26953C10.6914 6.04302 10.5078 5.85938 10.2813 5.85938C10.0547 5.85938 9.87109 6.04302 9.87109 6.26953V6.67969H8.64063C8.41411 6.67969 8.23047 6.86333 8.23047 7.08984C8.23047 7.31636 8.41411 7.5 8.64063 7.5H8.73988C8.97359 8.25502 9.32545 8.83454 9.71264 9.29895C9.3975 9.5872 9.07862 9.82359 8.79457 10.0508C8.61768 10.1923 8.589 10.4504 8.73053 10.6273C8.87212 10.8043 9.13024 10.8328 9.30702 10.6913C9.59265 10.4628 9.93502 10.2089 10.2813 9.89116C10.6277 10.2091 10.9707 10.4635 11.2555 10.6913C11.4324 10.8329 11.6905 10.8042 11.832 10.6273C11.9735 10.4504 11.9448 10.1923 11.7679 10.0508C11.4846 9.82411 11.1653 9.58748 10.8499 9.29895C11.2371 8.83454 11.5889 8.25502 11.8226 7.5H11.9219C12.1484 7.5 12.332 7.31636 12.332 7.08984C12.332 6.86333 12.1484 6.67969 11.9219 6.67969ZM10.2813 8.69615C10.0194 8.36748 9.7839 7.97518 9.60632 7.49727H10.9561C10.7786 7.97518 10.5431 8.36748 10.2813 8.69615Z" fill="#292929"/>
<path d="M12.7695 2.98828H6.85232L6.6765 1.57784C6.59969 0.963367 6.0748 0.5 5.45554 0.5H1.23047C0.551988 0.5 0 1.05199 0 1.73047V10.7812C0 11.4597 0.551988 12.0117 1.23047 12.0117H4.68899L4.86257 13.4222C4.93924 14.0354 5.46413 14.5 6.08355 14.5H12.7695C13.448 14.5 14 13.948 14 13.2695V4.21875C14 3.54027 13.448 2.98828 12.7695 2.98828ZM1.23047 11.1914C1.00431 11.1914 0.820312 11.0074 0.820312 10.7812V1.73047C0.820312 1.50431 1.00431 1.32031 1.23047 1.32031H5.45554C5.66196 1.32031 5.83693 1.47475 5.8625 1.67945L7.04823 11.1914H1.23047ZM5.65261 13.126L5.51548 12.0117H6.6159L5.65261 13.126ZM13.1797 13.2695C13.1797 13.4957 12.9957 13.6797 12.7695 13.6797H6.25827L7.81971 11.8736C7.85907 11.8292 7.88833 11.7768 7.90546 11.7201C7.92259 11.6633 7.92719 11.6035 7.91894 11.5448L6.95458 3.80859H12.7695C12.9957 3.80859 13.1797 3.99259 13.1797 4.21875V13.2695Z" fill="#292929"/>
</svg>
