<svg width="40" height="35" viewBox="0 0 40 35" fill="none" xmlns="http://www.w3.org/2000/svg">
<path d="M15.7325 5.32731C15.7022 5.11176 15.4627 3.59286 14.2098 2.96261C13.8871 2.80001 13.5682 2.7332 13.2984 2.71051C13.035 2.71681 12.7703 2.72312 12.5068 2.72942H0C0 3.99244 1.02354 5.01597 2.28657 5.01597H12.0467C12.377 5.01597 12.6669 5.23781 12.7526 5.55798H2.3143C2.3143 6.821 3.33784 7.84453 4.60087 7.84453H12.8043C13.1345 7.84453 13.4245 8.06638 13.5102 8.38654H4.6286C4.6286 9.64956 5.65214 10.6731 6.91517 10.6731H15.7337V5.32731H15.7325Z" fill="#E83330"/>
<path d="M22.3098 0.014306C25.6086 -0.107963 28.993 0.54876 31.8582 2.23279C33.6103 3.26262 35.1493 4.69582 36.1653 6.46683C37.4309 8.64372 37.8166 11.3198 37.1889 13.7614C36.701 15.695 35.5036 17.4471 33.8498 18.5689C32.109 19.7752 29.9208 20.2555 27.8258 20.0475C26.6913 19.9416 25.5733 19.624 24.5686 19.0857C23.4165 18.4719 22.4207 17.5555 21.7476 16.4336C20.1732 13.8219 20.4468 10.2383 22.3842 7.88615C22.6816 7.54456 23.0094 7.20422 23.4317 7.02145C23.5564 6.97481 23.7253 6.93699 23.8287 7.04288C23.927 7.17271 23.8829 7.34918 23.8426 7.49288C23.559 8.3601 23.5653 9.35086 23.9825 10.1752C24.3443 10.9164 25.0048 11.4912 25.7623 11.8038C26.4581 12.0887 27.2333 12.1744 27.9745 12.0534C28.9123 11.9135 29.7934 11.403 30.3632 10.6429C31.0212 9.78069 31.272 8.63741 31.0892 7.57355C30.9342 6.62313 30.4136 5.7559 29.7077 5.11052C28.7913 4.27481 27.6077 3.78069 26.3989 3.5538C24.4527 3.1996 22.3842 3.47439 20.622 4.38447C18.977 5.22397 17.6283 6.59792 16.7472 8.21514C15.7854 9.96724 15.353 11.9929 15.4451 13.9845C15.5106 15.7429 16.0224 17.4887 16.9602 18.9811C18.1274 20.8567 19.9325 22.2937 21.9632 23.1395C24.2144 24.0836 26.7266 24.3483 29.138 24.0093C31.325 23.6979 33.4502 22.8193 35.1405 21.3824C36.7124 20.0626 37.8746 18.2866 38.5338 16.3492C38.6019 16.15 38.675 15.9433 38.8174 15.7832C38.9813 15.5954 39.3216 15.5866 39.4628 15.8059C39.6935 16.1425 39.6884 16.5723 39.7225 16.9643C39.7439 19.1072 39.4099 21.2614 38.6826 23.2807C38.0195 25.1248 37.0325 26.8567 35.7645 28.3504C34.4321 29.9286 32.7872 31.2395 30.9582 32.1987C28.7724 33.3508 26.3283 33.9887 23.864 34.1286C22.1522 34.2256 20.4266 34.1059 18.7501 33.7391C16.4925 33.2525 14.3283 32.3147 12.4476 30.971C10.7408 29.7559 9.27109 28.208 8.1505 26.4382C6.73495 24.216 5.87906 21.6509 5.61561 19.0328C5.26771 15.6307 5.8425 12.1101 7.42949 9.06724C8.66352 6.67103 10.5089 4.59624 12.7337 3.07733C15.5383 1.1538 18.919 0.130272 22.3098 0.014306Z" fill="#E83330"/>
</svg>
