<svg width="18" height="26" viewBox="0 0 18 26" fill="none" xmlns="http://www.w3.org/2000/svg">
<path d="M3.75 3.25C3.54688 3.25 3.37109 3.32422 3.22266 3.47266C3.07422 3.62109 3 3.79688 3 4V22C3 22.2031 3.07422 22.3789 3.22266 22.5273C3.37109 22.6758 3.54688 22.75 3.75 22.75H14.25C14.4531 22.75 14.6289 22.6758 14.7773 22.5273C14.9258 22.3789 15 22.2031 15 22V4C15 3.79688 14.9258 3.62109 14.7773 3.47266C14.6289 3.32422 14.4531 3.25 14.25 3.25H3.75ZM0.75 4C0.75 3.17188 1.04297 2.46484 1.62891 1.87891C2.21484 1.29297 2.92188 1 3.75 1H14.25C15.0781 1 15.7852 1.29297 16.3711 1.87891C16.957 2.46484 17.25 3.17188 17.25 4V22C17.25 22.8281 16.957 23.5352 16.3711 24.1211C15.7852 24.707 15.0781 25 14.25 25H3.75C2.92188 25 2.21484 24.707 1.62891 24.1211C1.04297 23.5352 0.75 22.8281 0.75 22V4ZM7.5 19.75H10.5C10.7031 19.75 10.8789 19.8242 11.0273 19.9727C11.1758 20.1211 11.25 20.2969 11.25 20.5C11.25 20.7031 11.1758 20.8789 11.0273 21.0273C10.8789 21.1758 10.7031 21.25 10.5 21.25H7.5C7.29688 21.25 7.12109 21.1758 6.97266 21.0273C6.82422 20.8789 6.75 20.7031 6.75 20.5C6.75 20.2969 6.82422 20.1211 6.97266 19.9727C7.12109 19.8242 7.29688 19.75 7.5 19.75Z" fill="#E83330"/>
</svg>
