<svg width="100" height="34" viewBox="0 0 100 34" fill="none" xmlns="http://www.w3.org/2000/svg">
<g clip-path="url(#clip0_30_242)">
<path d="M15.6582 5.30181C15.6281 5.08728 15.3898 3.57552 14.1427 2.94824C13.8216 2.7864 13.5042 2.71991 13.2357 2.69733C12.9735 2.7036 12.71 2.70987 12.4478 2.71615H0C0 3.97322 1.01871 4.99193 2.27578 4.99193H11.9899C12.3186 4.99193 12.6071 5.21273 12.6924 5.53139H2.30338C2.30338 6.78847 3.32209 7.80717 4.57917 7.80717H12.7439C13.0726 7.80717 13.3611 8.02798 13.4464 8.34664H4.60677C4.60677 9.60371 5.62547 10.6224 6.88255 10.6224H15.6595V5.30181H15.6582Z" fill="#E83330"/>
<path d="M22.2046 0.0138115C25.4878 -0.107881 28.8563 0.545747 31.7079 2.22185C33.4517 3.24683 34.9836 4.67327 35.9948 6.43594C37.2543 8.60257 37.6382 11.266 37.0135 13.6961C36.5279 15.6206 35.3361 17.3645 33.6901 18.481C31.9576 19.6816 29.7796 20.1596 27.6945 19.9526C26.5654 19.8472 25.4526 19.5311 24.4527 18.9954C23.3061 18.3844 22.315 17.4724 21.645 16.3558C20.0781 13.7563 20.3503 10.1896 22.2786 7.84858C22.5747 7.50859 22.9008 7.16986 23.3211 6.98795C23.4453 6.94153 23.6134 6.90389 23.7163 7.00927C23.8142 7.13849 23.7703 7.31413 23.7301 7.45715C23.4478 8.32029 23.4541 9.30638 23.8694 10.1269C24.2294 10.8646 24.8868 11.4366 25.6408 11.7478C26.3333 12.0313 27.1049 12.1166 27.8426 11.9962C28.776 11.8569 29.6529 11.3488 30.22 10.5923C30.8749 9.73419 31.1245 8.5963 30.9426 7.53745C30.7883 6.5915 30.2702 5.72836 29.5676 5.08602C28.6555 4.25425 27.4775 3.76246 26.2744 3.53663C24.3373 3.1841 22.2786 3.4576 20.5247 4.36339C18.8875 5.19893 17.5451 6.56641 16.6682 8.17602C15.7109 9.91987 15.2806 11.936 15.3722 13.9182C15.4374 15.6683 15.9468 17.4059 16.8802 18.8913C18.0419 20.7581 19.8385 22.1883 21.8596 23.0301C24.1002 23.9698 26.6006 24.2332 29.0005 23.8957C31.1772 23.5859 33.2924 22.7114 34.9748 21.2812C36.5392 19.9677 37.6959 18.2 38.3521 16.2717C38.4198 16.0735 38.4926 15.8678 38.6344 15.7084C38.7975 15.5215 39.1362 15.5127 39.2767 15.731C39.5063 16.066 39.5013 16.4938 39.5351 16.884C39.5565 19.0167 39.224 21.1608 38.5001 23.1706C37.8402 25.006 36.8579 26.7298 35.5958 28.2165C34.2697 29.7872 32.6325 31.0919 30.8121 32.0466C28.6367 33.1933 26.2041 33.8281 23.7514 33.9674C22.0477 34.064 20.3302 33.9448 18.6617 33.5797C16.4147 33.0955 14.2607 32.1621 12.3888 30.8247C10.6902 29.6153 9.22733 28.0747 8.11202 26.3133C6.70314 24.1015 5.85129 21.5484 5.58909 18.9427C5.24283 15.5566 5.81491 12.0526 7.39441 9.02411C8.62263 6.63917 10.4593 4.57416 12.6736 3.06241C15.465 1.14794 18.8298 0.129232 22.2046 0.0138115Z" fill="#E83330"/>
<path d="M50.9805 5.37833C54.531 5.37833 57.1016 7.91631 57.1016 11.4028C57.1016 14.8892 54.531 17.4272 50.9805 17.4272C47.4301 17.4272 44.8432 14.8892 44.8432 11.4028C44.8432 7.91631 47.4138 5.37833 50.9805 5.37833ZM50.9805 15.4023C53.0205 15.4023 54.5147 13.8441 54.5147 11.4028C54.5147 8.96137 53.0205 7.40194 50.9805 7.40194C48.9406 7.40194 47.4301 8.96011 47.4301 11.4015C47.4301 13.8429 48.9243 15.4023 50.9805 15.4023Z" fill="#010101"/>
<path d="M62.8362 8.22116C64.9564 8.22116 66.6752 9.37787 67.093 11.0326C67.2372 11.7076 66.8044 12.1894 66.1608 12.1894C65.7104 12.1894 65.3253 11.9811 65.1484 11.675C64.7143 10.7115 63.9114 10.0528 62.8989 10.0528C61.5816 10.0528 60.6344 11.2258 60.6344 12.8317C60.6344 14.4375 61.5816 15.5942 62.8989 15.5942C63.9114 15.5942 64.7143 14.9356 65.1484 13.9884C65.3253 13.6672 65.7104 13.4577 66.1608 13.4577C66.8031 13.4577 67.2372 13.9395 67.093 14.6144C66.6752 16.2692 64.9564 17.4259 62.8362 17.4259C60.1853 17.4259 58.2583 15.4976 58.2583 12.8317C58.2583 10.1657 60.1853 8.22116 62.8362 8.22116Z" fill="#010101"/>
<path d="M72.9731 8.22116C75.7356 8.22116 77.7442 10.1645 77.7442 12.8317V16.2692C77.7442 16.9605 77.2938 17.4259 76.5712 17.4259C75.8485 17.4259 75.4144 16.9605 75.4144 16.2692V16.2366C74.7232 16.9918 73.7597 17.4259 72.5227 17.4259C69.9521 17.4259 68.2007 15.4976 68.2007 12.8317C68.2007 10.1657 70.1942 8.22116 72.9731 8.22116ZM72.9894 15.5955C74.4033 15.5955 75.4157 14.5191 75.4157 12.8329C75.4157 11.1468 74.4033 10.0541 72.9894 10.0541C71.5755 10.0541 70.5793 11.1305 70.5793 12.8329C70.5793 14.5191 71.5918 15.5955 72.9894 15.5955Z" fill="#010101"/>
<path d="M83.593 8.22117C84.7497 8.22117 85.6819 8.60633 86.3719 9.24992V6.53504C86.3719 5.84377 86.8373 5.37833 87.5449 5.37833C88.2525 5.37833 88.7016 5.84377 88.7016 6.53504V12.833C88.7016 15.4839 86.7093 17.4272 83.9468 17.4272C81.1842 17.4272 79.1594 15.4989 79.1594 12.833C79.1594 10.167 80.9421 8.22117 83.593 8.22117ZM83.9618 15.5955C85.3594 15.5955 86.3719 14.5191 86.3719 12.833C86.3719 11.1468 85.3594 10.0541 83.9618 10.0541C82.5643 10.0541 81.5355 11.1305 81.5355 12.833C81.5368 14.5191 82.548 15.5955 83.9618 15.5955Z" fill="#010101"/>
<path d="M94.8214 8.22116C97.5526 8.22116 99.5285 10.1645 99.5285 12.8317C99.5285 15.4989 97.5526 17.4259 94.8214 17.4259C92.0902 17.4259 90.1306 15.4976 90.1306 12.8317C90.1306 10.1657 92.0914 8.22116 94.8214 8.22116ZM94.8214 15.5955C96.1713 15.5955 97.1511 14.5354 97.1511 12.8329C97.1511 11.1305 96.1713 10.0541 94.8214 10.0541C93.4715 10.0541 92.508 11.1305 92.508 12.8329C92.5092 14.5354 93.489 15.5955 94.8214 15.5955Z" fill="#010101"/>
<path d="M50.968 28.9316H47.1805C44.8357 28.9316 43.6639 27.8363 43.6639 25.6458C43.6639 25.0662 43.7267 24.4879 43.8534 23.9083C44.0165 23.1217 44.2134 22.4643 44.4443 21.9399C44.6751 21.4155 44.985 20.9563 45.3739 20.5623C45.7628 20.1684 46.2471 19.8811 46.8267 19.7005C47.4063 19.5198 48.1076 19.4295 48.9306 19.4295H52.8536L52.4459 21.3301H49.731C48.6358 21.3301 47.858 21.5196 47.3963 21.8997C46.9346 22.2798 46.5821 23.0401 46.3374 24.1805C46.2195 24.7501 46.1605 25.1904 46.1605 25.4978C46.1605 26.0862 46.3387 26.4889 46.6962 26.706C47.0538 26.923 47.6622 27.0321 48.5216 27.0321H51.3732L50.968 28.9316Z" fill="#010101"/>
<path d="M56.9009 21.6551C58.0864 21.6551 58.9583 21.8633 59.5141 22.2799C60.0711 22.6964 60.3484 23.4027 60.3484 24.3976C60.3484 24.8229 60.312 25.2256 60.2405 25.6057C60.1314 26.1941 59.9871 26.6897 59.8064 27.0924C59.6258 27.4951 59.4175 27.8238 59.1817 28.076C58.9458 28.3294 58.6434 28.5238 58.2721 28.6593C57.9007 28.7948 57.5143 28.8877 57.1116 28.9378C56.7089 28.9868 56.2083 29.0131 55.6112 29.0131C54.4256 29.0131 53.5524 28.8074 52.9904 28.3959C52.4296 27.9844 52.1486 27.2856 52.1486 26.2982C52.1486 25.9181 52.1887 25.5066 52.2703 25.0625C52.4057 24.3386 52.5889 23.7502 52.8197 23.2973C53.0506 22.8444 53.3655 22.4982 53.7632 22.2585C54.1609 22.0189 54.5962 21.8583 55.0667 21.7768C55.5384 21.6965 56.1494 21.6551 56.9009 21.6551ZM54.4432 25.1992C54.3616 25.5518 54.3215 25.9005 54.3215 26.2443C54.3215 26.6608 54.4394 26.9657 54.674 27.1601C54.9086 27.3546 55.29 27.4524 55.8144 27.4524C56.5107 27.4524 57.02 27.3057 57.3412 27.0108C57.6624 26.7173 57.9045 26.2029 58.0676 25.4702C58.1404 25.1089 58.1767 24.7601 58.1767 24.4252C58.1767 24.0087 58.0663 23.7038 57.8443 23.5093C57.6222 23.3149 57.2446 23.217 56.7102 23.217C56.0126 23.217 55.4995 23.3663 55.1696 23.6649C54.8396 23.9635 54.5975 24.4754 54.4432 25.1992Z" fill="#010101"/>
<path d="M69.173 21.7366L67.9373 27.5741C67.8382 28.0546 67.6613 28.3996 67.4078 28.6129C67.1544 28.8262 66.7793 28.9316 66.2812 28.9316H63.3757C62.6242 28.9316 62.0245 28.7647 61.5766 28.4297C61.1287 28.0948 60.9042 27.6155 60.9042 26.9908C60.9042 26.7649 60.9268 26.5517 60.9719 26.3522L61.9492 21.7366H64.0669L63.1975 25.809C63.1524 26.0536 63.1298 26.2481 63.1298 26.3923C63.1298 26.7361 63.2289 26.987 63.4284 27.1463C63.6278 27.3044 63.944 27.3834 64.3793 27.3834H65.3704C65.6866 27.3834 65.8773 27.2254 65.9413 26.908L67.0403 21.7354H69.173V21.7366Z" fill="#010101"/>
<path d="M68.7791 28.9316L69.7025 24.587C69.9283 23.4918 70.331 22.7428 70.9106 22.3401C71.489 21.9374 72.3634 21.7354 73.5302 21.7354H74.9553L74.6292 23.2961H73.7873C73.1262 23.2961 72.6495 23.4454 72.3546 23.7439C72.0598 24.0425 71.8415 24.5318 71.696 25.2105L70.8956 28.9303H68.7791V28.9316Z" fill="#010101"/>
<path d="M74.047 28.9316L75.5813 21.7366H77.699L76.1647 28.9316H74.047ZM77.8621 20.9764H75.7444L76.0706 19.4282H78.1883L77.8621 20.9764Z" fill="#010101"/>
<path d="M84.2015 28.9316H80.1292C79.2698 28.9316 78.64 28.7534 78.2423 28.3959C77.8434 28.0383 77.6451 27.4838 77.6451 26.7323C77.6451 26.2255 77.7267 25.6145 77.8898 24.8994C78.0253 24.311 78.1721 23.8293 78.3314 23.4541C78.4895 23.079 78.6714 22.7691 78.8746 22.5245C79.0779 22.2799 79.3426 22.0967 79.6688 21.975C79.9949 21.8533 80.345 21.7693 80.7213 21.7241C81.0964 21.6789 81.5882 21.6563 82.1942 21.6563C83.2806 21.6563 84.1036 21.8169 84.6644 22.1381C85.2252 22.4593 85.5062 23.0226 85.5062 23.828C85.5062 24.0814 85.4611 24.4114 85.3708 24.8191C85.2804 25.2444 85.1236 25.5543 84.9028 25.7487C84.6807 25.9432 84.3571 26.0411 83.9318 26.0411H79.872C79.8356 26.2129 79.818 26.3848 79.818 26.5567C79.818 26.8465 79.9084 27.061 80.089 27.2015C80.2697 27.342 80.5821 27.4123 81.0262 27.4123H84.5289L84.2015 28.9316ZM80.1831 24.5745H82.8165C83.0787 24.5745 83.2418 24.4302 83.3045 24.1404C83.3221 24.0501 83.3321 23.9861 83.3321 23.9509C83.3321 23.68 83.2004 23.483 82.9382 23.36C82.676 23.2383 82.3636 23.1769 82.001 23.1769C81.449 23.1769 81.0375 23.2785 80.7652 23.4817C80.4955 23.685 80.3011 24.0501 80.1831 24.5745Z" fill="#010101"/>
<path d="M85.3695 28.9316L86.2929 24.587C86.5187 23.4918 86.9214 22.7428 87.501 22.3401C88.0794 21.9374 88.9538 21.7354 90.1206 21.7354H91.5457L91.2195 23.2961H90.3777C89.7166 23.2961 89.2398 23.4454 88.945 23.7439C88.6502 24.0425 88.4306 24.5318 88.2864 25.2105L87.486 28.9303H85.3695V28.9316Z" fill="#010101"/>
</g>
<defs>
<clipPath id="clip0_30_242">
<rect width="99.5285" height="34" fill="white"/>
</clipPath>
</defs>
</svg>
