<svg width="22" height="30" viewBox="0 0 22 30" fill="none" xmlns="http://www.w3.org/2000/svg">
<path d="M16.625 4.6875H5.375C5.12636 4.6875 4.8879 4.78627 4.71209 4.96209C4.53627 5.1379 4.4375 5.37636 4.4375 5.625C4.4375 5.87364 4.53627 6.1121 4.71209 6.28791C4.8879 6.46373 5.12636 6.5625 5.375 6.5625H16.625C16.8736 6.5625 17.1121 6.46373 17.2879 6.28791C17.4637 6.1121 17.5625 5.87364 17.5625 5.625C17.5625 5.37636 17.4637 5.1379 17.2879 4.96209C17.1121 4.78627 16.8736 4.6875 16.625 4.6875ZM16.625 8.4375H5.375C5.12636 8.4375 4.8879 8.53627 4.71209 8.71209C4.53627 8.8879 4.4375 9.12636 4.4375 9.375C4.4375 9.62364 4.53627 9.8621 4.71209 10.0379C4.8879 10.2137 5.12636 10.3125 5.375 10.3125H16.625C16.8736 10.3125 17.1121 10.2137 17.2879 10.0379C17.4637 9.8621 17.5625 9.62364 17.5625 9.375C17.5625 9.12636 17.4637 8.8879 17.2879 8.71209C17.1121 8.53627 16.8736 8.4375 16.625 8.4375Z" fill="#FF7D00"/>
<path d="M1.625 29.0625C1.85288 29.0622 2.07284 28.9789 2.24375 28.8281L5.3 27.3281L7.6625 28.9031C7.81557 29.0039 7.99484 29.0577 8.17812 29.0577C8.36141 29.0577 8.54068 29.0039 8.69375 28.9031L11 27.4031L13.2969 28.9031C13.4499 29.0039 13.6292 29.0577 13.8125 29.0577C13.9958 29.0577 14.1751 29.0039 14.3281 28.9031L16.6906 27.3281L19.7469 28.8281C19.8819 28.95 20.0496 29.03 20.2293 29.0583C20.409 29.0866 20.5931 29.0619 20.7591 28.9874C20.9251 28.9129 21.0658 28.7916 21.1641 28.6385C21.2623 28.4854 21.3139 28.3069 21.3125 28.125V8.4375C21.3125 8.18886 21.2137 7.9504 21.0379 7.77459C20.8621 7.59877 20.6236 7.5 20.375 7.5C20.1264 7.5 19.8879 7.59877 19.7121 7.77459C19.5363 7.9504 19.4375 8.18886 19.4375 8.4375V26.5875L17.0375 25.4062C16.8893 25.3337 16.7245 25.3016 16.5599 25.3131C16.3953 25.3246 16.2367 25.3794 16.1 25.4719L13.8125 27L11.525 25.5C11.3729 25.4011 11.1954 25.3485 11.0141 25.3485C10.8327 25.3485 10.6552 25.4011 10.5031 25.5L8.1875 27L5.89062 25.4719C5.75396 25.3794 5.5953 25.3246 5.43069 25.3131C5.26608 25.3016 5.10134 25.3337 4.95312 25.4062L2.5625 26.5875V2.8125H19.4375V4.6875C19.4375 4.93614 19.5363 5.1746 19.7121 5.35041C19.8879 5.52623 20.1264 5.625 20.375 5.625C20.6236 5.625 20.8621 5.52623 21.0379 5.35041C21.2137 5.1746 21.3125 4.93614 21.3125 4.6875V1.875C21.3125 1.62636 21.2137 1.3879 21.0379 1.21209C20.8621 1.03627 20.6236 0.9375 20.375 0.9375H1.625C1.37636 0.9375 1.1379 1.03627 0.962088 1.21209C0.786272 1.3879 0.6875 1.62636 0.6875 1.875V28.125C0.6875 28.3736 0.786272 28.6121 0.962088 28.7879C1.1379 28.9637 1.37636 29.0625 1.625 29.0625Z" fill="#FF7D00"/>
</svg>
