<svg width="500" height="391" viewBox="0 0 500 391" fill="none" xmlns="http://www.w3.org/2000/svg">
<path opacity="0.7" d="M500 345.4H0V345.65H500V345.4Z" fill="white"/>
<path opacity="0.7" d="M237 300.8H43.91C42.3973 300.797 40.9476 300.195 39.8789 299.124C38.8102 298.053 38.21 296.603 38.21 295.09V23.66C38.2232 22.156 38.8292 20.718 39.8964 19.6582C40.9637 18.5985 42.406 18.0026 43.91 18H237C238.514 18 239.967 18.6016 241.038 19.6724C242.108 20.7433 242.71 22.1956 242.71 23.71V295.09C242.71 296.604 242.108 298.057 241.038 299.128C239.967 300.198 238.514 300.8 237 300.8ZM43.91 18.2C42.4637 18.2026 41.0774 18.7791 40.0557 19.8027C39.0339 20.8264 38.46 22.2136 38.46 23.66V295.09C38.46 296.536 39.0339 297.924 40.0557 298.947C41.0774 299.971 42.4637 300.547 43.91 300.55H237C238.447 300.547 239.835 299.971 240.858 298.948C241.881 297.924 242.457 296.537 242.46 295.09V23.66C242.457 22.2127 241.881 20.8255 240.858 19.8021C239.835 18.7787 238.447 18.2026 237 18.2H43.91Z" fill="white"/>
<path opacity="0.7" d="M453.31 300.8H260.21C258.696 300.797 257.246 300.195 256.175 299.125C255.105 298.054 254.503 296.604 254.5 295.09V23.66C254.516 22.1551 255.124 20.7171 256.193 19.6576C257.262 18.5981 258.705 18.0025 260.21 18H453.31C454.812 18.0052 456.252 18.6022 457.317 19.6617C458.382 20.7212 458.987 22.1578 459 23.66V295.09C459 296.601 458.401 298.05 457.335 299.121C456.268 300.191 454.821 300.795 453.31 300.8ZM260.21 18.2C258.763 18.2026 257.375 18.7787 256.352 19.8021C255.329 20.8255 254.753 22.2127 254.75 23.66V295.09C254.753 296.537 255.329 297.924 256.352 298.948C257.375 299.971 258.763 300.547 260.21 300.55H453.31C454.757 300.547 456.145 299.971 457.168 298.948C458.191 297.924 458.767 296.537 458.77 295.09V23.66C458.767 22.2127 458.191 20.8255 457.168 19.8021C456.145 18.7787 454.757 18.2026 453.31 18.2H260.21Z" fill="white"/>
<path opacity="0.7" d="M449.9 354.92H418.33V355.17H449.9V354.92Z" fill="white"/>
<path opacity="0.7" d="M335.34 352.21H301.93V352.46H335.34V352.21Z" fill="white"/>
<path opacity="0.7" d="M459.02 364.21H396.59V364.46H459.02V364.21Z" fill="white"/>
<path opacity="0.7" d="M71.69 362.53H52.46V362.78H71.69V362.53Z" fill="white"/>
<path opacity="0.7" d="M110.89 362.53H80.6V362.78H110.89V362.53Z" fill="white"/>
<path opacity="0.7" d="M244.14 358.31H189.58V358.56H244.14V358.31Z" fill="white"/>
<path d="M272.26 81.13L215.28 138.12V327.91H415.27V81.13H272.26Z" fill="white"/>
<path d="M415.27 328.45H215.27C215.127 328.45 214.989 328.393 214.888 328.292C214.787 328.191 214.73 328.053 214.73 327.91V138.12C214.73 138.049 214.744 137.979 214.772 137.914C214.799 137.848 214.839 137.789 214.89 137.74L271.89 80.74C271.992 80.6411 272.128 80.584 272.27 80.58H415.27C415.341 80.58 415.411 80.5939 415.477 80.6211C415.542 80.6482 415.602 80.688 415.652 80.7381C415.702 80.7883 415.742 80.8478 415.769 80.9133C415.796 80.9788 415.81 81.049 415.81 81.12V327.91C415.81 327.981 415.796 328.051 415.769 328.117C415.742 328.182 415.702 328.242 415.652 328.292C415.602 328.342 415.542 328.382 415.477 328.409C415.411 328.436 415.341 328.45 415.27 328.45ZM215.82 327.38H414.73V81.67H272.49L215.82 138.34V327.38Z" fill="#E0E0E0"/>
<path d="M215.28 138.12L275.07 145.83L272.26 81.13L215.28 138.12Z" fill="#E6E6E6"/>
<path d="M215.28 138.12H272.26V81.13L215.28 138.12Z" fill="white"/>
<path d="M272.26 138.65H215.26C215.153 138.651 215.049 138.619 214.96 138.561C214.871 138.502 214.801 138.418 214.76 138.32C214.719 138.223 214.708 138.115 214.729 138.011C214.751 137.908 214.803 137.813 214.88 137.74L271.88 80.74C271.957 80.6659 272.053 80.6153 272.158 80.594C272.262 80.5727 272.37 80.5818 272.47 80.62C272.567 80.6626 272.65 80.7324 272.709 80.8212C272.768 80.9099 272.799 81.0137 272.8 81.12V138.12C272.797 138.262 272.739 138.396 272.638 138.495C272.537 138.595 272.402 138.65 272.26 138.65ZM216.58 137.58H271.73V82.43L216.58 137.58Z" fill="#E0E0E0"/>
<path d="M326.84 220.19L360.84 186.19C361.6 185.43 362.202 184.529 362.613 183.536C363.025 182.543 363.236 181.479 363.236 180.405C363.236 179.331 363.025 178.267 362.613 177.274C362.202 176.282 361.6 175.38 360.84 174.62C360.08 173.86 359.178 173.258 358.186 172.847C357.193 172.435 356.129 172.224 355.055 172.224C353.981 172.224 352.917 172.435 351.924 172.847C350.932 173.258 350.03 173.86 349.27 174.62L315.27 208.62L281.27 174.62C279.736 173.086 277.655 172.224 275.485 172.224C273.315 172.224 271.234 173.086 269.7 174.62C268.166 176.154 267.304 178.235 267.304 180.405C267.304 182.575 268.166 184.656 269.7 186.19L303.7 220.19L269.7 254.19C268.166 255.724 267.304 257.805 267.304 259.975C267.304 262.145 268.166 264.226 269.7 265.76C271.234 267.294 273.315 268.156 275.485 268.156C277.655 268.156 279.736 267.294 281.27 265.76L315.27 231.76L349.27 265.76C350.804 267.294 352.885 268.156 355.055 268.156C357.225 268.156 359.306 267.294 360.84 265.76C362.374 264.226 363.236 262.145 363.236 259.975C363.236 257.805 362.374 255.724 360.84 254.19L326.84 220.19Z" fill="#F0F0F0"/>
<path d="M223 192C221.082 193.916 218.481 194.993 215.77 194.993C213.059 194.993 210.458 193.916 208.54 192L175.73 159.18L190.19 144.72L223 177.58C224.904 179.497 225.973 182.088 225.973 184.79C225.973 187.492 224.904 190.083 223 192Z" fill="#F0F0F0"/>
<path d="M175.725 159.244L190.186 144.783L191.522 146.12C192.908 147.506 193.686 149.385 193.686 151.345C193.686 153.305 192.908 155.185 191.522 156.571L187.513 160.58C186.127 161.966 184.247 162.745 182.287 162.745C180.327 162.745 178.448 161.966 177.062 160.58L175.725 159.244Z" fill="#E0E0E0"/>
<path d="M84.71 53.71C74.7877 63.6424 68.0327 76.2935 65.299 90.0642C62.5653 103.835 63.9755 118.107 69.3514 131.076C74.7274 144.046 83.8277 155.13 95.502 162.928C107.176 170.727 120.901 174.889 134.94 174.889C148.979 174.889 162.704 170.727 174.378 162.928C186.052 155.13 195.153 144.046 200.529 131.076C205.904 118.107 207.315 103.835 204.581 90.0642C201.847 76.2935 195.092 63.6424 185.17 53.71C178.576 47.1094 170.746 41.8732 162.127 38.3006C153.508 34.728 144.27 32.8892 134.94 32.8892C125.61 32.8892 116.372 34.728 107.753 38.3006C99.1341 41.8732 91.3039 47.1094 84.71 53.71ZM181.07 150.07C171.947 159.192 160.324 165.405 147.671 167.922C135.018 170.439 121.902 169.147 109.983 164.21C98.064 159.272 87.8765 150.912 80.709 140.185C73.5415 129.458 69.7159 116.846 69.7159 103.945C69.7159 91.0438 73.5415 78.4323 80.709 67.7053C87.8765 56.9783 98.064 48.6176 109.983 43.6805C121.902 38.7433 135.018 37.4515 147.671 39.9683C160.324 42.4851 171.947 48.6975 181.07 57.82C187.127 63.8772 191.932 71.0681 195.21 78.9823C198.489 86.8964 200.176 95.3788 200.176 103.945C200.176 112.511 198.489 120.994 195.21 128.908C191.932 136.822 187.127 144.013 181.07 150.07Z" fill="#E0E0E0"/>
<path d="M172.26 143.65C171.79 143.649 171.331 143.509 170.941 143.247C170.55 142.985 170.246 142.614 170.067 142.18C169.887 141.746 169.84 141.268 169.931 140.807C170.023 140.346 170.248 139.923 170.58 139.59C180.016 130.127 185.316 117.309 185.316 103.945C185.316 90.5812 180.016 77.7628 170.58 68.3C170.338 68.0845 170.142 67.8218 170.004 67.5279C169.867 67.234 169.792 66.9152 169.782 66.591C169.772 66.2668 169.829 65.9441 169.949 65.6427C170.069 65.3412 170.249 65.0674 170.478 64.8381C170.707 64.6087 170.981 64.4287 171.283 64.309C171.584 64.1893 171.907 64.1325 172.231 64.142C172.555 64.1516 172.874 64.2273 173.168 64.3645C173.462 64.5017 173.725 64.6976 173.94 64.94C184.267 75.2919 190.067 89.3175 190.067 103.94C190.067 118.562 184.267 132.588 173.94 142.94C173.72 143.163 173.459 143.34 173.171 143.462C172.882 143.584 172.573 143.648 172.26 143.65Z" fill="#E0E0E0"/>
<path d="M83.58 118.53C83.0449 118.531 82.5254 118.35 82.106 118.018C81.6866 117.685 81.3919 117.221 81.27 116.7C79.5403 109.375 79.3222 101.774 80.6289 94.3621C81.9356 86.9499 84.7397 79.8819 88.87 73.59C89.2174 73.0596 89.7613 72.6889 90.3821 72.5595C91.0028 72.4301 91.6496 72.5526 92.18 72.9C92.7104 73.2474 93.0811 73.7913 93.2105 74.4121C93.3399 75.0328 93.2174 75.6796 92.87 76.21C89.0884 81.9576 86.5175 88.4154 85.314 95.1894C84.1105 101.963 84.2997 108.912 85.87 115.61C85.9442 115.913 85.9575 116.229 85.909 116.537C85.8605 116.846 85.7512 117.142 85.5875 117.408C85.4238 117.674 85.2089 117.905 84.9553 118.087C84.7016 118.269 84.4143 118.4 84.11 118.47C83.9358 118.508 83.7582 118.528 83.58 118.53Z" fill="#E0E0E0"/>
<path d="M97.62 143.65C96.9894 143.648 96.3852 143.397 95.94 142.95C91.6563 138.683 88.1084 133.736 85.44 128.31C85.3021 128.03 85.2207 127.726 85.2003 127.415C85.18 127.104 85.2211 126.792 85.3214 126.496C85.4217 126.201 85.5792 125.928 85.7848 125.694C85.9905 125.46 86.2403 125.268 86.52 125.13C86.7997 124.992 87.1039 124.911 87.415 124.89C87.7262 124.87 88.0384 124.911 88.3337 125.011C88.629 125.112 88.9016 125.269 89.136 125.475C89.3705 125.68 89.5621 125.93 89.7 126.21C92.1465 131.165 95.3896 135.685 99.3 139.59C99.7446 140.036 99.9942 140.64 99.9942 141.27C99.9942 141.9 99.7446 142.504 99.3 142.95C98.853 143.394 98.25 143.645 97.62 143.65Z" fill="#E0E0E0"/>
<path d="M211.033 283.405L220.381 292.753L198.673 314.461C197.562 315.572 196.057 316.195 194.487 316.195C192.916 316.195 191.411 315.572 190.3 314.461L189.318 313.479C188.207 312.368 187.584 310.863 187.584 309.292C187.584 307.722 188.207 306.217 189.318 305.106L211.026 283.398L211.033 283.405Z" fill="#E0E0E0"/>
<path d="M211.047 283.425L220.381 292.759L219.935 293.204C218.928 294.211 217.562 294.777 216.138 294.777C214.714 294.777 213.348 294.211 212.341 293.204L210.587 291.451C209.58 290.444 209.015 289.078 209.015 287.654C209.015 286.229 209.58 284.863 210.587 283.856L211.033 283.411L211.047 283.425Z" fill="#E0E0E0"/>
<path d="M284.35 232.7L262.45 254.59C260.019 257.195 258.696 260.642 258.758 264.205C258.821 267.767 260.265 271.166 262.785 273.684C265.306 276.202 268.706 277.643 272.269 277.702C275.831 277.761 279.277 276.433 281.88 274L290.74 265.15C292.605 253.916 290.335 242.388 284.35 232.7Z" fill="#F0F0F0"/>
<path d="M292.6 253.82C291.973 244.755 288.671 236.079 283.113 228.89C277.555 221.702 269.989 216.323 261.374 213.434C252.758 210.545 243.48 210.276 234.711 212.662C225.943 215.047 218.079 219.978 212.114 226.833C206.149 233.688 202.351 242.158 201.2 251.172C200.049 260.186 201.597 269.338 205.648 277.472C209.699 285.606 216.071 292.356 223.959 296.868C231.847 301.38 240.895 303.451 249.96 302.82C262.111 301.974 273.429 296.337 281.425 287.148C289.421 277.96 293.441 265.971 292.6 253.82ZM204.69 259.94C204.111 251.617 206.013 243.31 210.155 236.068C214.297 228.826 220.494 222.976 227.961 219.256C235.429 215.536 243.832 214.114 252.107 215.17C260.383 216.227 268.16 219.713 274.454 225.189C280.748 230.665 285.277 237.884 287.468 245.934C289.659 253.984 289.413 262.503 286.763 270.413C284.112 278.323 279.175 285.27 272.576 290.375C265.977 295.479 258.013 298.512 249.69 299.09C238.531 299.865 227.522 296.175 219.083 288.834C210.644 281.492 205.467 271.099 204.69 259.94Z" fill="#E0E0E0"/>
<path d="M223.38 283.91C219.841 280.842 216.942 277.106 214.85 272.915C212.758 268.725 211.515 264.163 211.19 259.49C211.167 259.284 211.186 259.075 211.246 258.876C211.306 258.677 211.405 258.492 211.538 258.332C211.672 258.173 211.836 258.042 212.021 257.947C212.206 257.853 212.408 257.797 212.615 257.783C212.823 257.769 213.031 257.797 213.227 257.865C213.423 257.933 213.604 258.041 213.757 258.181C213.911 258.32 214.035 258.49 214.121 258.679C214.207 258.868 214.255 259.072 214.26 259.28C214.873 267.892 218.872 275.91 225.383 281.579C231.894 287.248 240.386 290.107 249 289.53C249.406 289.502 249.806 289.637 250.113 289.904C250.419 290.171 250.607 290.549 250.635 290.955C250.663 291.361 250.528 291.761 250.261 292.068C249.994 292.374 249.616 292.562 249.21 292.59C244.545 292.914 239.862 292.314 235.43 290.825C230.997 289.335 226.902 286.985 223.38 283.91Z" fill="#E0E0E0"/>
<path d="M278.64 249C278.412 248.803 278.248 248.541 278.17 248.25C276.966 243.97 274.902 239.98 272.105 236.524C269.308 233.069 265.835 230.219 261.9 228.15C261.556 227.952 261.301 227.629 261.19 227.247C261.078 226.866 261.119 226.457 261.302 226.104C261.485 225.752 261.797 225.484 262.173 225.357C262.549 225.229 262.96 225.252 263.32 225.42C267.627 227.685 271.428 230.804 274.49 234.586C277.552 238.369 279.812 242.735 281.13 247.42C281.185 247.614 281.2 247.818 281.176 248.018C281.152 248.218 281.088 248.412 280.989 248.588C280.889 248.763 280.756 248.918 280.596 249.042C280.437 249.166 280.255 249.257 280.06 249.31C279.816 249.377 279.559 249.384 279.312 249.33C279.064 249.276 278.834 249.163 278.64 249Z" fill="#E0E0E0"/>
<path d="M243.39 224.13C243.084 223.859 242.898 223.478 242.87 223.07C242.842 222.665 242.976 222.265 243.242 221.958C243.508 221.65 243.885 221.461 244.29 221.43C248.19 221.159 252.109 221.527 255.89 222.52C256.087 222.572 256.272 222.662 256.434 222.785C256.596 222.909 256.732 223.063 256.835 223.239C256.938 223.415 257.005 223.609 257.032 223.811C257.059 224.013 257.047 224.218 256.995 224.415C256.943 224.612 256.853 224.797 256.73 224.959C256.606 225.121 256.452 225.257 256.276 225.36C256.1 225.463 255.906 225.53 255.704 225.557C255.502 225.585 255.297 225.572 255.1 225.52C251.649 224.607 248.071 224.269 244.51 224.52C244.1 224.54 243.699 224.401 243.39 224.13Z" fill="#E0E0E0"/>
<path d="M250 390.56C357.082 390.56 443.89 385.492 443.89 379.24C443.89 372.988 357.082 367.92 250 367.92C142.918 367.92 56.11 372.988 56.11 379.24C56.11 385.492 142.918 390.56 250 390.56Z" fill="#F5F5F5"/>
<path d="M137.82 108.88C129.76 116.99 143.46 129.58 134.41 135.36C141.8 139.07 167.7 143.78 174.41 129.19C169.52 125.39 172.92 116.05 168.41 107.08C161.66 93.78 129.76 99.67 137.82 108.88Z" fill="#263238"/>
<path d="M138.55 108.67C136.04 108.25 127.55 112.47 133.87 123.8C138.96 132.96 134.72 133.61 134.72 133.61C134.72 133.61 139.72 133.75 136.72 126.94C133.54 119.67 132.05 112.13 138.55 108.67Z" fill="#263238"/>
<path d="M198 180.61C197.691 180.044 197.172 179.622 196.555 179.435C195.937 179.248 195.271 179.311 194.7 179.61L194.11 179.92C193.92 180.02 193.56 180.26 193.27 180.43C192.98 180.6 192.64 180.79 192.32 180.95C191.689 181.267 191.038 181.541 190.37 181.77C189.134 182.218 187.834 182.464 186.52 182.5C185.313 182.514 184.112 182.321 182.97 181.93C182.244 181.661 181.545 181.326 180.88 180.93C180.02 179.03 179.2 177.11 178.5 175.13C177.65 172.82 176.9 170.46 176.24 168.07C175.58 165.68 175 163.26 174.52 160.83C174.27 159.62 174.05 158.4 173.85 157.19L173.58 155.38C173.49 154.8 173.41 154.14 173.36 153.68V153.48C173.227 152.154 172.573 150.935 171.542 150.091C170.511 149.247 169.186 148.847 167.86 148.98C166.534 149.113 165.315 149.767 164.471 150.798C163.627 151.83 163.227 153.154 163.36 154.48C163.43 155.33 163.49 155.98 163.58 156.69C163.67 157.4 163.77 158.08 163.87 158.77C164.09 160.15 164.34 161.51 164.62 162.87C165.176 165.572 165.877 168.243 166.72 170.87C167.11 172.19 167.59 173.49 168.04 174.8C168.49 176.11 169.04 177.39 169.61 178.66C170.701 181.226 171.94 183.727 173.32 186.15L173.44 186.37C173.799 187.021 174.337 187.555 174.99 187.91C176.88 188.94 178.922 189.663 181.04 190.05C183.215 190.434 185.444 190.387 187.6 189.91C190.644 189.204 193.439 187.687 195.69 185.52C196.06 185.18 196.41 184.83 196.69 184.46C196.97 184.09 197.31 183.74 197.69 183.22C197.983 182.859 198.168 182.422 198.223 181.96C198.278 181.498 198.2 181.03 198 180.61Z" fill="#FF8B7B"/>
<path d="M204.65 171.25H204.36C203.403 171.23 202.454 171.43 201.587 171.836C200.72 172.242 199.958 172.842 199.36 173.59L194.53 179.65V183.79C198.41 185.33 203.33 181.18 203.33 181.18L205.82 180.55C206.658 180.341 207.389 179.828 207.871 179.112C208.353 178.395 208.552 177.525 208.43 176.67L208.07 174.24C207.953 173.415 207.543 172.659 206.915 172.11C206.287 171.561 205.484 171.256 204.65 171.25Z" fill="#FF8B7B"/>
<path d="M173.23 147.88C176.46 151.2 176.66 161.11 176.66 161.11L163.74 171.51C163.74 171.51 158.43 156.81 161.37 151.62C163.86 147.22 169.11 143.65 173.23 147.88Z" fill="#E83330"/>
<g opacity="0.2">
<path d="M173.23 147.88C176.46 151.2 176.66 161.11 176.66 161.11L163.74 171.51C163.74 171.51 158.43 156.81 161.37 151.62C163.86 147.22 169.11 143.65 173.23 147.88Z" fill="white"/>
</g>
<path d="M151.85 370.67L158.99 371.45L159.97 352.05L152.83 351.26L151.85 370.67Z" fill="#FF8B7B"/>
<path d="M160.16 366.79H151.77C151.601 366.784 151.436 366.845 151.311 366.959C151.186 367.073 151.11 367.231 151.1 367.4L150.54 375.33C150.54 375.745 150.702 376.143 150.991 376.44C151.281 376.737 151.675 376.909 152.09 376.92C155.63 376.92 155.67 376.92 160.09 376.92H172C175.66 376.92 175.67 373.21 174.09 372.87C166.98 371.37 164.21 369.29 161.7 367.31C161.259 366.97 160.717 366.787 160.16 366.79Z" fill="#263238"/>
<path opacity="0.2" d="M159.97 352.06L159.46 362.06H152.28L152.83 351.27L159.97 352.06Z" fill="black"/>
<path d="M163.82 197.27C163.82 197.27 170 249 170 272C165.13 304 161 360.16 161 360.16L151.12 359.9C151.12 359.9 146.63 298.74 150.79 272.33C145.46 248.67 138.88 194.07 138.88 194.07L163.82 197.27Z" fill="#263238"/>
<path opacity="0.2" d="M144.77 211.67C143.592 212.188 142.45 212.783 141.35 213.45C142.71 223.66 144.5 236.51 146.4 248.37C149.64 238.61 147.89 217.15 144.77 211.67Z" fill="black"/>
<path d="M74.53 352.66L80.42 356.77L90.58 340.21L84.69 336.1L74.53 352.66Z" fill="#FF8B7B"/>
<path d="M81.91 354.6L76.91 347.87C76.8148 347.732 76.6693 347.637 76.5047 347.605C76.3402 347.573 76.1697 347.607 76.03 347.7L69.33 352C68.9958 352.246 68.7717 352.613 68.7062 353.023C68.6407 353.433 68.7391 353.852 68.98 354.19C71.07 357.04 71.11 357.06 73.74 360.6C75.37 362.77 78.62 367.14 80.86 370.15C83.1 373.16 86.03 370.88 85.35 369.4C82.35 362.81 82.35 359.4 82.41 356.16C82.4202 355.599 82.2444 355.05 81.91 354.6Z" fill="#263238"/>
<path opacity="0.2" d="M90.57 340.21L85.34 348.75L79.03 345.31L84.69 336.1L90.57 340.21Z" fill="black"/>
<path d="M110.66 359.6C105.55 359.6 94.91 359.6 94.73 352.08C94.59 346.18 101.89 343.73 108.19 343.43C108.888 343.396 109.586 343.501 110.244 343.737C110.901 343.973 111.506 344.336 112.023 344.806C112.541 345.276 112.96 345.843 113.258 346.475C113.556 347.107 113.727 347.792 113.76 348.49V348.89C120.9 348.55 125.52 346.99 127.21 344.33C131.02 338.33 123.72 322.84 116.67 307.87C108.37 290.26 98.97 270.31 98.79 251.2C98.7834 250.501 98.9145 249.808 99.1758 249.16C99.437 248.512 99.8234 247.922 100.313 247.424C100.802 246.925 101.385 246.528 102.028 246.254C102.671 245.981 103.361 245.837 104.06 245.83C105.462 245.833 106.806 246.387 107.801 247.373C108.797 248.36 109.364 249.699 109.38 251.1C109.54 267.88 118.38 286.71 126.24 303.33C135.24 322.51 143.09 339.08 136.14 350.03C132.11 356.47 123.76 359.6 110.66 359.6Z" fill="#E83330"/>
<path d="M155.91 196.25C155.91 196.25 138.85 255.37 130.52 276.81C114.38 304.87 87.6 347.81 87.6 347.81L79.05 342.81C79.05 342.81 99.05 293.21 112.5 270.11C116.11 246.11 129.76 192.85 129.76 192.85L155.91 196.25Z" fill="#263238"/>
<path d="M83.45 359.43C83.7893 359.992 84.3121 360.419 84.93 360.64C85.1109 360.683 85.3003 360.676 85.477 360.617C85.6536 360.559 85.8105 360.453 85.93 360.31C86.0132 360.234 86.0766 360.138 86.1149 360.032C86.1532 359.926 86.1652 359.812 86.15 359.7C86.03 358.5 82.93 356.94 82.31 356.64C82.2739 356.625 82.2336 356.624 82.1968 356.637C82.1599 356.65 82.1291 356.676 82.11 356.71C82.0859 356.747 82.0731 356.791 82.0731 356.835C82.0731 356.879 82.0859 356.923 82.11 356.96C82.4772 357.824 82.9259 358.651 83.45 359.43ZM85.58 359.43C85.668 359.54 85.7265 359.671 85.75 359.81C85.7548 359.849 85.75 359.888 85.7361 359.925C85.7222 359.962 85.6995 359.994 85.67 360.02C85.5893 360.112 85.4857 360.181 85.3698 360.219C85.2538 360.258 85.1296 360.265 85.01 360.24C84.35 360.11 83.48 359.04 82.64 357.35C83.7291 357.857 84.7234 358.547 85.58 359.39V359.43Z" fill="#308E87"/>
<path d="M82.06 357L82.12 357.05C83.12 357.6 85.72 358.05 86.29 357.22C86.3857 357.069 86.4322 356.891 86.4233 356.712C86.4143 356.533 86.3503 356.361 86.24 356.22C85.24 354.45 82.24 356.53 82.11 356.62C82.0802 356.644 82.0565 356.674 82.0408 356.709C82.0252 356.744 82.018 356.782 82.02 356.82C82.016 356.883 82.0298 356.945 82.06 357ZM85.86 356.42C85.8891 356.455 85.9159 356.492 85.94 356.53C86.05 356.72 86.07 356.86 86.01 356.94C85.68 357.42 83.76 357.25 82.64 356.81C83.39 356.36 85.14 355.45 85.86 356.42Z" fill="#308E87"/>
<path d="M165 368.44C165.655 368.5 166.312 368.334 166.86 367.97C166.999 367.848 167.102 367.69 167.156 367.514C167.211 367.337 167.216 367.149 167.17 366.97C167.156 366.857 167.116 366.749 167.053 366.654C166.991 366.558 166.908 366.478 166.81 366.42C165.81 365.81 162.68 367.36 162.07 367.68C162.036 367.699 162.009 367.729 161.994 367.766C161.98 367.802 161.978 367.843 161.99 367.88C162.005 367.922 162.031 367.959 162.064 367.989C162.097 368.019 162.137 368.04 162.18 368.05C163.104 368.276 164.049 368.407 165 368.44ZM166.24 366.71C166.382 366.701 166.524 366.732 166.65 366.8C166.7 366.8 166.75 366.87 166.77 366.99C166.796 367.11 166.79 367.234 166.751 367.35C166.712 367.467 166.643 367.57 166.55 367.65C166.06 368.1 164.68 368.16 162.82 367.83C163.871 367.267 165.011 366.888 166.19 366.71H166.24Z" fill="#308E87"/>
<path d="M162.18 368.1H162.25C163.25 367.64 165.2 365.81 164.88 364.86C164.813 364.703 164.702 364.569 164.56 364.475C164.417 364.38 164.251 364.33 164.08 364.33C162.08 364.1 161.94 367.72 161.93 367.87C161.93 367.91 161.94 367.949 161.96 367.984C161.979 368.019 162.006 368.048 162.04 368.07C162.083 368.094 162.131 368.104 162.18 368.1ZM163.98 364.7H164.12C164.33 364.7 164.46 364.79 164.49 364.89C164.68 365.44 163.4 366.89 162.37 367.52C162.46 366.65 162.78 364.7 164 364.7H163.98Z" fill="#308E87"/>
<path d="M129.76 192.9L163.82 197.26C171.5 171.4 174.03 158.91 174.71 152.9C174.89 151.389 174.537 149.863 173.712 148.585C172.886 147.307 171.641 146.358 170.19 145.9C168.19 145.26 165.61 144.5 163.05 143.9C162.18 143.67 161.29 143.46 160.42 143.26C155.321 142.225 150.154 141.557 144.96 141.26C144.19 141.19 143.43 141.15 142.66 141.11C141.15 141.03 139.66 141.01 138.3 141.01C137.279 141.009 136.269 141.22 135.335 141.631C134.4 142.041 133.562 142.642 132.872 143.395C132.182 144.147 131.657 145.035 131.33 146.002C131.002 146.969 130.88 147.993 130.97 149.01C131.24 152.01 131.45 154.8 131.61 157.36C131.99 163.36 132.11 168.16 132.02 172.36C131.816 179.256 131.06 186.125 129.76 192.9Z" fill="#E83330"/>
<g opacity="0.3">
<path d="M129.76 192.9L163.82 197.26C171.5 171.4 174.03 158.91 174.71 152.9C174.89 151.389 174.537 149.863 173.712 148.585C172.886 147.307 171.641 146.358 170.19 145.9C168.19 145.26 165.61 144.5 163.05 143.9C162.18 143.67 161.29 143.46 160.42 143.26C155.321 142.225 150.154 141.557 144.96 141.26C144.19 141.19 143.43 141.15 142.66 141.11C141.15 141.03 139.66 141.01 138.3 141.01C137.279 141.009 136.269 141.22 135.335 141.631C134.4 142.041 133.562 142.642 132.872 143.395C132.182 144.147 131.657 145.035 131.33 146.002C131.002 146.969 130.88 147.993 130.97 149.01C131.24 152.01 131.45 154.8 131.61 157.36C131.99 163.36 132.11 168.16 132.02 172.36C131.816 179.256 131.06 186.125 129.76 192.9Z" fill="white"/>
</g>
<path opacity="0.3" d="M132 172.32C136.5 166.5 138.13 159.84 136.67 156.17L131.59 157.31C132 163.29 132.11 168.11 132 172.32Z" fill="#308E87"/>
<path d="M163.05 143.84C162.17 143.61 161.29 143.4 160.42 143.2C155.317 142.17 150.147 141.502 144.95 141.2C144.18 141.14 143.42 141.1 142.66 141.06L141.33 141L142.33 142.75C142.47 142.99 145.87 148.55 154.33 154.53L156.14 155.79L157.88 154.46C159.556 153.258 160.925 151.678 161.877 149.849C162.829 148.02 163.337 145.992 163.36 143.93L163.05 143.84Z" fill="white"/>
<path d="M148.71 130.92C148.39 135.13 147.4 139.42 144.95 141.22C144.95 141.22 148.07 146.41 156.15 152.08C161.21 148.21 160.42 143.2 160.42 143.2C155.04 141.2 155.42 137.47 157.69 131.52L153.49 129.26C153.128 128.861 152.656 128.577 152.133 128.443C151.611 128.31 151.061 128.333 150.551 128.51C150.042 128.687 149.596 129.01 149.268 129.438C148.941 129.867 148.747 130.382 148.71 130.92Z" fill="#FF8B7B"/>
<path opacity="0.2" d="M153.49 129.26C153.15 128.884 152.712 128.609 152.226 128.467C151.739 128.324 151.222 128.318 150.733 128.451C150.243 128.583 149.8 128.849 149.452 129.217C149.104 129.586 148.864 130.044 148.76 130.54C150.355 133.757 152.928 136.386 156.11 138.05C156.224 135.795 156.756 133.58 157.68 131.52L153.49 129.26Z" fill="black"/>
<path d="M142.17 117.72C144.26 125.85 144.97 129.33 149.94 132.72C157.41 137.86 166.94 133.52 167.31 124.94C167.66 117.21 164.19 105.21 155.51 103.49C153.594 103.098 151.609 103.204 149.746 103.797C147.882 104.39 146.201 105.45 144.863 106.877C143.526 108.304 142.576 110.05 142.104 111.948C141.633 113.846 141.656 115.833 142.17 117.72Z" fill="#FF8B7B"/>
<path d="M162.86 105.17C157.963 109.523 152.155 112.724 145.86 114.54C145.86 114.54 152.07 127.75 140.45 124.42C137.08 113.17 140.45 107.33 143.45 104.58C152.69 101.58 159.19 100.58 162.86 105.17Z" fill="#263238"/>
<path d="M141.78 125.73C142.461 127.203 143.698 128.346 145.22 128.91C147.22 129.63 148.41 127.91 147.98 125.91C147.59 124.12 146.07 121.58 143.98 121.71C143.528 121.749 143.092 121.898 142.712 122.146C142.332 122.394 142.019 122.732 141.802 123.13C141.584 123.528 141.468 123.974 141.464 124.427C141.46 124.881 141.569 125.328 141.78 125.73Z" fill="#FF8B7B"/>
<path d="M129.51 190.84L127.58 193.69C127.43 193.91 127.68 194.19 128.07 194.24L163.79 198.82C164.1 198.82 164.37 198.74 164.42 198.55L165.12 195.55C165.12 195.34 164.92 195.13 164.59 195.08L130.09 190.66C129.986 190.636 129.877 190.64 129.776 190.671C129.674 190.703 129.582 190.761 129.51 190.84Z" fill="#E83330"/>
<path d="M133.64 195.29L132.72 195.17C132.54 195.17 132.41 195.03 132.44 194.92L133.38 191.01C133.416 190.944 133.473 190.892 133.542 190.863C133.611 190.834 133.688 190.829 133.76 190.85L134.69 190.97C134.87 190.97 135 191.1 134.97 191.22L134.03 195.12C134 195.24 133.83 195.31 133.64 195.29Z" fill="#263238"/>
<path d="M161.15 198.81L160.23 198.7C160.05 198.7 159.92 198.56 159.95 198.44L160.89 194.54C160.89 194.43 161.09 194.35 161.27 194.37L162.2 194.49C162.38 194.49 162.51 194.63 162.48 194.74L161.54 198.65C161.51 198.76 161.34 198.84 161.15 198.81Z" fill="#263238"/>
<path d="M147.4 197.05L146.48 196.93C146.29 196.93 146.16 196.8 146.19 196.68L147.13 192.78C147.13 192.66 147.33 192.59 147.52 192.61L148.44 192.73C148.62 192.73 148.75 192.87 148.73 192.98L147.78 196.89C147.76 197 147.58 197.07 147.4 197.05Z" fill="#263238"/>
<path d="M156.1 117.37C156.22 118.04 156.68 118.52 157.1 118.43C157.52 118.34 157.79 117.74 157.66 117.07C157.53 116.4 157.07 115.92 156.66 116.01C156.25 116.1 156 116.7 156.1 117.37Z" fill="#263238"/>
<path d="M163.66 115.92C163.79 116.59 164.25 117.06 164.66 116.98C165.07 116.9 165.35 116.28 165.22 115.61C165.09 114.94 164.63 114.47 164.22 114.55C163.81 114.63 163.54 115.25 163.66 115.92Z" fill="#263238"/>
<path d="M164 114.63L165.52 113.85C165.52 113.85 165 115.27 164 114.63Z" fill="#263238"/>
<path d="M161.66 117.42C162.554 118.829 163.633 120.11 164.87 121.23C164.577 121.541 164.219 121.784 163.822 121.941C163.424 122.099 162.997 122.166 162.57 122.14L161.66 117.42Z" fill="#FF5652"/>
<path d="M156.94 124.84C156.91 124.875 156.893 124.919 156.891 124.965C156.89 125.012 156.905 125.057 156.933 125.093C156.961 125.13 157.001 125.155 157.046 125.166C157.091 125.176 157.139 125.17 157.18 125.15C157.936 124.765 158.772 124.564 159.62 124.564C160.468 124.564 161.304 124.765 162.06 125.15C162.105 125.176 162.159 125.183 162.209 125.17C162.26 125.157 162.303 125.125 162.33 125.08C162.357 125.034 162.366 124.98 162.355 124.928C162.344 124.876 162.314 124.83 162.27 124.8C161.454 124.382 160.551 124.164 159.635 124.164C158.719 124.164 157.816 124.382 157 124.8C157 124.8 157 124.82 156.94 124.84Z" fill="#263238"/>
<path d="M153.49 115.31C153.552 115.272 153.601 115.216 153.63 115.15C153.838 114.694 154.152 114.294 154.545 113.983C154.938 113.672 155.399 113.458 155.89 113.36C155.943 113.354 155.994 113.337 156.04 113.311C156.086 113.285 156.127 113.25 156.159 113.208C156.192 113.166 156.216 113.118 156.23 113.067C156.243 113.016 156.247 112.963 156.24 112.91C156.235 112.858 156.22 112.807 156.195 112.761C156.17 112.715 156.136 112.674 156.094 112.641C156.053 112.609 156.006 112.585 155.956 112.571C155.905 112.557 155.852 112.553 155.8 112.56C155.175 112.677 154.587 112.941 154.084 113.33C153.581 113.72 153.179 114.224 152.91 114.8C152.871 114.879 152.859 114.968 152.877 115.055C152.894 115.141 152.939 115.219 153.005 115.277C153.071 115.335 153.154 115.37 153.242 115.376C153.33 115.382 153.417 115.359 153.49 115.31Z" fill="#263238"/>
<path d="M165.91 110.24L165.96 110.19C165.99 110.147 166.012 110.098 166.024 110.046C166.035 109.995 166.036 109.941 166.027 109.889C166.018 109.837 165.998 109.787 165.969 109.743C165.941 109.698 165.904 109.66 165.86 109.63C165.343 109.258 164.745 109.016 164.115 108.922C163.486 108.828 162.843 108.885 162.24 109.09C162.144 109.132 162.067 109.209 162.026 109.306C161.985 109.403 161.983 109.512 162.02 109.61C162.06 109.708 162.137 109.786 162.235 109.827C162.332 109.869 162.442 109.87 162.54 109.83C163.019 109.673 163.528 109.633 164.026 109.713C164.523 109.793 164.994 109.991 165.4 110.29C165.477 110.345 165.571 110.37 165.664 110.361C165.758 110.351 165.845 110.309 165.91 110.24Z" fill="#263238"/>
<path d="M156.47 116.08L157.99 115.31C157.99 115.31 157.4 116.72 156.47 116.08Z" fill="#263238"/>
<path d="M104.11 256.47C102.708 256.47 101.362 255.917 100.366 254.93C99.3695 253.943 98.8032 252.602 98.79 251.2C98.65 237 103.38 225.01 112.47 216.53C123.66 206.09 141.11 201.24 161.63 202.86C176.02 204 185.25 200.5 195.93 196.43C197.69 195.77 199.46 195.09 201.28 194.43C202.606 193.947 204.07 194.011 205.349 194.608C206.628 195.204 207.617 196.284 208.1 197.61C208.583 198.936 208.519 200.4 207.922 201.679C207.326 202.958 206.246 203.947 204.92 204.43C203.15 205.07 201.43 205.73 199.72 206.38C188.83 210.52 177.58 214.79 160.79 213.47C143.29 212.08 128.71 215.93 119.73 224.31C112.73 230.79 109.32 239.8 109.43 251.1C109.437 251.799 109.306 252.492 109.044 253.14C108.783 253.788 108.397 254.378 107.907 254.877C107.418 255.375 106.835 255.773 106.192 256.046C105.549 256.319 104.859 256.464 104.16 256.47H104.11Z" fill="#E83330"/>
<path d="M227.145 211.941L205.746 219.781C203.96 220.435 201.988 220.353 200.263 219.553C198.538 218.753 197.201 217.3 196.547 215.515L187.71 191.393C187.056 189.607 187.138 187.635 187.938 185.91C188.738 184.185 190.191 182.848 191.976 182.194L213.375 174.354L227.135 211.913L227.145 211.941Z" fill="#E83330"/>
<path opacity="0.7" d="M227.145 211.941L205.746 219.781C203.96 220.435 201.988 220.353 200.263 219.553C198.538 218.753 197.201 217.3 196.547 215.515L187.71 191.393C187.056 189.607 187.138 187.635 187.938 185.91C188.738 184.185 190.191 182.848 191.976 182.194L213.375 174.354L227.135 211.913L227.145 211.941Z" fill="white"/>
<path opacity="0.2" d="M203.84 177.84L213.39 174.35L227.15 211.93L217.6 215.43C216.964 214.815 216.478 214.063 216.18 213.23L204.18 180.44C203.866 179.612 203.75 178.721 203.84 177.84Z" fill="#E83330"/>
<path d="M234.836 183.71L233.897 184.054L236.188 190.308L237.127 189.964L234.836 183.71Z" fill="#E83330"/>
<path d="M232.45 180.16L229.08 170.94C228.502 169.376 227.459 168.028 226.091 167.075C224.724 166.122 223.097 165.611 221.43 165.61C220.482 165.607 219.54 165.773 218.65 166.1L212.57 168.33L212.22 167.39L218.31 165.16C219.309 164.794 220.366 164.607 221.43 164.61C223.303 164.614 225.13 165.191 226.665 166.264C228.201 167.336 229.371 168.853 230.02 170.61L233.39 179.83L232.45 180.16Z" fill="#E83330"/>
<path d="M227.311 214.635L236.241 211.405C239.159 210.349 240.669 207.129 239.613 204.211L227.492 170.7C226.437 167.782 223.216 166.273 220.299 167.328L211.369 170.558C208.451 171.613 206.941 174.834 207.997 177.752L220.118 211.263C221.173 214.18 224.394 215.69 227.311 214.635Z" fill="#E83330"/>
<path d="M222.2 180.87C222.404 181.428 222.438 182.033 222.297 182.61C222.157 183.187 221.848 183.709 221.411 184.111C220.974 184.512 220.427 184.775 219.84 184.865C219.254 184.956 218.653 184.87 218.115 184.619C217.577 184.369 217.125 183.964 216.817 183.456C216.51 182.949 216.359 182.361 216.385 181.768C216.412 181.175 216.613 180.603 216.965 180.124C217.316 179.646 217.802 179.282 218.36 179.08C219.107 178.809 219.93 178.846 220.65 179.181C221.37 179.517 221.927 180.124 222.2 180.87Z" fill="#263238"/>
<path d="M229.67 201.26C229.873 201.817 229.906 202.422 229.766 202.998C229.625 203.575 229.317 204.096 228.88 204.497C228.443 204.898 227.897 205.161 227.31 205.252C226.724 205.343 226.124 205.258 225.587 205.007C225.049 204.757 224.597 204.353 224.289 203.847C223.98 203.34 223.829 202.753 223.854 202.161C223.879 201.568 224.079 200.996 224.429 200.517C224.779 200.038 225.263 199.674 225.82 199.47C226.19 199.334 226.584 199.273 226.978 199.29C227.372 199.306 227.759 199.4 228.116 199.567C228.474 199.733 228.795 199.968 229.062 200.259C229.328 200.549 229.535 200.889 229.67 201.26Z" fill="#263238"/>
<path d="M142 198.85L141.92 198.76C140.36 197.2 138.71 195.5 137.22 193.76C135.73 192.02 134.27 190.28 132.94 188.48C131.636 186.724 130.45 184.883 129.39 182.97C128.631 181.602 127.986 180.173 127.46 178.7C128.06 176.7 128.7 174.7 129.46 172.78C130.33 170.47 131.31 168.2 132.38 165.96C133.45 163.72 134.59 161.52 135.82 159.37C136.42 158.29 137.05 157.22 137.7 156.17L138.7 154.63C139.01 154.13 139.38 153.63 139.64 153.2L139.75 153.04C140.461 151.956 140.723 150.639 140.482 149.366C140.241 148.093 139.514 146.963 138.456 146.215C137.398 145.467 136.091 145.158 134.81 145.355C133.529 145.552 132.375 146.239 131.59 147.27C131.09 147.95 130.71 148.49 130.31 149.08C129.91 149.67 129.55 150.26 129.17 150.85C128.44 152.03 127.73 153.22 127.05 154.43C125.697 156.844 124.472 159.327 123.38 161.87C122.82 163.13 122.38 164.42 121.81 165.71C121.24 167 120.86 168.31 120.46 169.65C119.611 172.305 118.913 175.006 118.37 177.74V177.97C118.215 178.7 118.267 179.458 118.52 180.16C119.489 182.724 120.776 185.156 122.35 187.4C123.833 189.53 125.485 191.536 127.29 193.4C129.049 195.196 130.916 196.882 132.88 198.45C134.844 200.015 136.904 201.455 139.05 202.76C139.571 203.065 140.185 203.169 140.778 203.053C141.37 202.937 141.9 202.61 142.268 202.131C142.636 201.653 142.817 201.057 142.777 200.455C142.736 199.852 142.478 199.285 142.05 198.86L142 198.85Z" fill="#FF8B7B"/>
<path d="M153.62 203.82L153.49 203.56C153.075 202.693 152.464 201.935 151.706 201.345C150.947 200.755 150.062 200.349 149.12 200.16L141.53 198.62L137.82 200.47C138.22 204.63 144.16 207.12 144.16 207.12L145.85 209.05C146.42 209.697 147.209 210.111 148.065 210.213C148.921 210.314 149.785 210.096 150.49 209.6L152.49 208.17C153.162 207.695 153.645 206.998 153.851 206.202C154.058 205.405 153.976 204.562 153.62 203.82Z" fill="#FF8B7B"/>
<path d="M135.19 141.65C130.98 143.58 126.5 150.26 126.5 150.26L135.5 167.11C135.5 167.11 145.73 155.32 144.87 149.42C144.17 144.41 140.55 139.19 135.19 141.65Z" fill="#E83330"/>
<g opacity="0.3">
<path d="M135.19 141.65C130.98 143.58 126.5 150.26 126.5 150.26L135.5 167.11C135.5 167.11 145.73 155.32 144.87 149.42C144.17 144.41 140.55 139.19 135.19 141.65Z" fill="white"/>
</g>
<path d="M423.29 362.43C414.48 362.43 405.82 360.62 401.62 355.14C381.74 329.14 381.92 276.84 382.09 226.23C382.19 198.98 384.34 173.23 381.31 153.23C379.53 141.44 373.31 133.35 367.03 129.17C357.71 123.01 344.91 126.32 339.44 127.73C338.759 127.92 338.046 127.973 337.344 127.885C336.642 127.796 335.965 127.569 335.352 127.216C334.739 126.862 334.203 126.39 333.774 125.827C333.346 125.264 333.034 124.622 332.857 123.937C332.681 123.252 332.642 122.538 332.744 121.838C332.846 121.138 333.087 120.465 333.452 119.86C333.818 119.254 334.3 118.727 334.871 118.31C335.443 117.892 336.092 117.593 336.78 117.43C343.61 115.66 359.63 111.53 372.89 120.29C381.84 126.2 389.58 136.75 391.83 151.64C394.98 172.44 392.83 198.57 392.73 226.23C392.56 275.06 392.39 325.55 410.07 348.64C411.5 350.5 417.07 352.17 426.32 351.69C427.14 351.69 427.94 351.6 428.73 351.53C428.372 350.806 428.187 350.008 428.19 349.2C428.19 347.789 428.75 346.436 429.748 345.438C430.746 344.441 432.099 343.88 433.51 343.88C445.14 343.88 451.26 344.88 452.44 350.2C452.78 351.73 452.96 355.57 447.34 358.2C443.14 360.17 433.12 362.43 423.29 362.43Z" fill="#E83330"/>
<path d="M306.87 367.02L296.02 362.75L301.74 343.94L312.6 348.2L306.87 367.02Z" fill="#FFC3BD"/>
<path d="M295.76 361.6L308 366.4C308.155 366.463 308.284 366.576 308.368 366.721C308.451 366.866 308.483 367.035 308.46 367.2L307.26 374.82C307.229 375.004 307.157 375.179 307.049 375.332C306.941 375.484 306.8 375.611 306.637 375.702C306.474 375.793 306.293 375.847 306.106 375.858C305.92 375.87 305.733 375.84 305.56 375.77C302.49 374.5 297.68 372.4 293.79 370.87C291.4 369.93 286.85 368.43 283.54 367.13C280.23 365.83 281.09 362.39 282.54 362.63C289.13 363.69 291.65 362.56 294.28 361.58C294.758 361.397 295.287 361.404 295.76 361.6Z" fill="#263238"/>
<path opacity="0.2" d="M312.6 348.21L301.74 343.94L298.79 353.64L309.65 357.91L312.6 348.21Z" fill="black"/>
<path d="M326.17 202.61C326.17 202.61 316.35 251.15 312.6 275.09C308.38 301.92 297.23 350.93 297.23 350.93L311.66 356.6C311.66 356.6 332.27 306.42 335.14 282.12C343.79 262.37 360.99 204.25 360.99 204.25L326.17 202.61Z" fill="#E83330"/>
<path d="M296.53 351.01L312.37 357.24L315.08 352.44L297.37 345.1L296.53 351.01Z" fill="#263238"/>
<path d="M292.65 361.81C292.098 361.638 291.619 361.286 291.29 360.81C291.199 360.634 291.151 360.438 291.151 360.24C291.151 360.042 291.199 359.846 291.29 359.67C291.331 359.561 291.401 359.466 291.493 359.396C291.585 359.325 291.695 359.281 291.81 359.27C292.86 359.16 294.81 361.72 295 362.02C295.022 362.053 295.033 362.091 295.033 362.13C295.033 362.169 295.022 362.207 295 362.24C294.979 362.273 294.949 362.299 294.913 362.315C294.878 362.331 294.838 362.336 294.8 362.33C294.067 362.235 293.346 362.061 292.65 361.81ZM292.12 359.72C292.039 359.68 291.95 359.663 291.86 359.67C291.8 359.67 291.73 359.67 291.66 359.84C291.593 359.959 291.559 360.094 291.559 360.23C291.559 360.367 291.593 360.501 291.66 360.62C291.95 361.15 292.95 361.62 294.4 361.86C293.791 361.001 293.016 360.273 292.12 359.72Z" fill="#E83330"/>
<path d="M294.78 362.32C294.748 362.309 294.72 362.288 294.7 362.26C294.06 361.5 293.16 359.15 293.7 358.34C293.783 358.214 293.907 358.121 294.051 358.076C294.195 358.03 294.35 358.035 294.49 358.09C294.639 358.128 294.778 358.196 294.898 358.291C295.019 358.386 295.118 358.505 295.19 358.64C295.81 359.75 295.11 362.09 295.08 362.19C295.068 362.226 295.047 362.257 295.019 362.282C294.991 362.306 294.957 362.323 294.92 362.33C294.898 362.341 294.873 362.346 294.849 362.344C294.824 362.342 294.8 362.334 294.78 362.32ZM294.44 358.5H294.36C294.1 358.44 294.04 358.5 294.01 358.59C293.71 359.07 294.2 360.77 294.77 361.7C295.055 360.775 295.055 359.785 294.77 358.86C294.707 358.704 294.59 358.577 294.44 358.5Z" fill="#E83330"/>
<path opacity="0.2" d="M347.34 232C341.9 238.74 339.75 255.92 339.77 270.24C343.44 260.13 347.65 247.29 351.35 235.63L347.34 232Z" fill="black"/>
<path d="M372.17 368.83H360.51L358.96 349.23H370.62L372.17 368.83Z" fill="#FFC3BD"/>
<path d="M359.85 367.85H373C373.169 367.849 373.332 367.906 373.464 368.012C373.595 368.117 373.685 368.265 373.72 368.43L375.39 375.95C375.429 376.134 375.426 376.324 375.382 376.506C375.337 376.688 375.253 376.858 375.133 377.004C375.014 377.149 374.864 377.265 374.694 377.344C374.524 377.423 374.338 377.463 374.15 377.46C370.83 377.4 365.6 377.2 361.42 377.2C358.84 377.2 354.06 377.47 350.51 377.47C346.96 377.47 346.51 373.96 347.94 373.64C354.47 372.21 356.41 370.25 358.49 368.37C358.865 368.037 359.348 367.852 359.85 367.85Z" fill="#263238"/>
<path opacity="0.2" d="M370.62 349.23H358.95L359.76 359.34H371.43L370.62 349.23Z" fill="black"/>
<path d="M340.29 203.22C340.29 203.22 346.75 257.31 348.11 276.78C350 303.88 357.31 357.38 357.31 357.38H372.81C372.81 357.38 374.47 302.74 371.67 278.43C375.53 257.22 374.31 204.85 374.31 204.85L340.29 203.22Z" fill="#E83330"/>
<path d="M356.69 357.71H373.71L374.48 352.26L355.31 351.9L356.69 357.71Z" fill="#263238"/>
<path d="M357 369.18C356.424 369.223 355.85 369.072 355.37 368.75C355.221 368.619 355.105 368.455 355.032 368.271C354.959 368.086 354.931 367.887 354.95 367.69C354.95 367.572 354.983 367.456 355.045 367.356C355.106 367.255 355.195 367.174 355.3 367.12C356.24 366.64 358.97 368.32 359.3 368.51C359.335 368.53 359.363 368.559 359.381 368.595C359.398 368.63 359.405 368.671 359.4 368.71C359.391 368.75 359.371 368.787 359.343 368.817C359.315 368.847 359.279 368.869 359.24 368.88C358.507 369.064 357.756 369.165 357 369.18ZM355.74 367.43C355.65 367.424 355.561 367.442 355.48 367.48C355.43 367.48 355.37 367.56 355.36 367.71C355.339 367.845 355.353 367.982 355.4 368.11C355.447 368.238 355.527 368.351 355.63 368.44C356.09 368.83 357.2 368.88 358.63 368.59C357.76 368.023 356.789 367.629 355.77 367.43H355.74Z" fill="#E83330"/>
<path d="M359.2 368.88H359.1C358.23 368.4 356.53 366.55 356.71 365.6C356.74 365.453 356.82 365.32 356.937 365.225C357.054 365.131 357.2 365.079 357.35 365.08C357.501 365.058 357.655 365.07 357.802 365.113C357.949 365.156 358.084 365.23 358.2 365.33C359.2 366.14 359.39 368.58 359.4 368.68C359.402 368.717 359.395 368.753 359.379 368.786C359.363 368.82 359.34 368.848 359.31 368.87C359.275 368.882 359.237 368.886 359.2 368.88ZM357.49 365.45H357.4C357.14 365.45 357.12 365.61 357.11 365.66C357 366.21 358.11 367.66 358.95 368.28C358.889 367.313 358.541 366.387 357.95 365.62C357.82 365.513 357.658 365.453 357.49 365.45Z" fill="#E83330"/>
<path d="M345.64 128.63L336.3 128.51C333.16 128.51 330.04 128.41 326.95 128.36C326.01 128.36 325.09 128.3 324.16 128.26C324.22 128.26 324.26 128.15 324.31 128.1C324.97 127.4 325.63 126.68 326.31 125.99C326.65 125.63 326.983 125.28 327.31 124.94C327.62 124.6 328.02 124.22 328.23 123.94L329.08 122.86C329.75 122.005 330.134 120.961 330.177 119.876C330.22 118.791 329.921 117.72 329.321 116.815C328.721 115.909 327.852 115.216 326.835 114.833C325.819 114.45 324.708 114.396 323.66 114.68L321.81 115.18C321.24 115.35 320.67 115.54 320.1 115.73C318.98 116.12 317.88 116.55 316.79 117.02C314.594 117.99 312.471 119.12 310.44 120.4C308.336 121.745 306.346 123.26 304.49 124.93C302.525 126.716 300.746 128.696 299.18 130.84C298.785 131.375 298.449 131.952 298.18 132.56C297.251 134.689 297.206 137.099 298.053 139.261C298.901 141.423 300.572 143.16 302.7 144.09L303.61 144.49C305.665 145.374 307.793 146.077 309.97 146.59C311.87 147.08 313.67 147.4 315.44 147.7C317.21 148 318.94 148.24 320.66 148.45C322.38 148.66 324.08 148.82 325.78 148.96C329.17 149.26 332.53 149.41 335.88 149.51C339.23 149.61 342.51 149.61 345.99 149.45C348.704 149.334 351.265 148.163 353.128 146.187C354.991 144.211 356.009 141.585 355.964 138.869C355.92 136.154 354.817 133.563 352.89 131.648C350.964 129.734 348.366 128.647 345.65 128.62L345.64 128.63Z" fill="#FFC3BD"/>
<path d="M351.08 146.88C343.01 156.08 323.59 152.64 323.59 152.64L324.66 129.72C331.317 128.255 338.105 127.468 344.92 127.37C356.32 127.35 357.54 139.5 351.08 146.88Z" fill="#263238"/>
<path d="M329.54 139.83C329.06 143.53 328.54 148.51 328.23 155.21C324.02 176.51 322.45 191.6 326.17 202.61C329.11 206.24 367.42 205.54 374.31 204.84C378.31 194.94 378.73 166.52 379.2 142.63C379.259 139.338 378.136 136.134 376.036 133.598C373.935 131.063 370.996 129.364 367.75 128.81C359.129 127.282 350.334 126.986 341.63 127.93C338.575 128.278 335.724 129.638 333.533 131.795C331.342 133.952 329.936 136.781 329.54 139.83Z" fill="#263238"/>
<path opacity="0.2" d="M366.71 154.37C366.84 161.65 372.12 173.28 378.06 179.18C378.42 173.03 378.65 166.36 378.83 159.63L366.71 154.37Z" fill="black"/>
<path d="M400.09 168.52L399.75 167.72C398.352 164.385 396.718 161.153 394.86 158.05C393.08 155.05 391.16 152.22 389.17 149.49C387.18 146.76 385.07 144.15 382.91 141.61C381.81 140.35 380.72 139.09 379.57 137.87L377.84 136.05L376 134.19C374.073 132.287 371.48 131.209 368.771 131.185C366.063 131.161 363.451 132.193 361.49 134.061C359.53 135.93 358.373 138.488 358.267 141.195C358.16 143.902 359.112 146.543 360.92 148.56L361.22 148.89L367.09 155.42C369.09 157.64 371 159.9 372.9 162.15C373.82 163.28 374.77 164.41 375.63 165.56C376.49 166.71 377.4 167.82 378.26 168.96C379.5 170.69 380.7 172.41 381.77 174.1C381.606 174.953 381.399 175.798 381.15 176.63C380.431 179.052 379.587 181.436 378.62 183.77C377.62 186.24 376.56 188.77 375.46 191.26C374.36 193.75 373.18 196.35 372.13 198.85L372.03 199.07C371.569 200.175 371.499 201.404 371.832 202.555C372.164 203.705 372.879 204.707 373.858 205.396C374.837 206.085 376.022 206.419 377.217 206.344C378.412 206.268 379.545 205.787 380.43 204.98C382.636 202.935 384.729 200.772 386.7 198.5C388.7 196.253 390.577 193.887 392.33 191.4C393.22 190.15 394.07 188.85 394.91 187.5C395.783 186.127 396.58 184.709 397.3 183.25C398.11 181.659 398.811 180.015 399.4 178.33C400.167 176.172 400.599 173.909 400.68 171.62C400.706 170.557 400.505 169.5 400.09 168.52Z" fill="#FFC3BD"/>
<path d="M368.43 128.94C381.92 131.25 390.71 149.51 390.71 149.51L374.45 167C374.45 167 365.08 157.46 359.45 148.62C353.38 139 358.77 127.3 368.43 128.94Z" fill="#263238"/>
<path d="M343.79 100.15C341.53 96.36 340.79 91.15 344.93 85.84C344.123 85.9412 343.305 85.806 342.573 85.451C341.842 85.096 341.23 84.5364 340.81 83.84C345.343 80.1312 351.044 78.1473 356.9 78.2401C369 78.2401 369.9 82.9101 369.49 86.1001C377.77 86.6301 383.81 108.16 362.82 111.97C350.81 99.3201 343.79 100.15 343.79 100.15Z" fill="#263238"/>
<path d="M368.73 86.49C368.73 86.49 372.1 83.05 367.91 78.89C368.849 79.1476 369.706 79.644 370.396 80.331C371.087 81.018 371.588 81.872 371.85 82.81C372.44 85.23 370.81 87.17 368.73 86.49Z" fill="#263238"/>
<path d="M364.09 109.34C363.77 115.97 363.17 123.51 364.28 128.8C362.56 131.51 358.16 134.63 350.28 135.33C347.48 133.74 343.78 129.85 345.07 127.85C348.42 125.7 349.84 119.19 348.88 114.32L364.09 109.34Z" fill="#FFC3BD"/>
<path opacity="0.2" d="M360.25 110.59L348.86 114.32C349.247 116.394 349.264 118.52 348.91 120.6C352.31 120.49 357.02 117.93 358.79 115.53C359.367 114.855 359.795 114.067 360.046 113.216C360.298 112.364 360.367 111.47 360.25 110.59Z" fill="black"/>
<path d="M367.41 98.8401C365.3 106.97 364.48 111.84 359.5 115.25C352.01 120.38 342.59 114.63 342.22 106.04C341.9 98.3001 345.4 86.3001 354.1 84.5901C356.016 84.2059 357.998 84.3179 359.858 84.9153C361.718 85.5128 363.395 86.576 364.728 88.0038C366.062 89.4317 367.008 91.1768 367.478 93.0733C367.947 94.9699 367.924 96.955 367.41 98.8401Z" fill="#FFC3BD"/>
<path d="M365.73 87.2001C362.16 89.7401 357.73 100.5 366.73 104.82C374.81 97.7201 372.72 87.2001 365.73 87.2001Z" fill="#263238"/>
<path d="M367.79 88.49C369.32 81.41 351.45 77.75 345.79 86.02C343.87 91 366.71 95.4 367.79 88.49Z" fill="#263238"/>
<path d="M354.46 107.47C352.603 106.631 350.613 106.126 348.58 105.98C348.552 105.98 348.523 105.986 348.497 105.997C348.471 106.008 348.447 106.025 348.428 106.045C348.408 106.066 348.393 106.09 348.383 106.117C348.373 106.143 348.369 106.172 348.37 106.2C348.381 106.265 348.414 106.324 348.463 106.367C348.512 106.411 348.574 106.437 348.64 106.44C350.588 106.581 352.497 107.062 354.28 107.86C354.336 107.885 354.399 107.887 354.457 107.867C354.514 107.846 354.562 107.804 354.59 107.75C354.601 107.723 354.606 107.694 354.606 107.665C354.605 107.636 354.599 107.608 354.586 107.582C354.574 107.555 354.557 107.532 354.535 107.513C354.513 107.493 354.488 107.479 354.46 107.47Z" fill="#263238"/>
<path d="M369.36 107.73C367.911 109.268 365.912 110.171 363.8 110.24C361 110.3 360.29 107.63 361.64 105.35C362.86 103.35 365.78 100.79 368.32 101.81C370.86 102.83 371.12 105.82 369.36 107.73Z" fill="#FFC3BD"/>
<path d="M354.48 98.7001C354.35 99.3701 353.89 99.8501 353.48 99.7601C353.07 99.6701 352.8 99.0601 352.93 98.3901C353.06 97.7201 353.52 97.2501 353.93 97.3901C354.34 97.5301 354.61 98.0001 354.48 98.7001Z" fill="#263238"/>
<path d="M346.91 97.2301C346.78 97.9001 346.32 98.3701 345.91 98.2901C345.5 98.2101 345.22 97.5901 345.35 96.9201C345.48 96.2501 345.94 95.7701 346.35 95.8601C346.76 95.9501 347 96.5601 346.91 97.2301Z" fill="#263238"/>
<path d="M349.25 98C348.05 99.8927 346.597 101.612 344.93 103.11C345.93 104.44 348.14 104.18 348.14 104.18L349.25 98Z" fill="#ED847E"/>
<path d="M353.39 94.81C353.461 94.7944 353.536 94.7972 353.606 94.8182C353.676 94.8392 353.739 94.8777 353.79 94.93C354.111 95.3181 354.52 95.6246 354.982 95.8245C355.444 96.0244 355.947 96.1119 356.45 96.08C356.556 96.0656 356.663 96.093 356.749 96.1565C356.835 96.22 356.893 96.3146 356.91 96.42C356.918 96.472 356.916 96.5252 356.904 96.5764C356.891 96.6276 356.868 96.6756 356.836 96.7177C356.804 96.7598 356.764 96.795 356.719 96.8211C356.673 96.8473 356.622 96.8639 356.57 96.87C355.935 96.9211 355.297 96.8198 354.709 96.5746C354.121 96.3293 353.6 95.9472 353.19 95.46C353.153 95.4237 353.123 95.3801 353.102 95.332C353.082 95.2839 353.071 95.2322 353.071 95.18C353.071 95.1278 353.082 95.0761 353.102 95.028C353.123 94.9799 353.153 94.9364 353.19 94.9C353.249 94.8559 353.318 94.8251 353.39 94.81Z" fill="#263238"/>
<path d="M344.57 92.59C344.487 92.5728 344.412 92.5268 344.36 92.46C344.326 92.4183 344.301 92.3703 344.287 92.3188C344.272 92.2673 344.268 92.2134 344.274 92.1602C344.281 92.107 344.298 92.0557 344.325 92.0093C344.351 91.9629 344.387 91.9223 344.43 91.89C344.921 91.4875 345.501 91.2077 346.122 91.0738C346.743 90.9399 347.387 90.9557 348 91.12C348.101 91.1543 348.185 91.2269 348.234 91.3221C348.282 91.4174 348.292 91.5279 348.26 91.63C348.22 91.7266 348.146 91.8052 348.052 91.8512C347.958 91.8972 347.851 91.9075 347.75 91.88C347.261 91.7554 346.75 91.7484 346.258 91.8597C345.766 91.9709 345.308 92.1972 344.92 92.52C344.873 92.562 344.816 92.5907 344.755 92.603C344.693 92.6153 344.629 92.6108 344.57 92.59Z" fill="#263238"/>
<path d="M376.85 198.56L368.26 198.5L372.7 208.36C372.7 208.36 380.03 206.79 379.63 202.81L376.85 198.56Z" fill="#FFC3BD"/>
<path d="M363.89 205.27L365.3 208.05C365.679 208.79 366.321 209.362 367.099 209.655C367.878 209.947 368.738 209.938 369.51 209.63L372.7 208.36L368.26 198.5L364.85 201.1C364.226 201.572 363.787 202.248 363.612 203.01C363.436 203.773 363.535 204.573 363.89 205.27Z" fill="#FFC3BD"/>
<path d="M311.46 191.3C310.422 191.289 309.41 190.976 308.548 190.398C307.686 189.821 307.011 189.004 306.607 188.048C306.202 187.093 306.085 186.04 306.271 185.018C306.456 183.997 306.935 183.053 307.65 182.3C311.47 178.36 314.92 175.3 317.96 172.63C325.3 166.16 327.83 163.63 327.59 158.78C327.231 155.788 326.595 152.835 325.69 149.96C323.5 141.91 321.02 132.8 325.27 125.49C327.55 121.56 331.42 118.87 336.78 117.49C338.135 117.168 339.562 117.391 340.755 118.11C341.948 118.829 342.811 119.988 343.159 121.336C343.508 122.685 343.313 124.116 342.618 125.323C341.922 126.529 340.781 127.415 339.44 127.79C335.67 128.79 334.76 130.32 334.44 130.84C332.44 134.29 334.37 141.43 335.93 147.16C337.06 150.773 337.817 154.493 338.19 158.26C338.69 168.51 332.64 173.85 324.97 180.61C322.08 183.17 318.79 186.07 315.25 189.71C314.756 190.215 314.167 190.615 313.516 190.888C312.865 191.161 312.166 191.301 311.46 191.3Z" fill="#E83330"/>
<path d="M323.13 114.9L331.45 112.77L329.51 123.41C329.51 123.41 322.02 123.64 321.46 119.69L323.13 114.9Z" fill="#FFC3BD"/>
<path d="M337.29 118.41L336.65 121.19C336.453 122.039 335.946 122.784 335.228 123.278C334.51 123.772 333.633 123.98 332.77 123.86L329.51 123.41L331.45 112.77L335.27 114.42C336.021 114.743 336.634 115.32 337.003 116.049C337.372 116.778 337.474 117.614 337.29 118.41Z" fill="#FFC3BD"/>
<path d="M308.486 173.803L308.259 173.576C307.248 172.565 305.608 172.565 304.596 173.577L275.108 203.076C274.097 204.087 274.097 205.727 275.109 206.738L275.335 206.965C276.347 207.976 277.987 207.976 278.998 206.964L308.486 177.465C309.498 176.454 309.497 174.814 308.486 173.803Z" fill="#263238"/>
<path d="M323.854 189.152L323.628 188.925C322.617 187.914 320.977 187.914 319.965 188.925L290.472 218.419C289.46 219.43 289.46 221.07 290.472 222.082L290.698 222.308C291.71 223.319 293.35 223.319 294.361 222.308L323.854 192.814C324.866 191.803 324.866 190.163 323.854 189.152Z" fill="#263238"/>
<path d="M284.412 184.783L305.194 164.001C305.86 163.336 306.65 162.807 307.52 162.447C308.39 162.087 309.322 161.901 310.264 161.901C311.206 161.901 312.138 162.087 313.008 162.447C313.878 162.807 314.668 163.336 315.334 164.001L333.5 182.167C334.165 182.833 334.694 183.623 335.054 184.493C335.414 185.363 335.6 186.295 335.6 187.237C335.6 188.178 335.414 189.111 335.054 189.981C334.694 190.851 334.165 191.641 333.5 192.307L312.718 213.089L284.412 184.783Z" fill="#E83330"/>
<path opacity="0.7" d="M284.412 184.783L305.194 164.001C305.86 163.336 306.65 162.807 307.52 162.447C308.39 162.087 309.322 161.901 310.264 161.901C311.206 161.901 312.138 162.087 313.008 162.447C313.878 162.807 314.668 163.336 315.334 164.001L333.5 182.167C334.165 182.833 334.694 183.623 335.054 184.493C335.414 185.363 335.6 186.295 335.6 187.237C335.6 188.178 335.414 189.111 335.054 189.981C334.694 190.851 334.165 191.641 333.5 192.307L312.718 213.089L284.412 184.783Z" fill="white"/>
<path opacity="0.2" d="M291.58 177.56L284.38 184.75L312.69 213.06L319.88 205.86C319.594 205.023 319.118 204.263 318.49 203.64L293.8 179C293.182 178.354 292.422 177.861 291.58 177.56Z" fill="#E83330"/>
<path d="M283.166 181.124L282.65 181.64C280.455 183.835 280.455 187.393 282.65 189.588L307.858 214.797C310.053 216.991 313.611 216.991 315.806 214.797L316.322 214.28C318.517 212.086 318.517 208.527 316.322 206.332L291.114 181.124C288.919 178.929 285.361 178.929 283.166 181.124Z" fill="#E83330"/>
<path d="M361.52 0.959961H138.48C133.83 0.959961 130.06 4.72973 130.06 9.37996V50.06C130.06 54.7102 133.83 58.48 138.48 58.48H361.52C366.17 58.48 369.94 54.7102 369.94 50.06V9.37996C369.94 4.72973 366.17 0.959961 361.52 0.959961Z" fill="white"/>
<path d="M361.52 59.22H138.52C136.091 59.2173 133.763 58.2514 132.046 56.5341C130.329 54.8169 129.363 52.4885 129.36 50.06V9.37997C129.363 6.9514 130.329 4.62306 132.046 2.9058C133.763 1.18854 136.091 0.222618 138.52 0.219971H361.52C363.949 0.222618 366.277 1.18854 367.994 2.9058C369.711 4.62306 370.677 6.9514 370.68 9.37997V50.06C370.677 52.4885 369.711 54.8169 367.994 56.5341C366.277 58.2514 363.949 59.2173 361.52 59.22ZM138.52 1.69997C136.484 1.70262 134.532 2.51261 133.092 3.95231C131.653 5.39202 130.843 7.34392 130.84 9.37997V50.06C130.843 52.096 131.653 54.0479 133.092 55.4876C134.532 56.9273 136.484 57.7373 138.52 57.74H361.52C363.556 57.7373 365.508 56.9273 366.948 55.4876C368.387 54.0479 369.197 52.096 369.2 50.06V9.37997C369.197 7.34392 368.387 5.39202 366.948 3.95231C365.508 2.51261 363.556 1.70262 361.52 1.69997H138.52Z" fill="#263238"/>
<g opacity="0.4">
<path d="M149.78 39.72V18.08H157.94C159.044 18.0592 160.147 18.1261 161.24 18.28C162.192 18.4173 163.102 18.7584 163.91 19.28C164.659 19.8141 165.255 20.5345 165.64 21.37C166.224 22.6098 166.43 23.9937 166.235 25.35C166.039 26.7064 165.45 27.9755 164.54 29C163.373 30.2666 161.26 30.9033 158.2 30.91H152.64V39.71L149.78 39.72ZM152.64 28.37H158.24C159.63 28.5121 161.026 28.1579 162.18 27.37C162.577 27.003 162.888 26.5527 163.09 26.0512C163.293 25.5498 163.381 25.0098 163.35 24.47C163.373 23.6397 163.132 22.8236 162.66 22.14C162.225 21.515 161.584 21.0621 160.85 20.86C159.969 20.7033 159.074 20.6396 158.18 20.67H152.64V28.37Z" fill="#263238"/>
<path d="M179.84 37.79C178.997 38.5317 178.037 39.1297 177 39.56C176.062 39.9046 175.069 40.0773 174.07 40.07C172.625 40.1705 171.196 39.7203 170.07 38.81C169.62 38.4059 169.263 37.9085 169.025 37.3523C168.786 36.7962 168.672 36.1948 168.69 35.59C168.68 34.8538 168.859 34.1273 169.21 33.48C169.555 32.8872 170.03 32.381 170.6 32C171.19 31.6108 171.838 31.3172 172.52 31.13C173.298 30.951 174.086 30.8174 174.88 30.73C176.486 30.5837 178.074 30.2789 179.62 29.82C179.62 29.46 179.62 29.22 179.62 29.13C179.664 28.7169 179.621 28.2991 179.491 27.9043C179.362 27.5095 179.15 27.1467 178.87 26.84C178.012 26.1872 176.946 25.8674 175.87 25.94C174.902 25.8698 173.936 26.0966 173.1 26.59C172.412 27.197 171.947 28.0174 171.78 28.92L169.18 28.56C169.359 27.5857 169.76 26.6654 170.35 25.87C170.969 25.1328 171.784 24.5852 172.7 24.29C173.846 23.9018 175.05 23.7156 176.26 23.74C177.366 23.7021 178.47 23.8612 179.52 24.21C180.204 24.4043 180.819 24.7898 181.292 25.3212C181.765 25.8526 182.076 26.5078 182.19 27.21C182.301 28.0217 182.344 28.8411 182.32 29.66V33.2C182.281 34.7653 182.338 36.3316 182.49 37.89C182.611 38.5486 182.837 39.1834 183.16 39.77H180.39C180.086 39.1496 179.899 38.4783 179.84 37.79ZM179.62 31.85C178.218 32.3528 176.761 32.6885 175.28 32.85C174.488 32.935 173.709 33.1163 172.96 33.39C172.531 33.5639 172.165 33.8638 171.91 34.25C171.615 34.7209 171.498 35.2812 171.578 35.8309C171.659 36.3805 171.933 36.8835 172.35 37.25C173.018 37.7702 173.856 38.0233 174.7 37.96C175.653 37.9783 176.594 37.7473 177.43 37.29C178.195 36.8757 178.81 36.2322 179.19 35.45C179.517 34.6064 179.664 33.7037 179.62 32.8V31.85Z" fill="#263238"/>
<path d="M185.94 41L188.52 41.38C188.543 41.7162 188.635 42.0442 188.789 42.3435C188.944 42.6428 189.159 42.9071 189.42 43.12C190.215 43.6561 191.163 43.9161 192.12 43.86C193.125 43.9257 194.124 43.6663 194.97 43.12C195.649 42.6122 196.13 41.8838 196.33 41.06C196.509 39.9328 196.572 38.7902 196.52 37.65C195.996 38.2906 195.332 38.8036 194.58 39.1501C193.829 39.4965 193.008 39.6675 192.18 39.65C191.22 39.6976 190.263 39.5102 189.391 39.1042C188.52 38.6982 187.761 38.0858 187.18 37.32C185.977 35.7051 185.35 33.7333 185.4 31.72C185.385 30.2982 185.664 28.8887 186.22 27.58C186.698 26.3934 187.515 25.3742 188.57 24.65C189.651 23.958 190.917 23.6094 192.2 23.65C193.084 23.6383 193.959 23.835 194.753 24.2242C195.547 24.6133 196.238 25.184 196.77 25.89V24H199.22V37.59C199.328 39.3523 199.077 41.1182 198.48 42.78C197.965 43.8167 197.136 44.6639 196.11 45.2C194.873 45.8291 193.497 46.132 192.11 46.08C190.501 46.1565 188.91 45.7149 187.57 44.82C186.995 44.3753 186.543 43.7908 186.258 43.1221C185.973 42.4535 185.863 41.7229 185.94 41ZM188.13 31.58C187.993 33.1785 188.429 34.7735 189.36 36.08C189.731 36.5331 190.2 36.8963 190.732 37.1422C191.264 37.3881 191.844 37.5105 192.43 37.5C193.014 37.5081 193.593 37.3857 194.124 37.1418C194.655 36.8978 195.125 36.5385 195.5 36.09C196.433 34.8145 196.873 33.2447 196.74 31.67C196.859 30.1155 196.403 28.5713 195.46 27.33C195.091 26.8713 194.624 26.5017 194.092 26.2489C193.56 25.9961 192.979 25.8666 192.39 25.87C191.814 25.8682 191.244 25.9968 190.725 26.2462C190.205 26.4956 189.749 26.8593 189.39 27.31C188.465 28.5404 188.017 30.0647 188.13 31.6V31.58Z" fill="#263238"/>
<path d="M214 34.6701L216.75 35.0101C216.389 36.492 215.541 37.8095 214.34 38.7501C213.03 39.673 211.451 40.137 209.85 40.0701C208.842 40.1309 207.833 39.9779 206.889 39.6212C205.944 39.2644 205.086 38.712 204.37 38.0001C202.948 36.3561 202.23 34.219 202.37 32.0501C202.221 29.8222 202.938 27.6229 204.37 25.9101C205.044 25.1913 205.864 24.6249 206.774 24.2489C207.685 23.8729 208.665 23.696 209.65 23.7301C210.61 23.6968 211.566 23.8707 212.453 24.24C213.34 24.6092 214.137 25.1652 214.79 25.8701C216.205 27.5373 216.922 29.687 216.79 31.8701C216.79 32.0301 216.79 32.2701 216.79 32.5801H205.1C205.081 34.0471 205.601 35.4701 206.56 36.5801C206.98 37.026 207.489 37.3785 208.054 37.6145C208.619 37.8506 209.228 37.9649 209.84 37.9501C210.732 37.9725 211.607 37.7021 212.33 37.1801C213.129 36.5325 213.711 35.657 214 34.6701ZM205.28 30.3801H214C213.977 29.302 213.629 28.2562 213 27.3801C212.607 26.8853 212.104 26.4887 211.531 26.2215C210.959 25.9542 210.332 25.8237 209.7 25.8401C209.132 25.8261 208.566 25.9279 208.039 26.1394C207.511 26.3508 207.031 26.6675 206.63 27.0701C205.756 27.9513 205.261 29.139 205.25 30.3801H205.28Z" fill="#263238"/>
<path d="M228.45 39.72V24H230.84V26.23C231.375 25.4006 232.119 24.726 232.996 24.2733C233.873 23.8206 234.854 23.6057 235.84 23.65C236.736 23.6391 237.624 23.8127 238.45 24.16C239.154 24.431 239.77 24.8912 240.23 25.49C240.643 26.0916 240.926 26.7728 241.06 27.49C241.175 28.3449 241.221 29.2076 241.2 30.07V39.71H238.55V30.18C238.583 29.3583 238.478 28.537 238.24 27.75C238.025 27.2136 237.638 26.7636 237.14 26.47C236.576 26.1411 235.932 25.9749 235.28 25.99C234.203 25.9701 233.157 26.3555 232.35 27.07C231.53 27.79 231.12 29.15 231.12 31.16V39.72H228.45Z" fill="#263238"/>
<path d="M244.28 31.88C244.28 28.98 245.087 26.83 246.7 25.43C248.072 24.2613 249.828 23.6415 251.63 23.69C252.609 23.654 253.586 23.8242 254.495 24.1894C255.405 24.5546 256.227 25.1067 256.91 25.81C257.631 26.5965 258.187 27.5192 258.546 28.5239C258.905 29.5285 259.059 30.5948 259 31.66C259.074 33.2961 258.762 34.9267 258.09 36.42C257.497 37.5592 256.578 38.4957 255.45 39.11C254.294 39.7643 252.988 40.1087 251.66 40.11C250.67 40.1573 249.681 39.9936 248.758 39.6298C247.836 39.2661 247.001 38.7105 246.31 38C245.586 37.1633 245.034 36.1921 244.686 35.142C244.338 34.0919 244.2 32.9835 244.28 31.88ZM247.01 31.88C246.889 33.4921 247.354 35.0936 248.32 36.39C248.725 36.8708 249.233 37.255 249.805 37.5146C250.378 37.7741 251.001 37.9024 251.63 37.89C252.257 37.9025 252.878 37.7731 253.448 37.5116C254.018 37.2502 254.521 36.8633 254.92 36.38C255.901 35.0599 256.369 33.4293 256.24 31.79C256.357 30.2093 255.883 28.6414 254.91 27.39C254.499 26.9206 253.992 26.5445 253.424 26.2868C252.856 26.0291 252.239 25.8957 251.615 25.8957C250.991 25.8957 250.374 26.0291 249.806 26.2868C249.238 26.5445 248.731 26.9206 248.32 27.39C247.351 28.6777 246.882 30.2729 247 31.88H247.01Z" fill="#263238"/>
<path d="M267.88 37.3401L268.27 39.6901C267.613 39.8389 266.943 39.9193 266.27 39.9301C265.496 39.9682 264.726 39.8099 264.03 39.4701C263.536 39.1998 263.14 38.7796 262.9 38.2701C262.624 37.2476 262.516 36.1871 262.58 35.1301V26.1301H260.63V24.0001H262.58V20.1601L265.22 18.5601V24.0001H267.89V26.0701H265.22V35.2401C265.191 35.731 265.239 36.2235 265.36 36.7001C265.457 36.9137 265.617 37.0919 265.82 37.2101C266.099 37.3587 266.414 37.4279 266.73 37.4101C267.114 37.4124 267.499 37.389 267.88 37.3401Z" fill="#263238"/>
<path d="M279.52 39.72V26.11H277.17V24H279.52V22.37C279.48 21.5699 279.575 20.7689 279.8 20C280.053 19.3066 280.527 18.716 281.15 18.32C281.971 17.8464 282.914 17.6239 283.86 17.68C284.693 17.6905 285.523 17.7775 286.34 17.94L285.94 20.26C285.422 20.1629 284.897 20.1127 284.37 20.11C283.754 20.0525 283.14 20.2392 282.66 20.63C282.265 21.1914 282.087 21.8773 282.16 22.56V24H285.22V26.07H282.16V39.72H279.52Z" fill="#263238"/>
<path d="M286.29 31.88C286.29 28.98 287.097 26.83 288.71 25.43C290.086 24.2614 291.845 23.6419 293.65 23.69C294.629 23.654 295.606 23.8242 296.515 24.1894C297.425 24.5546 298.247 25.1067 298.93 25.81C299.647 26.5981 300.2 27.5216 300.555 28.5261C300.911 29.5307 301.062 30.5962 301 31.66C301.077 33.2953 300.769 34.9258 300.1 36.42C299.506 37.5621 298.583 38.4993 297.45 39.11C296.298 39.7643 294.995 40.1088 293.67 40.11C292.68 40.1534 291.692 39.988 290.77 39.6245C289.849 39.2609 289.014 38.7075 288.32 38C287.596 37.1633 287.044 36.1921 286.696 35.142C286.348 34.0919 286.21 32.9835 286.29 31.88ZM289.03 31.88C288.904 33.4926 289.369 35.096 290.34 36.39C290.75 36.8626 291.257 37.2415 291.826 37.5012C292.396 37.7609 293.014 37.8953 293.64 37.8953C294.266 37.8953 294.884 37.7609 295.454 37.5012C296.023 37.2415 296.53 36.8626 296.94 36.39C297.913 35.0666 298.378 33.4376 298.25 31.8C298.365 30.2211 297.895 28.655 296.93 27.4C296.519 26.9306 296.012 26.5545 295.444 26.2968C294.876 26.0391 294.259 25.9057 293.635 25.9057C293.011 25.9057 292.394 26.0391 291.826 26.2968C291.258 26.5545 290.751 26.9306 290.34 27.4C289.362 28.6802 288.886 30.2733 289 31.88H289.03Z" fill="#263238"/>
<path d="M314.37 39.72V37.42C313.837 38.2567 313.096 38.9408 312.22 39.4053C311.344 39.8698 310.362 40.0988 309.37 40.07C308.479 40.081 307.595 39.9002 306.78 39.54C306.079 39.2624 305.465 38.8033 305 38.21C304.587 37.6097 304.307 36.9277 304.18 36.21C304.05 35.39 303.997 34.5598 304.02 33.73V24H306.68V32.7C306.647 33.6363 306.701 34.5735 306.84 35.5C306.983 36.1598 307.359 36.7458 307.9 37.15C308.484 37.5625 309.186 37.7732 309.9 37.75C310.689 37.7503 311.463 37.536 312.14 37.13C312.811 36.7574 313.336 36.1689 313.63 35.46C313.962 34.4756 314.108 33.4379 314.06 32.4V24H316.72V39.72H314.37Z" fill="#263238"/>
<path d="M320.91 39.72V24H323.3V26.23C323.835 25.4006 324.579 24.726 325.456 24.2733C326.333 23.8206 327.314 23.6057 328.3 23.65C329.196 23.6391 330.084 23.8127 330.91 24.16C331.614 24.431 332.23 24.8912 332.69 25.49C333.103 26.0916 333.386 26.7728 333.52 27.49C333.635 28.3449 333.681 29.2076 333.66 30.07V39.71H331V30.18C331.033 29.3583 330.928 28.537 330.69 27.75C330.475 27.2136 330.088 26.7636 329.59 26.47C329.026 26.1411 328.382 25.9749 327.73 25.99C326.653 25.972 325.608 26.3572 324.8 27.07C323.98 27.79 323.57 29.15 323.57 31.16V39.72H320.91Z" fill="#263238"/>
<path d="M347.9 39.7201V37.7201C347.445 38.4668 346.797 39.0773 346.025 39.4872C345.252 39.8972 344.384 40.0916 343.51 40.0501C342.289 40.0673 341.091 39.7191 340.07 39.0501C339 38.3365 338.154 37.3345 337.63 36.1601C337.036 34.8234 336.742 33.3726 336.77 31.9101C336.749 30.4527 337.014 29.0055 337.55 27.6501C338.003 26.4492 338.826 25.4232 339.9 24.7201C340.942 24.0474 342.16 23.6994 343.4 23.7201C344.277 23.7047 345.144 23.9111 345.92 24.3201C346.633 24.6885 347.25 25.2194 347.72 25.8701V18.0801H350.36V39.7201H347.9ZM339.5 31.9001C339.379 33.503 339.829 35.097 340.77 36.4001C341.125 36.8589 341.579 37.2314 342.099 37.4894C342.619 37.7475 343.19 37.8845 343.77 37.8901C344.346 37.896 344.916 37.7703 345.436 37.5225C345.956 37.2746 346.412 36.9112 346.77 36.4601C347.674 35.202 348.103 33.6643 347.98 32.1201C348.117 30.4482 347.68 28.7797 346.74 27.3901C346.383 26.9205 345.921 26.5404 345.392 26.2801C344.863 26.0197 344.28 25.8862 343.69 25.8901C343.112 25.8784 342.54 26.0026 342.018 26.2527C341.497 26.5028 341.042 26.8719 340.69 27.3301C339.785 28.6737 339.365 30.2857 339.5 31.9001Z" fill="#263238"/>
</g>
<path d="M250 88.03C260.239 88.03 268.54 79.7293 268.54 69.49C268.54 59.2506 260.239 50.95 250 50.95C239.761 50.95 231.46 59.2506 231.46 69.49C231.46 79.7293 239.761 88.03 250 88.03Z" fill="#263238"/>
<path d="M250 85.27C258.715 85.27 265.78 78.205 265.78 69.49C265.78 60.7749 258.715 53.71 250 53.71C241.285 53.71 234.22 60.7749 234.22 69.49C234.22 78.205 241.285 85.27 250 85.27Z" fill="white"/>
<path d="M247.79 62.3134C247.772 62.1792 247.622 61.234 246.843 60.8418C246.642 60.7406 246.444 60.6991 246.276 60.6849C246.112 60.6889 245.947 60.6928 245.783 60.6967H238C238 61.4827 238.637 62.1196 239.423 62.1196H245.497C245.702 62.1196 245.883 62.2577 245.936 62.4569H239.44C239.44 63.2429 240.077 63.8798 240.863 63.8798H245.968C246.174 63.8798 246.354 64.0179 246.407 64.2171H240.88C240.88 65.0031 241.517 65.64 242.303 65.64H247.791V62.3134H247.79Z" fill="#E83330"/>
<path d="M251.883 59.0086C253.936 58.9326 256.042 59.3412 257.825 60.3892C258.916 61.0301 259.873 61.9219 260.506 63.024C261.293 64.3787 261.533 66.044 261.143 67.5634C260.839 68.7666 260.094 69.857 259.065 70.5551C257.981 71.3058 256.62 71.6046 255.316 71.4752C254.61 71.4093 253.914 71.2116 253.289 70.8767C252.572 70.4947 251.953 69.9244 251.534 69.2263C250.554 67.601 250.724 65.3709 251.93 63.9072C252.115 63.6947 252.319 63.4829 252.582 63.3691C252.659 63.3401 252.764 63.3166 252.829 63.3825C252.89 63.4633 252.862 63.5731 252.837 63.6625C252.661 64.2022 252.665 64.8187 252.924 65.3317C253.15 65.793 253.561 66.1506 254.032 66.3452C254.465 66.5225 254.947 66.5758 255.409 66.5005C255.992 66.4134 256.541 66.0957 256.895 65.6227C257.305 65.0862 257.461 64.3748 257.347 63.7127C257.25 63.1213 256.926 62.5816 256.487 62.18C255.917 61.6599 255.18 61.3524 254.428 61.2112C253.217 60.9908 251.93 61.1618 250.833 61.7282C249.81 62.2506 248.97 63.1056 248.422 64.112C247.823 65.2023 247.554 66.4628 247.612 67.7022C247.652 68.7964 247.971 69.8828 248.554 70.8116C249.281 71.9788 250.404 72.873 251.668 73.3993C253.069 73.9868 254.632 74.1516 256.133 73.9406C257.494 73.7468 258.816 73.2001 259.868 72.3059C260.846 71.4846 261.569 70.3794 261.98 69.1737C262.022 69.0498 262.067 68.9212 262.156 68.8215C262.258 68.7047 262.47 68.6992 262.558 68.8357C262.701 69.0451 262.698 69.3126 262.719 69.5565C262.733 70.89 262.525 72.2306 262.072 73.4872C261.66 74.6348 261.045 75.7125 260.256 76.6421C259.427 77.6241 258.403 78.4399 257.265 79.0368C255.905 79.7538 254.384 80.1507 252.851 80.2378C251.785 80.2982 250.712 80.2236 249.668 79.9954C248.263 79.6926 246.917 79.109 245.746 78.2728C244.684 77.5167 243.77 76.5534 243.072 75.4521C242.191 74.0692 241.659 72.4729 241.495 70.8437C241.278 68.7266 241.636 66.5358 242.624 64.6422C243.391 63.1511 244.54 61.86 245.924 60.9147C247.67 59.7177 249.773 59.0808 251.883 59.0086Z" fill="#E83330"/>
<line x1="240.2" y1="55.1" x2="261.2" y2="83.1" stroke="#263238" stroke-width="3"/>
</svg>
