<svg width="30" height="30" viewBox="0 0 30 30" fill="none" xmlns="http://www.w3.org/2000/svg">
<g clip-path="url(#clip0_1183_912)">
<path d="M19.4118 0V5.29412H24.7059L19.4118 0ZM0 13.2353V25.5882H30V13.2353H0ZM6.17647 21.1765H5.29412V22.9412H3.52941V15.8824H6.17647C9.68424 16.0158 9.68159 21.0443 6.17647 21.1765ZM15.8824 22.9412H14.1176V21.1765H12.3529V22.9412H10.5882V18.5294C10.7218 15.0216 15.7502 15.0244 15.8824 18.5294V22.9412ZM19.4118 22.9412H17.6471V15.8824H19.4118V22.9412ZM26.4706 20.2941C26.4706 21.7538 25.2832 22.9412 23.8235 22.9412H21.1765V15.8824H23.8235C25.2832 15.8824 26.4706 17.0698 26.4706 18.5294V20.2941Z" fill="#57CC99"/>
<path d="M13.2352 17.6471C12.7488 17.6471 12.3529 18.0428 12.3529 18.5294V19.4118H14.1176V18.5294C14.1176 18.0428 13.7218 17.6471 13.2352 17.6471ZM23.8235 17.6471H22.9411V21.1765H23.8235C24.3101 21.1765 24.7058 20.7807 24.7058 20.2941V18.5294C24.7058 18.0428 24.3101 17.6471 23.8235 17.6471ZM6.17642 17.6471H5.29407V19.4118H6.17642C7.34566 19.3673 7.34477 17.6911 6.17642 17.6471ZM5.29407 30H24.7058V27.3529H5.29407V30ZM24.7058 7.05882H17.647V0H5.29407V11.4706H24.7058V7.05882ZM14.5882 7.94118H8.41171V6.17647H14.5882V7.94118ZM14.5882 4.41176H8.41171V2.64706H14.5882V4.41176Z" fill="#57CC99"/>
</g>
<defs>
<clipPath id="clip0_1183_912">
<rect width="30" height="30" fill="white"/>
</clipPath>
</defs>
</svg>
