	<svg width="22" height="22" viewBox="0 0 22 22" fill="none" xmlns="http://www.w3.org/2000/svg">
	<path d="M15.035 11.4312L6.39877 14.9862C6.28567 15.0331 6.18583 15.1071 6.10809 15.2017C6.03035 15.2963 5.97708 15.4085 5.95299 15.5286C5.9289 15.6486 5.93473 15.7727 5.96996 15.89C6.0052 16.0072 6.06876 16.114 6.15502 16.2009L7.16752 17.2134L7.46002 19.2609C7.48597 19.4505 7.58456 19.6225 7.735 19.7408C7.88543 19.859 8.07593 19.9142 8.26627 19.8946L9.70627 19.7521L11.2363 21.2821C11.3232 21.3684 11.43 21.4319 11.5473 21.4672C11.6645 21.5024 11.7887 21.5082 11.9088 21.4841C12.0288 21.4601 12.1411 21.4068 12.2357 21.329C12.3303 21.2513 12.4044 21.1515 12.4513 21.0384L16.0059 12.4021C16.059 12.2664 16.0714 12.1181 16.0416 11.9755C16.0117 11.8328 15.9409 11.7019 15.8379 11.5989C15.7348 11.4958 15.604 11.425 15.4613 11.3952C15.3186 11.3654 15.1704 11.3778 15.0346 11.4309L15.035 11.4312ZM21.4809 6.005C21.4809 6.005 20.3409 2.59625 20.3334 2.58162C20.3065 2.52764 20.2665 2.48123 20.2171 2.44662L17.5921 0.571622C17.5296 0.524316 17.4531 0.499241 17.3746 0.500372H4.6254C4.54699 0.499241 4.47044 0.524316 4.4079 0.571622L1.7829 2.44662C1.71942 2.49273 1.67112 2.5567 1.64415 2.63037L0.519148 6.00537C0.501263 6.06185 0.49682 6.12172 0.506174 6.18021C0.515528 6.23871 0.538419 6.29421 0.573023 6.34229C0.607628 6.39038 0.652987 6.42971 0.705485 6.45715C0.757983 6.4846 0.816167 6.4994 0.875398 6.50037H21.125C21.1842 6.49932 21.2424 6.48447 21.2948 6.457C21.3473 6.42953 21.3926 6.39021 21.4272 6.34215C21.4618 6.29409 21.4847 6.23862 21.4941 6.18016C21.5035 6.12169 21.4991 6.06185 21.4813 6.00537L21.4809 6.005ZM3.17002 2.37537L4.74502 1.25037H17.255L18.83 2.37537H3.17002Z" fill="#B2ACAC"/>
	<path d="M2.00079 17.3746C2.00109 17.474 2.04069 17.5692 2.11096 17.6395C2.18122 17.7097 2.27643 17.7493 2.37579 17.7496H6.48504L6.45879 17.5659L5.62629 16.7296C5.45266 16.5562 5.3245 16.3426 5.25318 16.1077C5.18185 15.8729 5.16957 15.6241 5.21742 15.3834C5.26526 15.1427 5.37176 14.9175 5.52747 14.7278C5.68317 14.5381 5.88328 14.3897 6.11004 14.2959L14.75 10.7375C15.917 10.1982 17.246 11.5385 16.6925 12.7062L14.615 17.75H19.6247C19.724 17.7497 19.8192 17.7101 19.8895 17.6398C19.9598 17.5696 19.9994 17.4744 19.9997 17.375V7.25H2.00079V17.3746Z" fill="#B2ACAC"/>
	</svg>
