<svg width="14" height="14" viewBox="0 0 14 14" fill="none" xmlns="http://www.w3.org/2000/svg">
<g clip-path="url(#clip0_489_427)">
<path fill-rule="evenodd" clip-rule="evenodd" d="M9.66725 8.48846V5.6883L7.24232 7.0883V9.88857L9.66725 8.48857V8.48846ZM7.05928 6.77149L4.63441 5.37149L7.05928 3.97149L9.48418 5.37149L7.05928 6.77149ZM6.87627 9.88868V7.08838L4.4514 5.68838V8.48846L6.87627 9.88846V9.88868ZM2.15586 11.4259L2.08633 13.0467C2.08312 13.1207 2.05147 13.1907 1.99799 13.2419C1.9445 13.2932 1.8733 13.3218 1.79922 13.3219H1.7865C1.71035 13.3185 1.63865 13.285 1.58714 13.2288C1.53562 13.1726 1.5085 13.0983 1.5117 13.0221L1.61375 10.6457C1.61689 10.5714 1.64873 10.5013 1.70257 10.45C1.75642 10.3987 1.82806 10.3703 1.90241 10.3708L4.52982 10.3833C4.60561 10.3842 4.67799 10.415 4.7312 10.469C4.78442 10.5229 4.81417 10.5957 4.81399 10.6715C4.81381 10.7473 4.78371 10.82 4.73024 10.8737C4.67677 10.9274 4.60425 10.9579 4.52845 10.9584H4.52706L2.49988 10.9484C3.06275 11.5877 3.75502 12.1 4.53083 12.4515C5.30664 12.803 6.14828 12.9857 7 12.9874C10.3014 12.9874 12.9874 10.3014 12.9874 7.00001C12.9874 6.92374 13.0176 6.85059 13.0716 6.79666C13.1255 6.74273 13.1987 6.71243 13.2749 6.71243C13.3512 6.71243 13.4243 6.74273 13.4783 6.79666C13.5322 6.85059 13.5625 6.92374 13.5625 7.00001C13.5621 8.12711 13.2714 9.23512 12.7186 10.2173C12.1658 11.1996 11.3695 12.0229 10.4062 12.6082C9.44294 13.1934 8.34524 13.5208 7.21877 13.5588C6.09231 13.5968 4.97504 13.3441 3.97452 12.8252C3.2914 12.4683 2.67591 11.9947 2.15586 11.4259ZM12.1744 2.96473L12.162 1.17601C12.1614 1.09974 12.1912 1.02639 12.2447 0.972088C12.2983 0.917783 12.3712 0.886973 12.4475 0.886436C12.5237 0.8859 12.5971 0.91568 12.6514 0.969226C12.7057 1.02277 12.7365 1.0957 12.737 1.17196L12.7562 3.9188C12.7564 3.95672 12.7492 3.99432 12.7349 4.02942C12.7205 4.06453 12.6994 4.09646 12.6727 4.12337C12.646 4.15028 12.6142 4.17165 12.5792 4.18624C12.5442 4.20084 12.5067 4.20837 12.4688 4.2084C12.4648 4.2084 12.461 4.2084 12.4572 4.20802L9.90875 4.13463C9.87101 4.13354 9.83385 4.12503 9.7994 4.10959C9.76495 4.09414 9.73388 4.07206 9.70796 4.04461C9.68204 4.01715 9.66178 3.98486 9.64834 3.94958C9.63491 3.9143 9.62855 3.87671 9.62963 3.83897C9.63072 3.80123 9.63923 3.76408 9.65468 3.72963C9.67012 3.69518 9.6922 3.6641 9.71966 3.63819C9.74711 3.61227 9.7794 3.59201 9.81468 3.57857C9.84997 3.56513 9.88755 3.55878 9.92529 3.55986L11.9409 3.61783C11.3894 2.81637 10.6518 2.16063 9.79121 1.70688C8.93065 1.25313 7.97286 1.0149 7 1.01263C3.69868 1.01263 1.01262 3.69871 1.01262 7.00001C1.01258 7.2382 1.02658 7.47618 1.05454 7.71272C1.0593 7.75038 1.05655 7.78861 1.04647 7.8252C1.03638 7.86179 1.01915 7.89602 0.995762 7.92592C0.972378 7.95582 0.943307 7.98079 0.910223 7.9994C0.87714 8.01801 0.8407 8.02988 0.803005 8.03434C0.76531 8.03879 0.727106 8.03574 0.690597 8.02535C0.654088 8.01497 0.619996 7.99746 0.590287 7.97383C0.560579 7.95021 0.535842 7.92094 0.517503 7.8877C0.499164 7.85447 0.487586 7.81794 0.483438 7.78021C0.452812 7.52127 0.437473 7.26075 0.4375 7.00001C0.437754 5.84423 0.743179 4.709 1.32289 3.70912C1.90261 2.70924 2.73605 1.88016 3.73896 1.3057C4.74187 0.731238 5.87868 0.431773 7.03444 0.437583C8.19021 0.443393 9.32395 0.754271 10.321 1.33878C11.0355 1.75948 11.6643 2.31109 12.1744 2.96473Z" fill="#33A360"/>
</g>
<defs>
<clipPath id="clip0_489_427">
<rect width="14" height="14" fill="white"/>
</clipPath>
</defs>
</svg>
