<svg width="22" height="16" viewBox="0 0 22 16" fill="none" xmlns="http://www.w3.org/2000/svg">
<path fill-rule="evenodd" clip-rule="evenodd" d="M17 6.25C14.378 6.25 12.25 8.378 12.25 11C12.25 13.622 14.378 15.75 17 15.75C19.622 15.75 21.75 13.622 21.75 11C21.75 8.378 19.622 6.25 17 6.25ZM15.055 12.03L16.055 13.03C16.1298 13.1048 16.2195 13.1629 16.3183 13.2006C16.4171 13.2383 16.5228 13.2546 16.6283 13.2486C16.7339 13.2426 16.837 13.2142 16.9309 13.1655C17.0248 13.1168 17.1073 13.0488 17.173 12.966L19.088 10.552C19.2013 10.3952 19.2498 10.2008 19.2233 10.0092C19.1968 9.81758 19.0974 9.64357 18.9458 9.52343C18.7942 9.40329 18.6021 9.34627 18.4095 9.36426C18.217 9.38225 18.0387 9.47386 17.912 9.62L16.521 11.375L16.116 10.97C15.9746 10.8333 15.7852 10.7576 15.5885 10.7592C15.3919 10.7609 15.2038 10.8396 15.0646 10.9786C14.9255 11.1176 14.8465 11.3057 14.8447 11.5023C14.8429 11.699 14.9184 11.8885 15.055 12.03Z" fill="#E83330"/>
<path fill-rule="evenodd" clip-rule="evenodd" d="M14.653 5.75H0.25V12C0.25 12.729 0.54 13.429 1.055 13.945C1.57122 14.4602 2.27067 14.7497 3 14.75H12.642C11.7426 13.7078 11.2485 12.3766 11.25 11C11.2503 9.8899 11.5718 8.8036 12.1756 7.87207C12.7794 6.94055 13.6398 6.20357 14.653 5.75ZM7.001 10.25H4C3.80109 10.25 3.61032 10.329 3.46967 10.4697C3.32902 10.6103 3.25 10.8011 3.25 11C3.25 11.1989 3.32902 11.3897 3.46967 11.5303C3.61032 11.671 3.80109 11.75 4 11.75H7.001C7.19991 11.75 7.39068 11.671 7.53133 11.5303C7.67198 11.3897 7.751 11.1989 7.751 11C7.751 10.8011 7.67198 10.6103 7.53133 10.4697C7.39068 10.329 7.19991 10.25 7.001 10.25ZM0.25 4.25H19.75V3C19.75 2.271 19.46 1.571 18.945 1.055C18.4288 0.539795 17.7293 0.250306 17 0.25H3C2.271 0.25 1.571 0.54 1.055 1.055C0.539796 1.57122 0.250306 2.27067 0.25 3V4.25Z" fill="#E83330"/>
</svg>
