<svg width="20" height="22" viewBox="0 0 20 22" fill="none" xmlns="http://www.w3.org/2000/svg">
<path fill-rule="evenodd" clip-rule="evenodd" d="M9.29987 9.61997H10.4373V21.2833H5.13689C4.58685 21.2833 4.13632 20.833 4.13632 20.2827V11.0037L9.29987 9.61997ZM10.9057 9.61997H12.4861V21.2833H10.9057V9.61997ZM12.9545 9.61997H18.6888C18.839 9.62045 18.9829 9.68032 19.089 9.78652C19.1952 9.89271 19.255 10.0366 19.2555 10.1868V20.2827C19.2555 20.8328 18.8051 21.2833 18.2549 21.2833H12.9545V9.61997ZM2.33491 11.0013L8.93571 9.2327L8.08393 6.05368L1.48313 7.82243C1.36368 7.85478 1.26189 7.93309 1.20001 8.04025C1.13812 8.14742 1.12118 8.27473 1.15288 8.39435L1.76299 10.6712C1.7954 10.7906 1.87373 10.8923 1.98088 10.9542C2.08803 11.016 2.21531 11.033 2.33491 11.0013ZM9.38762 9.11159L10.9147 8.70245L10.0629 5.52343L8.53584 5.93257L9.38762 9.11159ZM11.3665 8.58134L17.9673 6.81259C18.0867 6.78025 18.1885 6.70194 18.2504 6.59477C18.3123 6.4876 18.3292 6.3603 18.2975 6.24068L17.6876 3.96382C17.6552 3.84442 17.5768 3.74268 17.4697 3.68084C17.3625 3.61899 17.2352 3.60204 17.1156 3.63371L10.5148 5.40246L11.3665 8.58134ZM10.7064 4.86612C10.5958 4.17822 10.1997 3.78292 9.72244 3.62554C9.09309 3.41793 8.32297 3.6243 7.88158 4.1187C7.54704 4.49366 7.40157 5.03401 7.64988 5.68523L7.96269 5.60136L8.4146 5.48025L9.94168 5.07111L10.3935 4.95L10.7064 4.86612ZM7.34011 4.06057C5.8796 3.87787 4.75211 3.55814 4.45453 4.26043C4.29453 4.6376 4.37425 5.30986 4.77052 6.4566L7.06426 5.84205L7.19547 5.8069C6.97955 5.2073 7.00862 4.58418 7.34011 4.06057ZM13.5858 4.09462C13.3556 2.90332 13.0884 2.28144 12.7614 2.03465C12.1525 1.57541 11.3358 2.41584 10.1623 3.30443C10.7112 3.59205 11.0479 4.11732 11.1608 4.74446L11.7508 4.58625L13.5858 4.09462ZM3.93729 4.38113C2.70003 4.55691 1.28741 4.13351 1.11551 4.05752C1.38873 4.73103 1.95206 5.11346 2.10376 5.23332C1.66915 5.60842 1.29254 5.64551 0.744568 5.80759C1.31302 6.36082 3.3024 6.52788 4.30587 6.54601C4.10241 5.95195 3.82338 5.0563 3.93729 4.38113ZM15.2836 1.70177C15.3551 1.52212 15.6518 0.909235 15.5516 0.189499C15.4406 0.341197 14.429 1.41402 13.2696 1.88046C13.7059 2.40822 13.9121 3.32353 14.0328 3.93974C14.8929 3.42222 16.5322 2.28296 16.7478 1.51949C16.1923 1.65319 15.8477 1.80932 15.2836 1.70177Z" fill="#E83330"/>
</svg>
