<svg width="26" height="29" viewBox="0 0 26 29" fill="none" xmlns="http://www.w3.org/2000/svg">
<path fill-rule="evenodd" clip-rule="evenodd" d="M0.5 10.2638L11.2504 16.4705C11.3662 16.5373 11.4876 16.5856 11.6111 16.6163V28.6539L1.26672 22.5321C0.791487 22.2509 0.5 21.7397 0.5 21.1874V10.2638ZM25.5 10.0988V21.1875C25.5 21.7397 25.2085 22.2509 24.7332 22.5321L14.3889 28.654V16.5108C14.4141 16.4982 14.439 16.4848 14.4638 16.4705L25.5 10.0988Z" fill="#F28D61"/>
<path opacity="0.499209" fill-rule="evenodd" clip-rule="evenodd" d="M0.837738 7.25123C0.969051 7.08541 1.13479 6.94526 1.32802 6.84234L12.2655 1.01679C12.7247 0.772235 13.2754 0.772235 13.7346 1.01679L24.6721 6.84234C24.821 6.92168 24.9537 7.02313 25.0668 7.14142L13.075 14.0649C12.9961 14.1104 12.9234 14.1625 12.8572 14.2201C12.7909 14.1625 12.7182 14.1104 12.6394 14.0649L0.837738 7.25123Z" fill="#F28D61"/>
</svg>
