<svg width="30" height="22" viewBox="0 0 30 22" fill="none" xmlns="http://www.w3.org/2000/svg">
<path fill-rule="evenodd" clip-rule="evenodd" d="M27.3217 10.2979L25.7041 6.48904C25.6102 6.26796 25.405 6.13214 25.1648 6.13214H21.6519C21.3291 6.13214 21.0659 6.39535 21.0659 6.71808V10.1194C21.0659 10.4421 21.3291 10.7053 21.6519 10.7053H27.052C27.1533 10.7053 27.2404 10.6585 27.2963 10.5741C27.3522 10.4896 27.3612 10.3911 27.3217 10.2979ZM11.4633 0.57019H8.26992V5.77572H11.4633V0.57019ZM0.46875 17.6213V15.028H18.7957V18.7931H11.1137C11.1137 16.8194 9.51316 15.2189 7.53949 15.2189C5.56582 15.2189 3.96527 16.8194 3.96527 18.7931H1.64057C0.995156 18.7931 0.46875 18.2667 0.46875 17.6213ZM0.46875 14.0905V1.74201C0.46875 1.0966 0.995156 0.57019 1.64057 0.57019H7.33242V6.12728C7.33242 6.45002 7.59562 6.71322 7.91836 6.71322H11.8148C12.1376 6.71322 12.4008 6.45002 12.4008 6.12728V0.57019H17.6239C18.2693 0.57019 18.7957 1.09666 18.7957 1.74201V14.0905H0.46875ZM24.3979 17.4747C23.6693 17.4747 23.0795 18.0645 23.0795 18.7931C23.0795 19.5217 23.6692 20.1114 24.3979 20.1114C25.1265 20.1114 25.7163 19.5218 25.7163 18.7931C25.7163 18.0645 25.1265 17.4747 24.3979 17.4747ZM24.3979 16.1564C25.8541 16.1564 27.0346 17.3369 27.0346 18.7931C27.0346 20.2493 25.8541 21.4298 24.3979 21.4298C22.9417 21.4298 21.7612 20.2493 21.7612 18.7931C21.7612 17.3369 22.9417 16.1564 24.3979 16.1564ZM7.53943 17.4747C6.81082 17.4747 6.22113 18.0645 6.22113 18.7931C6.22113 19.5217 6.81082 20.1114 7.53943 20.1114C8.26805 20.1114 8.85779 19.5218 8.85779 18.7931C8.85785 18.0645 8.26811 17.4747 7.53943 17.4747ZM7.53943 16.1564C6.0832 16.1564 4.90271 17.3369 4.90271 18.7931C4.90271 20.2493 6.0832 21.4298 7.53943 21.4298C8.99566 21.4298 10.1762 20.2493 10.1762 18.7931C10.1762 17.3369 8.99572 16.1564 7.53943 16.1564ZM19.7333 4.3308H25.7402C26.3577 4.3308 26.8844 4.66003 27.1076 5.1858L29.4321 10.6588C29.5008 10.8208 29.5312 10.9692 29.5312 11.1429V17.9142C29.5312 18.3983 29.1364 18.7931 28.6523 18.7931H27.9721C27.9721 16.8194 26.3716 15.2189 24.3979 15.2189C22.4242 15.2189 20.8237 16.8194 20.8237 18.7931H19.7333V4.3308Z" fill="#249782"/>
</svg>
