<svg width="14" height="14" viewBox="0 0 14 14" fill="none" xmlns="http://www.w3.org/2000/svg">
<path d="M12.6166 3.92963L8.08453 0.840001C7.76544 0.62071 7.38737 0.503319 7.00019 0.503319C6.61301 0.503319 6.23493 0.62071 5.91585 0.840001L1.38335 3.92963C1.12425 4.10613 0.912234 4.3433 0.765753 4.62048C0.619272 4.89765 0.54277 5.20644 0.542908 5.51994V11.5693C0.542908 12.6306 1.40653 13.4943 2.46791 13.4943H11.5325C12.5938 13.4943 13.4575 12.6306 13.4575 11.5693V5.52038C13.4575 5.20679 13.3809 4.89795 13.2343 4.62071C13.0878 4.34347 12.8757 4.10623 12.6166 3.92963ZM4.6051 9.32006H9.39441V10.6199H4.6051V9.32006ZM9.39485 8.53256H4.6051V7.714C4.6051 7.44888 4.82122 7.23275 5.08635 7.23275H8.91316C9.17828 7.23275 9.39441 7.44888 9.39441 7.714V8.53256H9.39485ZM4.6051 11.4074H9.39441V12.7072H4.6051V11.4074ZM12.6695 11.5697C12.6695 12.1971 12.159 12.7072 11.532 12.7072H10.1819V7.714C10.1819 7.01444 9.61272 6.44525 8.91316 6.44525H5.08635C4.74996 6.4456 4.42745 6.57938 4.18959 6.81724C3.95173 7.0551 3.81794 7.37761 3.8176 7.714V12.7072H2.46791C2.16633 12.7068 1.8772 12.5869 1.66396 12.3736C1.45071 12.1604 1.33076 11.8713 1.33041 11.5697V5.52038C1.33041 5.14413 1.51591 4.79238 1.82697 4.58063L6.35903 1.49056C6.55372 1.358 6.77685 1.2915 6.99997 1.2915C7.2231 1.2915 7.44622 1.358 7.64091 1.49056L12.173 4.58063C12.3261 4.68492 12.4514 4.82506 12.5379 4.98886C12.6245 5.15265 12.6696 5.33512 12.6695 5.52038V11.5697Z" fill="#3B82DE"/>
<path d="M8.23375 4.33125H5.76625C5.66182 4.33125 5.56167 4.37274 5.48782 4.44658C5.41398 4.52042 5.3725 4.62057 5.3725 4.725C5.3725 4.82943 5.41398 4.92958 5.48782 5.00343C5.56167 5.07727 5.66182 5.11875 5.76625 5.11875H8.23375C8.33818 5.11875 8.43833 5.07727 8.51217 5.00343C8.58601 4.92958 8.6275 4.82943 8.6275 4.725C8.6275 4.62057 8.58601 4.52042 8.51217 4.44658C8.43833 4.37274 8.33818 4.33125 8.23375 4.33125Z" fill="#3B82DE"/>
</svg>
