<svg width="12" height="10" viewBox="0 0 12 10" fill="none" xmlns="http://www.w3.org/2000/svg">
<path d="M11.3152 4.37996C11.2678 4.38001 11.2217 4.36477 11.1837 4.33649L5.99999 0.501023L0.816252 4.33622C0.792876 4.35352 0.766322 4.36605 0.738106 4.37309C0.70989 4.38012 0.680564 4.38153 0.651803 4.37724C0.623041 4.37294 0.595408 4.36302 0.57048 4.34805C0.545552 4.33307 0.523818 4.31333 0.506518 4.28996C0.489219 4.26658 0.476693 4.24003 0.469656 4.21181C0.462618 4.1836 0.461207 4.15427 0.465504 4.12551C0.4698 4.09675 0.479719 4.06911 0.494695 4.04418C0.509671 4.01926 0.52941 3.99752 0.552785 3.98022L5.86825 0.0468898C5.90637 0.0186574 5.95255 0.00341797 5.99999 0.00341797C6.04742 0.00341797 6.0936 0.0186574 6.13172 0.0468898L11.4472 3.98022C11.4847 4.00792 11.5126 4.04677 11.5267 4.09123C11.5409 4.1357 11.5406 4.1835 11.526 4.2278C11.5113 4.27211 11.4831 4.31065 11.4452 4.33793C11.4074 4.36521 11.3618 4.38009 11.3152 4.37996Z" fill="#E83330"/>
<path d="M5.99999 6.88327C6.06052 6.88327 6.11839 6.90807 6.15999 6.9518L6.46479 7.271V5.87207H5.53519V7.271L5.83972 6.9518C5.86041 6.93014 5.88529 6.9129 5.91283 6.90112C5.94038 6.88934 5.97003 6.88327 5.99999 6.88327Z" fill="#8B201E"/>
<path d="M4.0488 5.87234V9.9966H7.9512V5.87234H6.90773V7.82407C6.90776 7.86832 6.89453 7.91156 6.86974 7.94821C6.84495 7.98486 6.80975 8.01324 6.76867 8.02969C6.7276 8.04614 6.68253 8.0499 6.6393 8.04048C6.59607 8.03107 6.55665 8.00891 6.52613 7.97687L6 7.42567L5.47386 7.97687C5.44335 8.00891 5.40393 8.03107 5.36069 8.04048C5.31746 8.0499 5.2724 8.04614 5.23132 8.02969C5.19025 8.01324 5.15504 7.98486 5.13026 7.94821C5.10547 7.91156 5.09223 7.86832 5.09226 7.82407V5.87207L4.0488 5.87234Z" fill="#8B201E"/>
<path d="M5.99999 1.05127L1.58212 4.32034V9.77527C1.58212 9.89687 1.68159 9.9966 1.80346 9.9966H3.60612V5.65127C3.60612 5.52727 3.70612 5.42994 3.82772 5.42994H8.17306C8.29492 5.42994 8.39439 5.52727 8.39439 5.65127V9.9966H10.1973C10.3192 9.9966 10.4187 9.89687 10.4187 9.77527V4.32247L5.99999 1.05127ZM7.24932 3.19287L5.72772 4.71447C5.68622 4.7556 5.63016 4.77868 5.57172 4.77868C5.51329 4.77868 5.45722 4.7556 5.41572 4.71447L4.75119 4.04994C4.70971 4.00813 4.68644 3.95163 4.68644 3.89274C4.68644 3.83385 4.70971 3.77734 4.75119 3.73554C4.77167 3.71504 4.79599 3.69878 4.82276 3.68769C4.84952 3.67659 4.87821 3.67088 4.90719 3.67088C4.93616 3.67088 4.96486 3.67659 4.99162 3.68769C5.01839 3.69878 5.04271 3.71504 5.06319 3.73554L5.57252 4.24487L6.93492 2.8806C6.97673 2.83913 7.03323 2.81585 7.09212 2.81585C7.15101 2.81585 7.20752 2.83913 7.24932 2.8806C7.26986 2.90109 7.28615 2.92542 7.29727 2.95222C7.30839 2.97901 7.31411 3.00773 7.31411 3.03674C7.31411 3.06574 7.30839 3.09446 7.29727 3.12126C7.28615 3.14805 7.26986 3.17238 7.24932 3.19287Z" fill="#E83330"/>
</svg>
