<svg width="14" height="12" viewBox="0 0 14 12" fill="none" xmlns="http://www.w3.org/2000/svg">
<path d="M13.5788 6.54883L13.5248 6.49198C13.36 6.31949 13.1573 6.18774 12.9327 6.10717V1.36728C12.9324 1.00477 12.7882 0.657211 12.5319 0.400878C12.2755 0.144545 11.928 0.000373145 11.5655 0H5.90513C5.54262 0.000373145 5.19506 0.144545 4.93873 0.400878C4.6824 0.657211 4.53823 1.00477 4.53785 1.36728V5.17733C4.41099 5.2417 4.28601 5.31123 4.16761 5.39205L3.74051 5.68242V5.66879C3.74026 5.37179 3.62217 5.08703 3.41216 4.87701C3.20214 4.667 2.91738 4.54891 2.62038 4.54866H1.43728C1.05621 4.54903 0.690845 4.70058 0.421383 4.97004C0.151921 5.23951 0.000373178 5.60487 0 5.98594V10.2649C0.000373178 10.646 0.151921 11.0113 0.421383 11.2808C0.690845 11.5503 1.05621 11.7018 1.43728 11.7022H2.62085C2.90738 11.7015 3.18272 11.5908 3.39008 11.3931C3.59744 11.1953 3.72102 10.9256 3.73534 10.6394L6.65079 11.3756C7.16971 11.506 7.71207 11.5119 8.23373 11.393L10.6352 10.8419C11.2312 10.7051 11.779 10.409 12.22 9.98534L13.5257 8.7313C13.8194 8.44739 13.9896 8.05932 13.9995 7.65095C14.0095 7.24258 13.8583 6.84669 13.5788 6.54883ZM2.89524 10.5816C2.89512 10.6543 2.86617 10.724 2.81474 10.7755C2.7633 10.8269 2.69358 10.8559 2.62085 10.856H1.43728C1.28043 10.8559 1.13004 10.7935 1.01914 10.6826C0.908226 10.5717 0.845862 10.4213 0.845738 10.2644V5.98548C0.845862 5.82863 0.908226 5.67824 1.01914 5.56733C1.13004 5.45642 1.28043 5.39405 1.43728 5.39393H2.62085C2.77214 5.39393 2.89524 5.51703 2.89524 5.66832V10.5816ZM7.9255 0.846208H9.54274V2.19704H7.9255V0.846208ZM5.38406 1.36728C5.38406 1.07973 5.61805 0.845738 5.9056 0.845738H7.08024V2.44935C7.08024 2.77637 7.34617 3.04231 7.67319 3.04231H9.79646C10.123 3.04231 10.3889 2.77637 10.3889 2.44935V0.846208H11.5659C11.8535 0.846208 12.0875 1.0802 12.0875 1.36775V6.04092C11.897 6.07905 11.7154 6.15286 11.5523 6.25846L10.0694 7.22495C10.1009 7.10232 10.1225 6.97593 10.1225 6.84343C10.1212 6.48798 9.99832 6.14369 9.77431 5.86771C9.55029 5.59173 9.23863 5.40068 8.89105 5.32627L6.76261 4.87944C6.30791 4.78507 5.83864 4.78539 5.38406 4.88038V1.36728ZM12.9398 8.12143L11.6341 9.37547C11.3033 9.69301 10.8926 9.91497 10.4458 10.0178L8.04438 10.5689C7.65317 10.6574 7.24667 10.6529 6.85752 10.5557L3.74098 9.76874V6.70576L4.64357 6.09213C4.92551 5.90119 5.24291 5.76879 5.57696 5.70277C5.91101 5.63675 6.25492 5.63846 6.5883 5.70779L8.71674 6.15462C9.04094 6.22275 9.27633 6.51265 9.27633 6.8439C9.27621 7.03066 9.20197 7.20973 9.06991 7.34178C8.93785 7.47384 8.75878 7.54809 8.57202 7.54821H7.1042C6.99205 7.54821 6.88449 7.59276 6.80518 7.67207C6.72588 7.75137 6.68133 7.85893 6.68133 7.97108C6.68133 8.08323 6.72588 8.19079 6.80518 8.27009C6.88449 8.3494 6.99205 8.39395 7.1042 8.39395H9.36467C9.66517 8.39419 9.95924 8.30684 10.2109 8.14258L12.0137 6.96747C12.1518 6.8774 12.3172 6.8387 12.481 6.8581C12.6447 6.87751 12.7965 6.9538 12.9097 7.07366L12.9638 7.13051C13.2283 7.4096 13.2175 7.85456 12.9398 8.12143Z" fill="#3B82DE"/>
</svg>
