<svg width="28" height="24" viewBox="0 0 28 24" fill="none" xmlns="http://www.w3.org/2000/svg">
<path d="M24.5 2.25H3.5C3.29688 2.25 3.12109 2.32422 2.97266 2.47266C2.82422 2.62109 2.75 2.79688 2.75 3V12H25.25V3C25.25 2.79688 25.1758 2.62109 25.0273 2.47266C24.8789 2.32422 24.7031 2.25 24.5 2.25ZM27.5 12V16.5C27.5 17.3281 27.207 18.0352 26.6211 18.6211C26.0352 19.207 25.3281 19.5 24.5 19.5H17.5859L17.9609 21.75H20.375C20.6875 21.75 20.9531 21.8594 21.1719 22.0781C21.3906 22.2969 21.5 22.5625 21.5 22.875C21.5 23.1875 21.3906 23.4531 21.1719 23.6719C20.9531 23.8906 20.6875 24 20.375 24H7.625C7.3125 24 7.04688 23.8906 6.82812 23.6719C6.60938 23.4531 6.5 23.1875 6.5 22.875C6.5 22.5625 6.60938 22.2969 6.82812 22.0781C7.04688 21.8594 7.3125 21.75 7.625 21.75H10.0391L10.4141 19.5H3.5C2.67188 19.5 1.96484 19.207 1.37891 18.6211C0.792969 18.0352 0.5 17.3281 0.5 16.5V3C0.5 2.17188 0.792969 1.46484 1.37891 0.878906C1.96484 0.292969 2.67188 0 3.5 0H24.5C25.3281 0 26.0352 0.292969 26.6211 0.878906C27.207 1.46484 27.5 2.17188 27.5 3V12ZM2.75 14.25V16.5C2.75 16.7031 2.82422 16.8789 2.97266 17.0273C3.12109 17.1758 3.29688 17.25 3.5 17.25H11.7266C11.7266 17.25 11.7305 17.25 11.7383 17.25C11.7461 17.25 11.7578 17.25 11.7734 17.25H16.2266C16.2266 17.25 16.2305 17.25 16.2383 17.25C16.2461 17.25 16.2578 17.25 16.2734 17.25H24.5C24.7031 17.25 24.8789 17.1758 25.0273 17.0273C25.1758 16.8789 25.25 16.7031 25.25 16.5V14.25H2.75ZM12.3359 21.75H15.6641L15.2891 19.5H12.7109L12.3359 21.75Z" fill="#E83330"/>
</svg>
