<svg width="20" height="20" viewBox="0 0 20 20" fill="none" xmlns="http://www.w3.org/2000/svg">
<path d="M4.98866 15.1858C4.17305 14.4513 3.58467 13.5708 3.19919 12.6254C2.17663 10.1177 2.65545 7.13521 4.65186 5.07792L6.49409 6.92014C6.59553 7.02159 6.77813 6.94855 6.80248 6.79841L7.8088 0.21267C7.82503 0.103111 7.7317 0.00978219 7.62214 0.0260132L1.03234 1.03234C0.882207 1.05668 0.809168 1.23928 0.910611 1.34073L2.75689 3.18701C-0.290485 6.30336 -0.809878 10.9779 1.1906 14.6299C1.79114 15.7295 2.62299 16.7359 3.68206 17.5799C5.4837 19.0123 7.69924 19.698 9.89855 19.6534L10.3124 16.9469C8.41746 17.1092 6.46974 16.5249 4.98866 15.1858ZM17.2431 16.813C20.2905 13.6966 20.8099 9.02206 18.8094 5.37008C18.2088 4.27043 17.377 3.2641 16.3179 2.42009C14.5163 0.987702 12.3007 0.301941 10.1014 0.346576L9.68754 3.0531C11.5785 2.89079 13.5302 3.47511 15.0113 4.81417C15.8269 5.54862 16.4153 6.42915 16.8008 7.37461C17.8233 9.88231 17.3445 12.8648 15.3481 14.922L13.5059 13.0798C13.4044 12.9784 13.2218 13.0514 13.1975 13.2016L12.1912 19.7873C12.1749 19.8969 12.2683 19.9902 12.3778 19.974L18.9676 18.9676C19.1178 18.9433 19.1868 18.7607 19.0894 18.6592L17.2431 16.813Z" fill="#E83330"/>
</svg>
