<svg width="26" height="26" viewBox="0 0 26 26" fill="none" xmlns="http://www.w3.org/2000/svg">
<path d="M5.16 25.9232H20.8293C22.1784 25.9232 23.4724 25.388 24.4274 24.435C25.3824 23.4821 25.9203 22.1892 25.9232 20.8401V5.16C25.9232 2.35999 23.6401 0.0769043 20.8293 0.0769043H17.34V6.68924C17.3394 6.78248 17.3146 6.87396 17.2682 6.95484C17.2218 7.03572 17.1554 7.10325 17.0752 7.1509C16.9951 7.19856 16.904 7.22472 16.8108 7.22685C16.7176 7.22898 16.6254 7.20702 16.5431 7.16309L13.3339 5.45077C13.1716 5.36139 12.9886 5.31633 12.8033 5.32011C12.618 5.32389 12.437 5.37639 12.2785 5.47231L9.44617 7.15232C9.36478 7.20085 9.27194 7.22685 9.17718 7.22766C9.08242 7.22847 8.98915 7.20406 8.90693 7.15692C8.82472 7.10979 8.75653 7.04163 8.70936 6.95944C8.66218 6.87726 8.63772 6.784 8.63848 6.68924V0.0769043H5.16C2.34922 0.0769043 0.0769043 2.35999 0.0769043 5.16V20.8401C0.0769043 23.6401 2.34922 25.9232 5.16 25.9232ZM5.86 13.657V13.6462C5.93216 13.5385 7.87386 11.6216 7.98155 11.5139C8.08118 11.414 8.19952 11.3348 8.3298 11.2808C8.46008 11.2267 8.59974 11.1989 8.74078 11.1989C8.88183 11.1989 9.02149 11.2267 9.15177 11.2808C9.28205 11.3348 9.40039 11.414 9.50002 11.5139C9.92002 11.9339 9.92002 12.6123 9.50002 13.0323L9.36002 13.1723H15.9939C18.3739 13.1723 20.3124 15.1 20.3124 17.48C20.3124 19.8601 18.3739 21.7985 15.9939 21.7985H11.8693C11.2769 21.7985 10.7923 21.3139 10.7923 20.7216C10.7923 20.1293 11.2769 19.6447 11.8693 19.6447H15.9939C17.1893 19.6447 18.1585 18.6754 18.1585 17.48C18.1585 16.2954 17.1893 15.3262 15.9939 15.3262H9.34925L9.50002 15.477C9.92002 15.897 9.92002 16.5862 9.50002 17.0062C9.07786 17.4284 8.39078 17.4154 7.98155 17.0062L6 15.0139C5.57354 14.4808 5.62093 14.134 5.86 13.657Z" fill="#B2ACAC"/>
</svg>
