<svg width="14" height="14" viewBox="0 0 14 14" fill="none" xmlns="http://www.w3.org/2000/svg">
<path d="M12.7505 8.64806C12.5075 8.40366 12.2184 8.20988 11.9 8.07793C11.5816 7.94599 11.2402 7.8785 10.8955 7.87937C10.5508 7.87843 10.2093 7.94584 9.89084 8.07771C9.57236 8.20958 9.28319 8.40329 9.04005 8.64762C8.54436 9.14331 8.27136 9.80219 8.27136 10.5031C8.27136 11.2039 8.54436 11.8628 9.04005 12.3585C9.53574 12.8542 10.1946 13.1272 10.8955 13.1272C11.5964 13.1272 12.2548 12.8542 12.7505 12.3589C13.2462 11.8632 13.5192 11.2044 13.5192 10.5035C13.5192 9.80262 13.2457 9.14331 12.7505 8.64806ZM9.59699 9.205C9.59699 9.20456 9.59699 9.20456 9.59699 9.205C9.76708 9.03388 9.96943 8.8982 10.1923 8.80583C10.4152 8.71346 10.6542 8.66623 10.8955 8.66687C11.2459 8.6671 11.5889 8.76826 11.8834 8.95825L9.35067 11.4914C9.16029 11.1969 9.05896 10.8537 9.05886 10.5031C9.0581 10.2618 9.10529 10.0229 9.19767 9.80003C9.29004 9.57719 9.42578 9.37493 9.59699 9.205ZM12.1931 11.8016C12.023 11.9725 11.8207 12.1081 11.5979 12.2003C11.3751 12.2926 11.1362 12.3398 10.895 12.3392C10.5445 12.3391 10.2013 12.2379 9.90674 12.0479L12.4394 9.51475C12.6298 9.80907 12.7311 10.1521 12.7312 10.5026C12.732 10.744 12.6848 10.9831 12.5924 11.2061C12.5001 11.429 12.3643 11.6314 12.1931 11.8016Z" fill="#E83330"/>
<path d="M10.0625 1.66075C10.5691 1.66075 10.9813 2.07287 10.9813 2.5795V6.77075C10.9813 6.87517 11.0227 6.97533 11.0966 7.04917C11.1704 7.12301 11.2706 7.16449 11.375 7.16449C11.4794 7.16449 11.5796 7.12301 11.6534 7.04917C11.7273 6.97533 11.7688 6.87517 11.7688 6.77075V2.5795C11.7688 1.63887 11.0031 0.873245 10.0625 0.873245H2.18751C1.24689 0.873245 0.481262 1.63887 0.481262 2.5795V10.4545C0.481262 11.3951 1.24689 12.1607 2.18751 12.1607H7.35439C7.45882 12.1607 7.55897 12.1193 7.63281 12.0454C7.70665 11.9716 7.74814 11.8714 7.74814 11.767C7.74814 11.6626 7.70665 11.5624 7.63281 11.4886C7.55897 11.4147 7.45882 11.3732 7.35439 11.3732H2.18751C1.68089 11.3732 1.26876 10.9611 1.26876 10.4545V2.5795C1.26876 2.07287 1.68045 1.66075 2.18751 1.66075H4.01845V4.08712C4.01845 4.4345 4.30107 4.71712 4.64845 4.71712H7.60157C7.94895 4.71712 8.23158 4.4345 8.23158 4.08712V1.66075H10.0625ZM7.44407 3.92962H4.80639V1.66075H7.44407V3.92962Z" fill="#E83330"/>
<path d="M2.75013 9.49812C2.64571 9.49812 2.54555 9.53961 2.47171 9.61345C2.39787 9.68729 2.35638 9.78744 2.35638 9.89187C2.35638 9.9963 2.39787 10.0965 2.47171 10.1703C2.54555 10.2441 2.64571 10.2856 2.75013 10.2856H4.3772C4.48163 10.2856 4.58178 10.2441 4.65562 10.1703C4.72946 10.0965 4.77095 9.9963 4.77095 9.89187C4.77095 9.78744 4.72946 9.68729 4.65562 9.61345C4.58178 9.53961 4.48163 9.49812 4.3772 9.49812H2.75013Z" fill="#E83330"/>
</svg>
