<svg width="14" height="14" viewBox="0 0 14 14" fill="none" xmlns="http://www.w3.org/2000/svg">
<g clip-path="url(#clip0_488_360)">
<path d="M13.4615 3.08216C13.461 2.4078 13.1929 1.76121 12.7161 1.28432C12.2393 0.807422 11.5927 0.53918 10.9184 0.538467H3.08214C2.40778 0.539322 1.76128 0.807592 1.28443 1.28444C0.807577 1.76129 0.539307 2.40779 0.538452 3.08216V10.9184C0.539165 11.5928 0.807407 12.2393 1.2843 12.7161C1.7612 13.1929 2.40778 13.461 3.08214 13.4615H10.9184C11.5927 13.461 12.2392 13.1929 12.716 12.716C13.1928 12.2392 13.461 11.5927 13.4615 10.9184V3.08216ZM8.36822 1.61539V3.22324L7.1583 2.57601C7.07674 2.53247 6.98533 2.51068 6.8929 2.51276C6.80047 2.51483 6.71013 2.5407 6.63061 2.58785L5.63176 3.17801V1.61539H8.36822ZM12.3846 10.9184C12.3842 11.3071 12.2296 11.6798 11.9547 11.9547C11.6798 12.2296 11.3071 12.3842 10.9184 12.3846H3.08214C2.69331 12.3843 2.32048 12.2298 2.04549 11.9549C1.77049 11.68 1.6158 11.3072 1.61538 10.9184V3.08216C1.6158 2.69328 1.77047 2.32045 2.04545 2.04547C2.32043 1.77049 2.69326 1.61582 3.08214 1.61539H4.55484V4.12193C4.55457 4.21702 4.57955 4.31048 4.62721 4.39276C4.67488 4.47505 4.74352 4.54321 4.82614 4.59029C4.90875 4.63738 5.00238 4.6617 5.09747 4.66077C5.19256 4.65984 5.2857 4.6337 5.36738 4.58501L6.91761 3.66854L8.65253 4.59685C8.73461 4.64062 8.82661 4.6624 8.9196 4.66008C9.01259 4.65776 9.10339 4.63141 9.18318 4.5836C9.26297 4.53579 9.32903 4.46815 9.37494 4.38725C9.42084 4.30635 9.44503 4.21495 9.44514 4.12193V1.61539H10.9184C11.3072 1.61582 11.68 1.77051 11.9549 2.0455C12.2298 2.3205 12.3843 2.69333 12.3846 3.08216V10.9184Z" fill="#E83330"/>
<path d="M8.49962 7.08239H5.18808L5.2527 7.01778C5.30533 6.96842 5.3475 6.90899 5.37672 6.84302C5.40593 6.77705 5.42159 6.70588 5.42276 6.63374C5.42393 6.5616 5.41059 6.48995 5.38354 6.42307C5.35648 6.35618 5.31626 6.29542 5.26526 6.24438C5.21425 6.19334 5.15352 6.15308 5.08665 6.12597C5.01978 6.09887 4.94815 6.08548 4.87601 6.0866C4.80387 6.08772 4.73268 6.10333 4.66669 6.13249C4.6007 6.16166 4.54124 6.2038 4.49185 6.25639L3.5237 7.22454C3.46728 7.27409 3.42199 7.33502 3.39081 7.40333C3.35963 7.47164 3.34326 7.54577 3.34277 7.62085L3.34331 7.62462C3.34261 7.69594 3.35615 7.76669 3.38315 7.83271C3.41015 7.89873 3.45006 7.95869 3.50054 8.00908L4.49131 8.99985C4.54095 9.05132 4.60033 9.09238 4.66601 9.12064C4.73168 9.14891 4.80233 9.16381 4.87382 9.16448C4.94532 9.16515 5.01623 9.15158 5.08243 9.12455C5.14862 9.09753 5.20877 9.05759 5.25936 9.00706C5.30995 8.95654 5.34998 8.89645 5.3771 8.8303C5.40422 8.76414 5.41789 8.69325 5.41732 8.62175C5.41675 8.55025 5.40195 8.47959 5.37378 8.41387C5.34561 8.34816 5.30463 8.28871 5.25323 8.23901L5.17354 8.15931H8.49962C9.0957 8.15931 9.58031 8.64393 9.58031 9.24001C9.58031 9.83608 9.0957 10.3207 8.49962 10.3207H6.43893C6.29612 10.3207 6.15916 10.3774 6.05818 10.4784C5.9572 10.5794 5.90047 10.7164 5.90047 10.8592C5.90047 11.002 5.9572 11.1389 6.05818 11.2399C6.15916 11.3409 6.29612 11.3976 6.43893 11.3976H8.49962C9.68962 11.3976 10.6572 10.4295 10.6572 9.24001C10.6572 8.05054 9.68908 7.08239 8.49962 7.08239Z" fill="#E83330"/>
</g>
<defs>
<clipPath id="clip0_488_360">
<rect width="14" height="14" fill="white"/>
</clipPath>
</defs>
</svg>
