<svg width="12" height="14" viewBox="0 0 12 14" fill="none" xmlns="http://www.w3.org/2000/svg">
<path d="M4.36945 4.43231C4.12086 4.43254 3.88252 4.5314 3.70675 4.70717C3.53097 4.88295 3.43212 5.12129 3.43188 5.36987V8.63056C3.43188 9.14769 3.85232 9.56813 4.36945 9.56813H7.63013C7.87872 9.56789 8.11706 9.46904 8.29284 9.29326C8.46861 9.11749 8.56747 8.87915 8.5677 8.63056V5.36987C8.56747 5.12129 8.46861 4.88295 8.29284 4.70717C8.11706 4.5314 7.87872 4.43254 7.63013 4.43231H4.36945ZM5.68457 5.22025H6.31501V5.698H5.68457V5.22025ZM7.77976 5.36944V8.63013C7.77976 8.66981 7.764 8.70787 7.73594 8.73593C7.70788 8.76399 7.66982 8.77975 7.63013 8.77975H4.36945C4.32976 8.77975 4.29171 8.76399 4.26365 8.73593C4.23559 8.70787 4.21982 8.66981 4.21982 8.63013V5.36944C4.21982 5.28719 4.28676 5.21981 4.36945 5.21981H4.89663V5.99375C4.89663 6.26456 5.11757 6.4855 5.38838 6.4855H6.6112C6.88201 6.4855 7.10295 6.26456 7.10295 5.99375V5.21981H7.63013C7.66978 5.21993 7.70777 5.23573 7.73581 5.26376C7.76384 5.2918 7.77964 5.32979 7.77976 5.36944Z" fill="#3B82DE"/>
<path d="M10.9503 4.01801C10.9235 3.9738 10.8883 3.9353 10.8466 3.90471C10.8049 3.87412 10.7576 3.85204 10.7074 3.83973C10.6572 3.82742 10.605 3.82512 10.5539 3.83297C10.5028 3.84081 10.4538 3.85864 10.4096 3.88544C10.3653 3.91225 10.3269 3.94749 10.2963 3.98917C10.2657 4.03086 10.2436 4.07815 10.2313 4.12837C10.219 4.17858 10.2167 4.23073 10.2245 4.28183C10.2324 4.33293 10.2502 4.38198 10.277 4.4262C10.7464 5.20272 10.9941 6.09304 10.9932 7.00044C10.9932 9.75363 8.75362 11.9932 6.00043 11.9932C5.48856 11.9932 4.98893 11.9171 4.51031 11.767L5.0515 11.5067C5.14559 11.4614 5.21787 11.3807 5.25248 11.2822C5.2871 11.1837 5.28121 11.0754 5.23612 10.9813C5.19059 10.8874 5.10982 10.8154 5.01141 10.7808C4.913 10.7462 4.80491 10.7519 4.71068 10.7966L3.3435 11.4542C3.29465 11.4776 3.25117 11.5109 3.21576 11.5519C3.18036 11.5929 3.1538 11.6408 3.13774 11.6925C3.12169 11.7443 3.11648 11.7988 3.12245 11.8526C3.12842 11.9064 3.14543 11.9585 3.17243 12.0054L3.92843 13.3214C3.95352 13.3675 3.98757 13.4082 4.02858 13.4409C4.0696 13.4737 4.11675 13.4979 4.16726 13.5122C4.21777 13.5264 4.27062 13.5305 4.32271 13.524C4.3748 13.5176 4.42507 13.5008 4.47057 13.4746C4.51607 13.4484 4.55588 13.4134 4.58767 13.3717C4.61945 13.3299 4.64255 13.2822 4.65563 13.2314C4.66871 13.1805 4.67149 13.1276 4.66382 13.0757C4.65614 13.0237 4.63816 12.9739 4.61093 12.929L4.39306 12.5497C4.91193 12.7006 5.44962 12.7811 6.00043 12.7811C9.18762 12.7811 11.7811 10.1876 11.7811 7.00044C11.7811 5.94563 11.4941 4.91401 10.9503 4.01801ZM5.99956 2.00682C6.51143 2.00682 7.01106 2.08294 7.48968 2.23301L6.9485 2.49332C6.85834 2.54094 6.79015 2.62163 6.75823 2.71847C6.72631 2.8153 6.73315 2.92073 6.77731 3.01262C6.82148 3.10451 6.89953 3.17572 6.99508 3.21129C7.09063 3.24686 7.19624 3.24403 7.28975 3.20338L8.65693 2.54582C8.70578 2.52239 8.74927 2.48913 8.78467 2.44812C8.82007 2.40712 8.84663 2.35924 8.86269 2.3075C8.87875 2.25576 8.88395 2.20126 8.87798 2.14742C8.87201 2.09357 8.855 2.04154 8.828 1.99457L8.072 0.67857C8.01996 0.588007 7.93407 0.521826 7.83324 0.494586C7.7324 0.467347 7.62487 0.48128 7.53431 0.53332C7.44375 0.585361 7.37757 0.671246 7.35033 0.772082C7.32309 0.872918 7.33702 0.980444 7.38906 1.07101L7.60693 1.45032C7.08483 1.29734 6.54361 1.21942 5.99956 1.21888C2.81237 1.21888 0.218872 3.81238 0.218872 6.99957C0.218872 8.05438 0.505872 9.08601 1.04925 9.98201C1.10338 10.0714 1.19078 10.1355 1.29223 10.1604C1.39368 10.1853 1.50087 10.1689 1.59022 10.1148C1.67956 10.0607 1.74374 9.97326 1.76864 9.8718C1.79355 9.77035 1.77713 9.66316 1.723 9.57382C1.25355 8.79729 1.00585 7.90697 1.00681 6.99957C1.00681 4.24638 3.24637 2.00682 5.99956 2.00682Z" fill="#3B82DE"/>
</svg>
