<svg width="14" height="15" viewBox="0 0 14 15" fill="none" xmlns="http://www.w3.org/2000/svg">
<path d="M7 5C5.6215 5 4.5 6.1215 4.5 7.5C4.5 8.8785 5.6215 10 7 10C8.3785 10 9.5 8.8785 9.5 7.5C9.5 6.1215 8.3785 5 7 5ZM7 9C6.173 9 5.5 8.327 5.5 7.5C5.5 6.673 6.173 6 7 6C7.827 6 8.5 6.673 8.5 7.5C8.5 8.327 7.827 9 7 9Z" fill="#292929"/>
<path d="M12.763 8.518L12.5 8.366C12.187 8.1855 12 7.8615 12 7.5C12 7.1385 12.187 6.8145 12.5 6.634L12.763 6.482C12.9337 6.3836 13.0833 6.25252 13.2033 6.09626C13.3233 5.93999 13.4113 5.76161 13.4622 5.57131C13.5132 5.381 13.5262 5.18252 13.5004 4.9872C13.4746 4.79188 13.4106 4.60355 13.312 4.433L12.812 3.567C12.6128 3.22279 12.2852 2.97168 11.901 2.86875C11.5169 2.76583 11.1076 2.8195 10.763 3.018L10.5 3.1695C10.3484 3.25841 10.1758 3.30528 10 3.30528C9.82422 3.30528 9.65163 3.25841 9.5 3.1695C9.34729 3.08252 9.22049 2.95646 9.13262 2.80427C9.04475 2.65208 8.99897 2.47924 9 2.3035V2C9 1.173 8.327 0.5 7.5 0.5H6.5C5.673 0.5 5 1.173 5 2V2.304C5.00102 2.47974 4.95524 2.65258 4.86737 2.80477C4.7795 2.95696 4.6527 3.08302 4.5 3.17C4.34832 3.25876 4.17574 3.30554 4 3.30554C3.82425 3.30554 3.65168 3.25876 3.5 3.17L3.237 3.018C2.89228 2.81961 2.48296 2.766 2.09878 2.86891C1.7146 2.97182 1.38689 3.22286 1.1875 3.567L0.687497 4.433C0.588878 4.60355 0.524846 4.79188 0.499065 4.9872C0.473284 5.18252 0.486259 5.381 0.537248 5.57131C0.588236 5.76161 0.676239 5.93999 0.796222 6.09626C0.916205 6.25252 1.06582 6.3836 1.2365 6.482L1.5 6.634C1.813 6.8145 2 7.1385 2 7.5C2 7.8615 1.813 8.1855 1.5 8.366L1.237 8.518C1.06632 8.6164 0.916705 8.74748 0.796722 8.90374C0.676739 9.06001 0.588736 9.23839 0.537748 9.42869C0.486759 9.619 0.473784 9.81748 0.499565 10.0128C0.525346 10.2081 0.589378 10.3964 0.687997 10.567L1.188 11.433C1.38729 11.7771 1.71491 12.0281 2.09901 12.1311C2.48312 12.234 2.89235 12.1804 3.237 11.982L3.5 11.8305C3.65163 11.7416 3.82422 11.6947 4 11.6947C4.17577 11.6947 4.34837 11.7416 4.5 11.8305C4.6527 11.9175 4.7795 12.0435 4.86737 12.1957C4.95524 12.3479 5.00102 12.5208 5 12.6965V13C5 13.827 5.673 14.5 6.5 14.5H7.5C8.327 14.5 9 13.827 9 13V12.696C9 12.3345 9.187 12.011 9.5 11.83C9.65168 11.7412 9.82425 11.6945 10 11.6945C10.1757 11.6945 10.3483 11.7412 10.5 11.83L10.763 11.982C11.1077 12.1802 11.5169 12.2338 11.9009 12.1309C12.285 12.0279 12.6126 11.777 12.812 11.433L13.312 10.567C13.4106 10.3964 13.4746 10.2081 13.5004 10.0128C13.5262 9.81748 13.5132 9.619 13.4622 9.42869C13.4113 9.23839 13.3233 9.06001 13.2033 8.90374C13.0833 8.74748 12.9337 8.6164 12.763 8.518ZM12.446 10.067L11.946 10.933C11.8797 11.0478 11.7705 11.1316 11.6424 11.1659C11.5143 11.2003 11.3778 11.1823 11.263 11.116L11 10.964C10.3735 10.6025 9.626 10.6025 9 10.964C8.374 11.3255 8 11.973 8 12.696V13C8 13.2755 7.7755 13.5 7.5 13.5H6.5C6.2245 13.5 6 13.2755 6 13V12.696C6 11.973 5.626 11.3255 5 10.964C4.374 10.6025 3.626 10.6025 3 10.964L2.737 11.116C2.68015 11.1489 2.61738 11.1703 2.55226 11.1789C2.48715 11.1875 2.42098 11.1831 2.35754 11.1662C2.2941 11.1492 2.23464 11.1198 2.18255 11.0798C2.13047 11.0398 2.08678 10.9899 2.054 10.933L1.554 10.067C1.4877 9.95216 1.46973 9.81569 1.50405 9.6876C1.53837 9.55951 1.62216 9.45031 1.737 9.384L2 9.232C2.626 8.8705 3 8.223 3 7.5C3 6.777 2.626 6.1295 2 5.768L1.737 5.616C1.62216 5.54969 1.53837 5.44049 1.50405 5.3124C1.46973 5.18431 1.4877 5.04784 1.554 4.933L2.054 4.067C2.1204 3.95226 2.2296 3.86856 2.35765 3.83425C2.4857 3.79994 2.62213 3.81783 2.737 3.884L3 4.036C3.6265 4.3975 4.374 4.3975 5 4.036C5.626 3.6745 6 3.027 6 2.304V2C6 1.7245 6.2245 1.5 6.5 1.5H7.5C7.7755 1.5 8 1.7245 8 2V2.304C8 3.027 8.374 3.6745 9 4.036C9.626 4.3975 10.374 4.3975 11 4.036L11.263 3.884C11.3778 3.8177 11.5143 3.79973 11.6424 3.83405C11.7705 3.86837 11.8797 3.95216 11.946 4.067L12.446 4.933C12.5123 5.04784 12.5303 5.18431 12.4959 5.3124C12.4616 5.44049 12.3778 5.54969 12.263 5.616L12 5.768C11.374 6.1295 11 6.777 11 7.5C11 8.223 11.374 8.8705 12 9.232L12.263 9.384C12.3778 9.45031 12.4616 9.55951 12.4959 9.6876C12.5303 9.81569 12.5123 9.95216 12.446 10.067Z" fill="#292929"/>
</svg>
