<svg width="28" height="28" viewBox="0 0 28 28" fill="none" xmlns="http://www.w3.org/2000/svg">
<path d="M22.75 0.25H5.25C3.92392 0.25 2.65215 0.776784 1.71447 1.71447C0.776784 2.65215 0.25 3.92392 0.25 5.25V14C0.25 14.3315 0.381696 14.6495 0.616116 14.8839C0.850537 15.1183 1.16848 15.25 1.5 15.25H7.75V26.5C7.74941 26.7391 7.81739 26.9733 7.9459 27.1749C8.0744 27.3766 8.25803 27.5371 8.475 27.6375C8.69248 27.7376 8.93415 27.7732 9.17125 27.7399C9.40836 27.7067 9.63093 27.6061 9.8125 27.45L13.375 24.4L16.9375 27.45C17.1639 27.6437 17.4521 27.7501 17.75 27.7501C18.0479 27.7501 18.3361 27.6437 18.5625 27.45L22.125 24.4L25.6875 27.45C25.9139 27.6436 26.2021 27.75 26.5 27.75C26.6808 27.7487 26.8595 27.7104 27.025 27.6375C27.242 27.5371 27.4256 27.3766 27.5541 27.1749C27.6826 26.9733 27.7506 26.7391 27.75 26.5V5.25C27.75 3.92392 27.2232 2.65215 26.2855 1.71447C25.3479 0.776784 24.0761 0.25 22.75 0.25ZM2.75 12.75V5.25C2.75 4.58696 3.01339 3.95107 3.48223 3.48223C3.95107 3.01339 4.58696 2.75 5.25 2.75C5.91304 2.75 6.54893 3.01339 7.01777 3.48223C7.48661 3.95107 7.75 4.58696 7.75 5.25V12.75H2.75ZM25.25 23.7875L22.9375 21.8C22.7111 21.6063 22.4229 21.4999 22.125 21.4999C21.8271 21.4999 21.5389 21.6063 21.3125 21.8L17.75 24.85L14.1875 21.8C13.9611 21.6063 13.6729 21.4999 13.375 21.4999C13.0771 21.4999 12.7889 21.6063 12.5625 21.8L10.25 23.7875V5.25C10.2484 4.37185 10.0156 3.5096 9.575 2.75H22.75C23.413 2.75 24.0489 3.01339 24.5178 3.48223C24.9866 3.95107 25.25 4.58696 25.25 5.25V23.7875ZM22.75 6.5C22.75 6.83152 22.6183 7.14946 22.3839 7.38388C22.1495 7.6183 21.8315 7.75 21.5 7.75H14C13.6685 7.75 13.3505 7.6183 13.1161 7.38388C12.8817 7.14946 12.75 6.83152 12.75 6.5C12.75 6.16848 12.8817 5.85054 13.1161 5.61612C13.3505 5.3817 13.6685 5.25 14 5.25H21.5C21.8315 5.25 22.1495 5.3817 22.3839 5.61612C22.6183 5.85054 22.75 6.16848 22.75 6.5ZM22.75 11.5C22.75 11.8315 22.6183 12.1495 22.3839 12.3839C22.1495 12.6183 21.8315 12.75 21.5 12.75H14C13.6685 12.75 13.3505 12.6183 13.1161 12.3839C12.8817 12.1495 12.75 11.8315 12.75 11.5C12.75 11.1685 12.8817 10.8505 13.1161 10.6161C13.3505 10.3817 13.6685 10.25 14 10.25H21.5C21.8315 10.25 22.1495 10.3817 22.3839 10.6161C22.6183 10.8505 22.75 11.1685 22.75 11.5ZM22.75 16.5C22.75 16.8315 22.6183 17.1495 22.3839 17.3839C22.1495 17.6183 21.8315 17.75 21.5 17.75H14C13.6685 17.75 13.3505 17.6183 13.1161 17.3839C12.8817 17.1495 12.75 16.8315 12.75 16.5C12.75 16.1685 12.8817 15.8505 13.1161 15.6161C13.3505 15.3817 13.6685 15.25 14 15.25H21.5C21.8315 15.25 22.1495 15.3817 22.3839 15.6161C22.6183 15.8505 22.75 16.1685 22.75 16.5Z" fill="#16A7D3"/>
</svg>
