<svg width="14" height="14" viewBox="0 0 14 14" fill="none" xmlns="http://www.w3.org/2000/svg">
<path d="M13.4312 9.76632C13.4003 9.66659 13.331 9.58324 13.2387 9.53459C13.1463 9.48594 13.0384 9.47597 12.9386 9.50688L12.2417 9.723C12.2512 9.58024 12.2349 9.43692 12.1936 9.29994L10.7454 4.62088C10.6989 4.46914 10.6228 4.32813 10.5214 4.20603C10.42 4.08392 10.2954 3.98313 10.1548 3.9095C10.0145 3.83531 9.86088 3.78961 9.70282 3.77504C9.54477 3.76047 9.38539 3.77733 9.23387 3.82463L4.56094 5.27232C4.4205 5.31563 4.29406 5.38519 4.18119 5.47225L2.86519 1.22369C2.80385 1.02665 2.68312 0.853382 2.51952 0.727605C2.35591 0.601828 2.15743 0.529689 1.95125 0.521065L0.960748 0.48169C0.738936 0.481253 0.560436 0.641815 0.551686 0.859253C0.542936 1.07669 0.712248 1.25957 0.929248 1.26875L1.91975 1.30813C1.96335 1.30991 2.00531 1.32518 2.03987 1.35182C2.07443 1.37846 2.09987 1.41517 2.11269 1.45688L4.78362 10.0826C4.62095 10.2317 4.48432 10.407 4.37937 10.6011C4.13175 11.0714 4.08144 11.6099 4.23894 12.1174C4.39644 12.6249 4.74162 13.0406 5.2115 13.2886C5.44239 13.411 5.69523 13.4864 5.95542 13.5105C6.21561 13.5346 6.478 13.5069 6.72744 13.4291C6.97737 13.3526 7.20963 13.2272 7.41075 13.0602C7.61187 12.8933 7.77785 12.6881 7.89906 12.4565C8.00362 12.2583 8.06444 12.047 8.09812 11.8318L11.3886 10.8115L11.3973 10.8102C11.4017 10.8089 11.4052 10.8063 11.4091 10.8049L13.1714 10.2585C13.2208 10.2433 13.2668 10.2185 13.3066 10.1856C13.3464 10.1526 13.3794 10.1121 13.4035 10.0664C13.4276 10.0206 13.4425 9.9706 13.4473 9.91911C13.452 9.86762 13.4466 9.81569 13.4312 9.76632ZM8.09856 6.16481L6.81756 6.56163L6.48856 5.49938L7.76912 5.10257L8.09856 6.16481ZM7.20256 12.0894C7.12923 12.2293 7.02893 12.3533 6.90743 12.4542C6.78594 12.5552 6.64566 12.631 6.49469 12.6774C6.18844 12.7728 5.86294 12.7418 5.579 12.5926C5.43916 12.5192 5.31523 12.4189 5.21438 12.2974C5.11354 12.1759 5.03776 12.0356 4.99144 11.8847C4.8965 11.5784 4.92669 11.2529 5.07631 10.969C5.17776 10.7751 5.33043 10.6128 5.51772 10.4996C5.70501 10.3864 5.91974 10.3268 6.13856 10.3272C6.65131 10.3272 7.12775 10.6588 7.28744 11.1742C7.33451 11.3248 7.35125 11.4832 7.33668 11.6403C7.32211 11.7974 7.27652 11.9501 7.20256 12.0894ZM11.1689 10.0559L8.05656 11.0211C8.04956 10.9944 8.04825 10.9673 8.03994 10.9406C7.88353 10.4368 7.53355 10.0157 7.06687 9.76974C6.60019 9.52381 6.05498 9.47317 5.551 9.62894C5.52519 9.63682 5.50287 9.65082 5.4775 9.66L4.51587 6.55419L4.51544 6.55069C4.48219 6.44394 4.49269 6.33019 4.54519 6.23088C4.59769 6.13157 4.68562 6.0585 4.79281 6.02569L5.73694 5.733L6.18231 7.1715C6.21334 7.27104 6.28259 7.35421 6.37486 7.40276C6.46712 7.45132 6.57488 7.46129 6.6745 7.4305L8.70756 6.80094C8.80728 6.77 8.89063 6.70073 8.93928 6.60835C8.98794 6.51597 8.9979 6.40804 8.967 6.30832L8.52162 4.86982L9.46706 4.57713C9.51974 4.56074 9.57514 4.55489 9.63009 4.55992C9.68503 4.56494 9.73845 4.58075 9.78729 4.60642C9.83612 4.6321 9.87942 4.66715 9.91471 4.70956C9.94999 4.75198 9.97657 4.80093 9.99294 4.85363L11.4411 9.53269C11.4732 9.63817 11.4627 9.75204 11.4118 9.84987C11.3609 9.9477 11.2737 10.0217 11.1689 10.0559Z" fill="#3B82DE"/>
</svg>
