<svg width="12" height="10" viewBox="0 0 12 10" fill="none" xmlns="http://www.w3.org/2000/svg">
<path d="M3.8672 6.28105L3.56505 5.9502C3.52677 5.90918 2.62443 4.9207 2.04474 4.07578C1.81232 3.73672 1.66193 3.46738 1.5881 3.25137C1.54572 3.12832 1.5129 2.9998 1.49103 2.87129C1.46779 2.7373 1.45685 2.60059 1.45685 2.46387C1.45685 2.34492 1.46505 2.22461 1.48282 2.10703C1.56622 1.54102 1.85197 1.02012 2.28673 0.642774C2.72286 0.261328 3.28478 0.0507812 3.8672 0.0507812C5.19747 0.0507812 6.28029 1.13359 6.28029 2.46387C6.28029 2.5582 6.27482 2.65391 6.26388 2.74688C6.25978 2.78789 6.25294 2.83027 6.24611 2.87266C6.22423 3.00117 6.19142 3.12832 6.14904 3.25137C6.07384 3.46738 5.92482 3.73809 5.69103 4.07715C5.11134 4.9207 4.20763 5.90918 4.17072 5.95156L3.8672 6.28105ZM3.8672 0.871094C3.0838 0.871094 2.40704 1.45488 2.2922 2.22734C2.28126 2.30527 2.27443 2.38457 2.27443 2.4625C2.27443 2.55273 2.28263 2.64434 2.29767 2.73184C2.31271 2.8166 2.33322 2.90137 2.36193 2.98203C2.39611 3.08047 2.48634 3.26914 2.72013 3.61094C3.0674 4.1168 3.55548 4.69648 3.8672 5.05469C4.17892 4.69648 4.667 4.1168 5.01427 3.61094C5.24943 3.26914 5.33829 3.08047 5.37247 2.98203C5.39982 2.90137 5.42169 2.8166 5.43673 2.73184C5.44083 2.70449 5.44493 2.67852 5.44767 2.65117C5.4545 2.58828 5.45861 2.52539 5.45861 2.4625C5.45997 1.58613 4.74493 0.871094 3.8672 0.871094Z" fill="#3B82DE"/>
<path d="M7.71582 9.04961H3.64707L3.64297 8.64355C3.64023 8.38242 3.42559 8.17051 3.16445 8.17051C2.90332 8.17051 2.68867 8.38242 2.68594 8.64355L2.68184 9.04961H1.03574C0.782812 9.04961 0.54082 8.95527 0.354883 8.78437C0.156641 8.60254 0.0458984 8.35781 0.0458984 8.09531V3.35117C0.0458984 3.09004 0.155273 2.84531 0.352148 2.66211C0.539453 2.48711 0.782812 2.39141 1.03574 2.39141H2.23887L2.29766 2.73184C2.3127 2.8166 2.33457 2.90137 2.36191 2.9834C2.39609 3.08184 2.48633 3.27051 2.72012 3.6123C3.06875 4.11953 3.55547 4.69785 3.86719 5.05605C4.17891 4.69785 4.66699 4.11816 5.01426 3.6123C5.24941 3.27051 5.33828 3.08184 5.37246 2.9834C5.3998 2.90273 5.42168 2.81797 5.43672 2.7332L5.49551 2.39277H6.76699C7.02539 2.39277 7.26602 2.49395 7.44512 2.67852C7.62012 2.85898 7.71582 3.09824 7.71582 3.35391V9.04961ZM4.39355 8.2293H6.89551V3.35254C6.89551 3.28281 6.85176 3.21309 6.76699 3.21309H6.16133C6.15723 3.22539 6.15313 3.23906 6.14902 3.25137C6.07383 3.46738 5.9248 3.73809 5.69102 4.07715C5.11133 4.9207 4.20762 5.90918 4.1707 5.95156L3.86719 6.28105L3.56504 5.9502C3.52676 5.90918 2.62441 4.9207 2.04473 4.07578C1.8123 3.73672 1.66191 3.46738 1.58809 3.25137C1.58398 3.2377 1.57852 3.22539 1.57441 3.21172H1.03711C0.950977 3.21172 0.867578 3.28145 0.867578 3.35117V8.09531C0.867578 8.16231 0.950977 8.2293 1.03711 8.2293H1.93535C1.99961 8.04199 2.10625 7.86973 2.25117 7.72617C2.4959 7.48418 2.81992 7.3502 3.16445 7.3502C3.50898 7.3502 3.83301 7.48418 4.07773 7.72617C4.22266 7.87109 4.3293 8.04199 4.39355 8.2293ZM9.09531 9.94922C8.37891 9.94922 7.79648 9.3668 7.79648 8.65039V8.63125C7.80195 8.28945 7.9373 7.96816 8.18203 7.72617C8.42676 7.48418 8.75078 7.3502 9.09531 7.3502C9.43984 7.3502 9.76387 7.48418 10.0086 7.72617C10.252 7.9668 10.3887 8.28809 10.3941 8.63125V8.65039C10.3941 9.3668 9.81172 9.94922 9.09531 9.94922ZM8.6168 8.65176C8.6168 8.91562 8.83145 9.12891 9.09531 9.12891C9.35918 9.12891 9.57383 8.91426 9.57383 8.65176V8.64492C9.57109 8.38379 9.35645 8.17188 9.09531 8.17188C8.83418 8.17188 8.61953 8.38379 8.6168 8.64492V8.65176Z" fill="#3B82DE"/>
<path d="M11.9541 9.04961H9.5779L9.5738 8.64355C9.57107 8.38242 9.35642 8.17051 9.09529 8.17051C8.83416 8.17051 8.61951 8.38242 8.61677 8.64355L8.61267 9.04961H6.89548V3.40313H10.0441L11.9541 5.79297V9.04961ZM10.3258 8.2293H11.1338V6.08145L9.65037 4.22344H7.7158V8.2293H7.86619C7.93044 8.04199 8.03708 7.86973 8.18201 7.72617C8.42673 7.48418 8.75076 7.3502 9.09529 7.3502C9.43982 7.3502 9.76384 7.48418 10.0086 7.72617C10.1535 7.87109 10.2615 8.04199 10.3258 8.2293ZM3.16443 9.94922C2.44802 9.94922 1.8656 9.3668 1.8656 8.65039V8.63125C1.87107 8.28945 2.00779 7.96816 2.25115 7.72754C2.49587 7.48555 2.8199 7.35156 3.16443 7.35156C3.50896 7.35156 3.83298 7.48555 4.07771 7.72754C4.32107 7.96816 4.45779 8.28945 4.46326 8.63262V8.65176C4.46326 9.3668 3.88084 9.94922 3.16443 9.94922ZM2.68591 8.65176C2.68728 8.91562 2.90056 9.12891 3.16443 9.12891C3.4283 9.12891 3.64294 8.91426 3.64294 8.65176V8.64492C3.64021 8.38379 3.42556 8.17188 3.16443 8.17188C2.9033 8.17188 2.68865 8.38379 2.68591 8.64492V8.65176Z" fill="#3B82DE"/>
<path d="M8.50193 5.5332H11.5371V6.35352H8.50193V5.5332ZM3.86716 3.37031C3.36677 3.37031 2.95935 2.96289 2.95935 2.4625C2.95935 1.96211 3.36677 1.55469 3.86716 1.55469C4.36755 1.55469 4.77498 1.96211 4.77498 2.4625C4.77498 2.96426 4.36755 3.37031 3.86716 3.37031ZM3.86716 2.37637C3.81931 2.37637 3.77966 2.41602 3.77966 2.46387C3.77966 2.51172 3.81931 2.55137 3.86716 2.55137C3.91501 2.55137 3.95466 2.51172 3.95466 2.46387C3.95466 2.41602 3.91501 2.37637 3.86716 2.37637Z" fill="#3B82DE"/>
</svg>
