<svg width="30" height="28" viewBox="0 0 30 28" fill="none" xmlns="http://www.w3.org/2000/svg">
<path d="M16.872 21.8079H0V24.4173C0.00194612 25.9889 1.22 27.2909 2.78829 27.3976C2.82173 27.3928 2.85554 27.39 2.88934 27.3896H18.0619C17.296 26.5599 16.8712 25.4718 16.872 24.3427V21.8079Z" fill="#FFBB00"/>
<path d="M4.72599 1.88722L4.59985 20.3661H17.5929C17.9911 20.3661 18.3137 20.689 18.3137 21.0869V24.3428C18.3137 25.9117 19.5652 27.2496 21.1014 27.3899H21.3472C21.3866 27.3901 21.426 27.3935 21.4649 27.4003C23.1131 27.3442 24.4204 25.9919 24.4207 24.3428V2.11701C24.4205 1.35653 24.6723 0.617423 25.1366 0.0151925H6.63103C5.58841 0.00726389 4.73644 0.84489 4.72599 1.88722ZM7.8124 4.94069H14.6391C15.0372 4.94069 15.3599 5.26338 15.3599 5.66147C15.3599 6.05964 15.0372 6.38226 14.6391 6.38226H7.81247C7.41431 6.38226 7.09168 6.05964 7.09168 5.66147C7.09168 5.26338 7.41424 4.94069 7.8124 4.94069ZM7.8124 10.0943H20.5468C20.9449 10.0943 21.2676 10.417 21.2676 10.8151C21.2676 11.2133 20.9449 11.5359 20.5468 11.5359H7.81247C7.41431 11.5359 7.09168 11.2133 7.09168 10.8151C7.09168 10.417 7.41424 10.0943 7.8124 10.0943ZM7.8124 15.2479H20.5468C20.9449 15.2479 21.2676 15.5706 21.2676 15.9687C21.2676 16.3669 20.9449 16.6895 20.5468 16.6895H7.81247C7.41431 16.6895 7.09168 16.3669 7.09168 15.9687C7.09168 15.5706 7.41424 15.2479 7.8124 15.2479ZM27.9311 0.0810724C26.7981 0.0734321 25.8726 0.984002 25.8623 2.11701V12.0959H30V2.11701C29.9896 0.98393 29.0641 0.0731438 27.9311 0.0810724Z" fill="#FFBB00"/>
</svg>
